<svg xmlns="http://www.w3.org/2000/svg" viewBox="0 0 60.123 60.123" width="50" height="32"><path d="M57.124 51.893H16.92a3 3 0 1 1 0-6h40.203a3 3 0 0 1 .001 6z" data-original="#000000" class="active-path" data-old_color="#52e29c" fill="#FFF"/><path d="M57.124 33.062H16.92a3 3 0 1 1 0-6h40.203a3 3 0 0 1 .001 6z" data-original="#000000" class="active-path" fill="#FFF"/><path d="M57.124 14.231H16.92a3 3 0 1 1 0-6h40.203a3 3 0 0 1 .001 6z" data-original="#000000" class="active-path" data-old_color="#FFF" fill="#FFF"/><circle cx="4.029" cy="11.463" r="4.029" data-original="#000000" class="active-path" fill="#FFF"/><circle cx="4.029" cy="30.062" r="4.029" data-original="#000000" class="active-path" fill="#FFF"/><circle cx="4.029" cy="48.661" r="4.029" data-original="#000000" class="active-path" fill="#FFF"/></svg>