<svg xmlns="http://www.w3.org/2000/svg" width="512" height="512"><path d="M256 512c139.695-52.258 232.276-185.739 232.276-334.887V86.716c-47.892 0-86.716-38.824-86.716-86.716H110.44c0 47.892-38.824 86.716-86.716 86.716v90.396C23.724 326.261 116.305 459.742 256 512z" data-original="#FFDB0C" class="active-path" data-old_color="#00FFF2" fill="#00ffea"/><path d="M256 512c139.695-52.258 232.276-185.739 232.276-334.887V86.716c-47.892 0-86.716-38.824-86.716-86.716H256v512z" data-original="#FBBF00" data-old_color="#00FFF9" fill="#00fff2"/><path data-original="#F1F1F2" fill="#f1f1f2" d="M223.642 346.281L146.64 269.28l42.426-42.427 34.576 34.576 99.292-99.292 42.426 42.426z"/><path data-original="#E6E6E6" fill="#e6e6e6" d="M256 313.923v-84.852l66.934-66.934 42.426 42.426z"/></svg>