<svg xmlns="http://www.w3.org/2000/svg" xmlns:xlink="http://www.w3.org/1999/xlink" viewBox="0 0 476.47 455.13"><defs><style>.cls-1,.cls-88,.cls-89{fill:none}.cls-88,.cls-89{stroke:#4dffff;stroke-miterlimit:10}.cls-89{stroke-width:.5px}.cls-90{fill:#4dffff}.cls-91{fill:#d6ffff}</style><radialGradient id="Degradado_sin_nombre_865" cx="238.32" cy="436.55" r="49.08" gradientTransform="matrix(1 0 0 .4 0 260.1)" gradientUnits="userSpaceOnUse"><stop offset="0" stop-color="#1affff"/><stop offset=".04" stop-color="#18f2f6" stop-opacity=".94"/><stop offset=".25" stop-color="#11b8d1" stop-opacity=".66"/><stop offset=".45" stop-color="#0b87b2" stop-opacity=".42"/><stop offset=".62" stop-color="#066299" stop-opacity=".24"/><stop offset=".78" stop-color="#034788" stop-opacity=".11"/><stop offset=".91" stop-color="#01367d" stop-opacity=".03"/><stop offset="1" stop-color="#003079" stop-opacity="0"/></radialGradient><radialGradient id="Degradado_sin_nombre_830" cx="144.9" cy="254.19" r="101.06" gradientTransform="matrix(1 -.04 .03 .88 -7.67 35.15)" gradientUnits="userSpaceOnUse"><stop offset="0" stop-color="#00002d" stop-opacity="0"/><stop offset=".22" stop-color="#084a6a" stop-opacity=".29"/><stop offset=".43" stop-color="#0e8a9f" stop-opacity=".54"/><stop offset=".62" stop-color="#13bdc8" stop-opacity=".74"/><stop offset=".78" stop-color="#17e1e6" stop-opacity=".88"/><stop offset=".91" stop-color="#19f7f8" stop-opacity=".97"/><stop offset="1" stop-color="#1affff"/></radialGradient><radialGradient id="Degradado_sin_nombre_846" cx="164.69" cy="298.57" r="53.83" gradientTransform="rotate(-2.1 118.278 246.957)" gradientUnits="userSpaceOnUse"><stop offset="0" stop-color="#00002d" stop-opacity="0"/><stop offset=".25" stop-color="#084e6d" stop-opacity=".3"/><stop offset=".52" stop-color="#1099ab" stop-opacity=".6"/><stop offset=".75" stop-color="#15d0d8" stop-opacity=".82"/><stop offset=".91" stop-color="#19f2f4" stop-opacity=".95"/><stop offset="1" stop-color="#1affff"/></radialGradient><radialGradient id="Degradado_sin_nombre_830-2" cx="383.89" cy="264.2" r="101.06" gradientTransform="matrix(-1 -.04 -.03 .88 723.46 35.15)" xlink:href="#Degradado_sin_nombre_830"/><radialGradient id="Degradado_sin_nombre_830-3" cx="393.44" cy="297.54" r="55.42" gradientTransform="matrix(-1 -.04 -.04 1 724.77 4.5)" xlink:href="#Degradado_sin_nombre_830"/><radialGradient id="Degradado_sin_nombre_526" cx="235.17" cy="152.96" r="310.56" gradientUnits="userSpaceOnUse"><stop offset="0" stop-color="#1affff"/><stop offset=".09" stop-color="#19f7f8" stop-opacity=".97"/><stop offset=".22" stop-color="#17e1e6" stop-opacity=".88"/><stop offset=".38" stop-color="#13bdc8" stop-opacity=".74"/><stop offset=".57" stop-color="#0e8a9f" stop-opacity=".54"/><stop offset=".78" stop-color="#084a6a" stop-opacity=".29"/><stop offset="1" stop-color="#00002d" stop-opacity="0"/></radialGradient><linearGradient id="Degradado_sin_nombre_551" x1="238.6" y1="459.69" x2="238.6" y2="315.87" gradientUnits="userSpaceOnUse"><stop offset="0" stop-color="#00002d" stop-opacity="0"/><stop offset=".1" stop-color="#02123c" stop-opacity=".07"/><stop offset=".31" stop-color="#074264" stop-opacity=".26"/><stop offset=".61" stop-color="#0f90a3" stop-opacity=".56"/><stop offset=".98" stop-color="#19f8fa" stop-opacity=".97"/><stop offset="1" stop-color="#1affff"/></linearGradient><radialGradient id="Degradado_sin_nombre_526-2" cx="239.94" cy="336.58" r="37.77" xlink:href="#Degradado_sin_nombre_526"/><radialGradient id="Degradado_sin_nombre_727" cx="239.52" cy="329.64" r="17.51" gradientUnits="userSpaceOnUse"><stop offset="0" stop-color="#1affff"/><stop offset=".16" stop-color="#15e4f7"/><stop offset=".29" stop-color="#0f87f3"/><stop offset=".49" stop-color="#15e4f7"/><stop offset=".6" stop-color="#09a1e3"/><stop offset=".65" stop-color="#0ebeec"/><stop offset=".74" stop-color="#15e4f7"/><stop offset=".84" stop-color="#0cb1e7"/><stop offset=".95" stop-color="#0381d9"/><stop offset="1" stop-color="#006fd3"/></radialGradient><radialGradient id="Degradado_sin_nombre_526-3" cx="238.05" cy="338.01" r="64.22" gradientTransform="matrix(1 0 0 1.1 0 -35.31)" xlink:href="#Degradado_sin_nombre_526"/><radialGradient id="Degradado_sin_nombre_727-2" cx="239.52" cy="333.55" r="13.45" xlink:href="#Degradado_sin_nombre_727"/><linearGradient id="Degradado_sin_nombre_756" x1="257.9" y1="283.23" x2="334.98" y2="283.23" gradientUnits="userSpaceOnUse"><stop offset="0" stop-color="#1affff"/><stop offset=".12" stop-color="#1afbfc" stop-opacity=".98"/><stop offset=".24" stop-color="#18eef1" stop-opacity=".93"/><stop offset=".37" stop-color="#16d9e0" stop-opacity=".85"/><stop offset=".5" stop-color="#13bcc8" stop-opacity=".74"/><stop offset=".63" stop-color="#0f96a9" stop-opacity=".59"/><stop offset=".76" stop-color="#0b6882" stop-opacity=".41"/><stop offset=".89" stop-color="#053256" stop-opacity=".2"/><stop offset="1" stop-color="#00002d" stop-opacity="0"/></linearGradient><linearGradient id="Degradado_sin_nombre_605" x1="247.84" y1="269.7" x2="313.05" y2="269.7" gradientTransform="matrix(.98 -.18 .09 .49 -10.26 203.35)" gradientUnits="userSpaceOnUse"><stop offset="0" stop-color="#fff" stop-opacity="0"/><stop offset=".09" stop-color="#faffff" stop-opacity=".02"/><stop offset=".22" stop-color="#ebffff" stop-opacity=".09"/><stop offset=".36" stop-color="#d2ffff" stop-opacity=".2"/><stop offset=".52" stop-color="#afffff" stop-opacity=".35"/><stop offset=".68" stop-color="#83ffff" stop-opacity=".54"/><stop offset=".85" stop-color="#4effff" stop-opacity=".77"/><stop offset="1" stop-color="#1affff"/></linearGradient><linearGradient id="Degradado_sin_nombre_714" x1="263.55" y1="285.76" x2="321.38" y2="285.76" gradientUnits="userSpaceOnUse"><stop offset="0" stop-color="#fff" stop-opacity="0"/><stop offset=".02" stop-color="#fdffff" stop-opacity=".02"/><stop offset=".3" stop-color="#e1ffff" stop-opacity=".36"/><stop offset=".55" stop-color="#caffff" stop-opacity=".64"/><stop offset=".76" stop-color="#baffff" stop-opacity=".83"/><stop offset=".91" stop-color="#b0ffff" stop-opacity=".95"/><stop offset="1" stop-color="#acffff"/></linearGradient><radialGradient id="Degradado_sin_nombre_705" cx="276.72" cy="296.46" r="44.87" gradientTransform="matrix(1.01 -.19 .14 .78 -32.76 120.85)" gradientUnits="userSpaceOnUse"><stop offset="0" stop-color="#00d3ff"/><stop offset=".11" stop-color="#00c5f1"/><stop offset=".31" stop-color="#00a1cd"/><stop offset=".58" stop-color="#006592"/><stop offset=".92" stop-color="#001541"/><stop offset="1" stop-color="#00002d"/></radialGradient><clipPath id="clip-path"><path class="cls-1" d="M257.9 291.08s15.12 11.4 30.65 8.54 25.61-18.9 25.61-18.9-15.12-11.4-30.66-8.54-25.6 18.9-25.6 18.9z"/></clipPath><linearGradient id="Degradado_sin_nombre_764" x1="250.45" y1="286.16" x2="341.61" y2="286.16" gradientTransform="rotate(80.39 285.469 286.153)" gradientUnits="userSpaceOnUse"><stop offset="0" stop-color="#fff" stop-opacity="0"/><stop offset=".09" stop-color="#f3ffff" stop-opacity=".05"/><stop offset=".25" stop-color="#d5ffff" stop-opacity=".18"/><stop offset=".48" stop-color="#a3ffff" stop-opacity=".4"/><stop offset=".75" stop-color="#60ffff" stop-opacity=".7"/><stop offset="1" stop-color="#1affff"/></linearGradient><linearGradient id="Degradado_sin_nombre_739" x1="269.37" y1="286.16" x2="301.57" y2="286.16" gradientUnits="userSpaceOnUse"><stop offset="0" stop-color="#00d4ff"/><stop offset=".05" stop-color="#0dd6ff" stop-opacity=".95"/><stop offset=".71" stop-color="#b9f3ff" stop-opacity=".27"/><stop offset="1" stop-color="#fff" stop-opacity="0"/></linearGradient><linearGradient id="Degradado_sin_nombre_668" x1="272.51" y1="286.16" x2="298.43" y2="286.16" gradientTransform="rotate(20.65 285.439 286.116)" gradientUnits="userSpaceOnUse"><stop offset="0" stop-color="#1affff"/><stop offset=".01" stop-color="#1afdfe"/><stop offset=".49" stop-color="#0cb1e7"/><stop offset=".83" stop-color="#0381d9"/><stop offset="1" stop-color="#006fd3"/></linearGradient><linearGradient id="Degradado_sin_nombre_669" x1="274.46" y1="286.16" x2="296.48" y2="286.16" gradientUnits="userSpaceOnUse"><stop offset="0" stop-color="#006fd3"/><stop offset=".17" stop-color="#0381d9"/><stop offset=".51" stop-color="#0cb1e7"/><stop offset=".99" stop-color="#1afdfe"/><stop offset="1" stop-color="#1affff"/></linearGradient><linearGradient id="Degradado_sin_nombre_654" x1="285.47" y1="299.13" x2="285.47" y2="278.66" gradientUnits="userSpaceOnUse"><stop offset="0" stop-color="#fff" stop-opacity="0"/><stop offset=".29" stop-color="#c0ffff" stop-opacity=".27"/><stop offset=".95" stop-color="#25ffff" stop-opacity=".95"/><stop offset="1" stop-color="#1affff"/></linearGradient><linearGradient id="Degradado_sin_nombre_663" x1="282.98" y1="286.16" x2="287.96" y2="286.16" gradientUnits="userSpaceOnUse"><stop offset="0" stop-color="#1affff"/><stop offset=".48" stop-color="#0cb5e2"/><stop offset=".83" stop-color="#0385d0"/><stop offset="1" stop-color="#0073c9"/></linearGradient><linearGradient id="Degradado_sin_nombre_645" x1="287.86" y1="290.68" x2="291.97" y2="290.68" gradientUnits="userSpaceOnUse"><stop offset="0" stop-color="#1affff"/><stop offset="0" stop-color="#1affff"/><stop offset=".67" stop-color="#07cfdf"/><stop offset="1" stop-color="#00bdd3"/></linearGradient><linearGradient id="Degradado_sin_nombre_645-2" x1="278.97" y1="281.78" x2="283.08" y2="281.78" xlink:href="#Degradado_sin_nombre_645"/><linearGradient id="Degradado_sin_nombre_645-3" x1="287.86" y1="281.78" x2="291.97" y2="281.78" xlink:href="#Degradado_sin_nombre_645"/><linearGradient id="Degradado_sin_nombre_645-4" x1="278.97" y1="290.68" x2="283.08" y2="290.68" xlink:href="#Degradado_sin_nombre_645"/><linearGradient id="Degradado_sin_nombre_645-5" x1="286.98" y1="291.83" x2="289.7" y2="291.83" xlink:href="#Degradado_sin_nombre_645"/><linearGradient id="Degradado_sin_nombre_645-6" x1="281.24" y1="280.63" x2="283.97" y2="280.63" xlink:href="#Degradado_sin_nombre_645"/><linearGradient id="Degradado_sin_nombre_645-7" x1="288.5" y1="283.36" x2="293.63" y2="283.36" xlink:href="#Degradado_sin_nombre_645"/><linearGradient id="Degradado_sin_nombre_645-8" x1="277.31" y1="289.09" x2="282.44" y2="289.09" xlink:href="#Degradado_sin_nombre_645"/><linearGradient id="Degradado_sin_nombre_645-9" x1="288.56" y1="288.91" x2="293.77" y2="288.91" xlink:href="#Degradado_sin_nombre_645"/><linearGradient id="Degradado_sin_nombre_645-10" x1="277.18" y1="283.55" x2="282.39" y2="283.55" xlink:href="#Degradado_sin_nombre_645"/><linearGradient id="Degradado_sin_nombre_645-11" x1="286.87" y1="280.54" x2="289.42" y2="280.54" xlink:href="#Degradado_sin_nombre_645"/><linearGradient id="Degradado_sin_nombre_645-12" x1="281.52" y1="291.92" x2="284.07" y2="291.92" xlink:href="#Degradado_sin_nombre_645"/><radialGradient id="Degradado_sin_nombre_727-3" cx="298.43" cy="285.9" r="14.97" xlink:href="#Degradado_sin_nombre_727"/><linearGradient id="Degradado_sin_nombre_756-2" x1="100.74" y1="283.23" x2="177.83" y2="283.23" gradientTransform="matrix(-1 0 0 1 320.05 0)" xlink:href="#Degradado_sin_nombre_756"/><linearGradient id="Degradado_sin_nombre_605-2" x1="93.28" y1="212.78" x2="158.5" y2="212.78" gradientTransform="matrix(-.98 -.18 -.09 .49 330.31 203.35)" xlink:href="#Degradado_sin_nombre_605"/><linearGradient id="Degradado_sin_nombre_714-2" x1="106.4" y1="285.76" x2="164.22" y2="285.76" gradientTransform="matrix(-1 0 0 1 320.05 0)" xlink:href="#Degradado_sin_nombre_714"/><radialGradient id="Degradado_sin_nombre_705-2" cx="125.93" cy="239.55" r="44.87" gradientTransform="matrix(-1.01 -.19 -.14 .78 349.85 136.98)" xlink:href="#Degradado_sin_nombre_705"/><clipPath id="clip-path-2"><path class="cls-1" d="M219.31 291.08s-15.12 11.4-30.66 8.54-25.6-18.9-25.6-18.9 15.12-11.4 30.66-8.54 25.6 18.9 25.6 18.9z"/></clipPath><linearGradient id="Degradado_sin_nombre_764-2" x1="93.29" y1="286.16" x2="184.45" y2="286.16" gradientTransform="matrix(-.97 -.23 -.23 .97 381.88 36.76)" xlink:href="#Degradado_sin_nombre_764"/><linearGradient id="Degradado_sin_nombre_739-2" x1="112.22" y1="286.16" x2="144.41" y2="286.16" gradientTransform="matrix(-1 0 0 1 320.05 0)" xlink:href="#Degradado_sin_nombre_739"/><linearGradient id="Degradado_sin_nombre_668-2" x1="115.35" y1="286.16" x2="141.28" y2="286.16" gradientTransform="matrix(-.97 -.23 -.23 .97 382.04 36.89)" xlink:href="#Degradado_sin_nombre_668"/><linearGradient id="Degradado_sin_nombre_669-2" x1="117.31" y1="286.16" x2="139.32" y2="286.16" gradientTransform="matrix(-1 0 0 1 320.05 0)" xlink:href="#Degradado_sin_nombre_669"/><linearGradient id="Degradado_sin_nombre_654-2" x1="128.32" y1="299.13" x2="128.32" y2="278.66" gradientTransform="matrix(-1 0 0 1 320.05 0)" xlink:href="#Degradado_sin_nombre_654"/><linearGradient id="Degradado_sin_nombre_663-2" x1="125.83" y1="286.16" x2="130.8" y2="286.16" gradientTransform="matrix(-1 0 0 1 320.05 0)" xlink:href="#Degradado_sin_nombre_663"/><linearGradient id="Degradado_sin_nombre_645-13" x1="130.7" y1="290.68" x2="134.82" y2="290.68" gradientTransform="matrix(-1 0 0 1 320.05 0)" xlink:href="#Degradado_sin_nombre_645"/><linearGradient id="Degradado_sin_nombre_645-14" x1="121.81" y1="281.78" x2="125.93" y2="281.78" gradientTransform="matrix(-1 0 0 1 320.05 0)" xlink:href="#Degradado_sin_nombre_645"/><linearGradient id="Degradado_sin_nombre_645-15" x1="130.7" y1="281.78" x2="134.82" y2="281.78" gradientTransform="matrix(-1 0 0 1 320.05 0)" xlink:href="#Degradado_sin_nombre_645"/><linearGradient id="Degradado_sin_nombre_645-16" x1="121.81" y1="290.68" x2="125.93" y2="290.68" gradientTransform="matrix(-1 0 0 1 320.05 0)" xlink:href="#Degradado_sin_nombre_645"/><linearGradient id="Degradado_sin_nombre_645-17" x1="129.82" y1="291.83" x2="132.54" y2="291.83" gradientTransform="matrix(-1 0 0 1 320.05 0)" xlink:href="#Degradado_sin_nombre_645"/><linearGradient id="Degradado_sin_nombre_645-18" x1="124.09" y1="280.63" x2="126.81" y2="280.63" gradientTransform="matrix(-1 0 0 1 320.05 0)" xlink:href="#Degradado_sin_nombre_645"/><linearGradient id="Degradado_sin_nombre_645-19" x1="131.35" y1="283.36" x2="136.48" y2="283.36" gradientTransform="matrix(-1 0 0 1 320.05 0)" xlink:href="#Degradado_sin_nombre_645"/><linearGradient id="Degradado_sin_nombre_645-20" x1="120.15" y1="289.09" x2="125.28" y2="289.09" gradientTransform="matrix(-1 0 0 1 320.05 0)" xlink:href="#Degradado_sin_nombre_645"/><linearGradient id="Degradado_sin_nombre_645-21" x1="131.4" y1="288.91" x2="136.61" y2="288.91" gradientTransform="matrix(-1 0 0 1 320.05 0)" xlink:href="#Degradado_sin_nombre_645"/><linearGradient id="Degradado_sin_nombre_645-22" x1="120.02" y1="283.55" x2="125.23" y2="283.55" gradientTransform="matrix(-1 0 0 1 320.05 0)" xlink:href="#Degradado_sin_nombre_645"/><linearGradient id="Degradado_sin_nombre_645-23" x1="129.71" y1="280.54" x2="132.27" y2="280.54" gradientTransform="matrix(-1 0 0 1 320.05 0)" xlink:href="#Degradado_sin_nombre_645"/><linearGradient id="Degradado_sin_nombre_645-24" x1="124.36" y1="291.92" x2="126.92" y2="291.92" gradientTransform="matrix(-1 0 0 1 320.05 0)" xlink:href="#Degradado_sin_nombre_645"/><radialGradient id="Degradado_sin_nombre_727-4" cx="141.28" cy="285.9" r="14.97" gradientTransform="matrix(-1 0 0 1 320.05 0)" xlink:href="#Degradado_sin_nombre_727"/><linearGradient id="Degradado_sin_nombre_551-2" x1="238.6" y1="319.51" x2="238.6" y2="443.61" xlink:href="#Degradado_sin_nombre_551"/><radialGradient id="Degradado_sin_nombre_727-5" cx="238.6" cy="367.86" r="34.28" xlink:href="#Degradado_sin_nombre_727"/><linearGradient id="Degradado_sin_nombre_714-3" x1="168.21" y1="210.74" x2="308.44" y2="210.74" xlink:href="#Degradado_sin_nombre_714"/><linearGradient id="Degradado_sin_nombre_884" x1="238.32" y1="257.37" x2="238.32" y2="133.06" gradientUnits="userSpaceOnUse"><stop offset="0" stop-color="#0046d3"/><stop offset=".14" stop-color="#0358d7"/><stop offset=".41" stop-color="#0988e3"/><stop offset=".8" stop-color="#14d4f5"/><stop offset="1" stop-color="#1affff"/></linearGradient><linearGradient id="Degradado_sin_nombre_893" x1="194.36" y1="208.36" x2="280.5" y2="208.36" gradientUnits="userSpaceOnUse"><stop offset="0" stop-color="#16ffff"/><stop offset=".3" stop-color="#36b4ff"/><stop offset=".64" stop-color="#5668ff"/><stop offset=".88" stop-color="#6a38ff"/><stop offset="1" stop-color="#7226ff"/></linearGradient><linearGradient id="Degradado_sin_nombre_602" x1="238.6" y1="290.45" x2="238.6" y2="209.11" gradientUnits="userSpaceOnUse"><stop offset="0" stop-color="#1affff"/><stop offset=".15" stop-color="#4effff" stop-opacity=".77"/><stop offset=".32" stop-color="#83ffff" stop-opacity=".54"/><stop offset=".48" stop-color="#afffff" stop-opacity=".35"/><stop offset=".64" stop-color="#d2ffff" stop-opacity=".2"/><stop offset=".78" stop-color="#ebffff" stop-opacity=".09"/><stop offset=".91" stop-color="#faffff" stop-opacity=".02"/><stop offset="1" stop-color="#fff" stop-opacity="0"/></linearGradient><linearGradient id="Degradado_sin_nombre_602-2" x1="238.6" y1="297.97" x2="238.6" y2="268.35" xlink:href="#Degradado_sin_nombre_602"/><linearGradient id="Degradado_sin_nombre_605-3" x1="238.6" y1="236.56" x2="238.6" y2="150.2" xlink:href="#Degradado_sin_nombre_605"/><linearGradient id="Degradado_sin_nombre_607" x1="238.6" y1="202.72" x2="238.6" y2="180.34" gradientUnits="userSpaceOnUse"><stop offset="0" stop-color="#fff" stop-opacity="0"/><stop offset=".09" stop-color="#fbffff" stop-opacity=".02"/><stop offset=".22" stop-color="#f1ffff" stop-opacity=".09"/><stop offset=".36" stop-color="#dfffff" stop-opacity=".2"/><stop offset=".52" stop-color="#c7ffff" stop-opacity=".35"/><stop offset=".68" stop-color="#a7ffff" stop-opacity=".54"/><stop offset=".85" stop-color="#82ffff" stop-opacity=".77"/><stop offset="1" stop-color="#5dffff"/></linearGradient><linearGradient id="Degradado_sin_nombre_602-3" x1="238.6" y1="232.13" x2="238.6" y2="184.48" xlink:href="#Degradado_sin_nombre_602"/><linearGradient id="Degradado_sin_nombre_602-4" x1="238.6" y1="231.57" x2="238.6" y2="196.25" xlink:href="#Degradado_sin_nombre_602"/><linearGradient id="Degradado_sin_nombre_602-5" x1="238.6" y1="166.93" x2="238.6" y2="127.49" xlink:href="#Degradado_sin_nombre_602"/><linearGradient id="Degradado_sin_nombre_603" x1="267.49" y1="304.69" x2="345.14" y2="403.68" gradientUnits="userSpaceOnUse"><stop offset="0" stop-color="#1affff"/><stop offset=".02" stop-color="#19f8fa" stop-opacity=".97"/><stop offset=".39" stop-color="#0f90a3" stop-opacity=".56"/><stop offset=".69" stop-color="#074264" stop-opacity=".26"/><stop offset=".9" stop-color="#02123c" stop-opacity=".07"/><stop offset="1" stop-color="#00002d" stop-opacity="0"/></linearGradient><linearGradient id="Degradado_sin_nombre_603-2" x1="275.2" y1="323.65" x2="336.91" y2="402.31" xlink:href="#Degradado_sin_nombre_603"/><linearGradient id="Degradado_sin_nombre_603-3" x1="280.25" y1="339.4" x2="329.39" y2="402.04" xlink:href="#Degradado_sin_nombre_603"/><linearGradient id="Degradado_sin_nombre_603-4" x1="150.82" y1="304.69" x2="228.47" y2="403.68" gradientTransform="matrix(-1 0 0 1 360.57 0)" xlink:href="#Degradado_sin_nombre_603"/><linearGradient id="Degradado_sin_nombre_603-5" x1="158.53" y1="323.65" x2="220.24" y2="402.31" gradientTransform="matrix(-1 0 0 1 360.57 0)" xlink:href="#Degradado_sin_nombre_603"/><linearGradient id="Degradado_sin_nombre_603-6" x1="163.58" y1="339.4" x2="212.72" y2="402.04" gradientTransform="matrix(-1 0 0 1 360.57 0)" xlink:href="#Degradado_sin_nombre_603"/><radialGradient id="Degradado_sin_nombre_727-6" cx="235.17" cy="293.61" r="174.72" xlink:href="#Degradado_sin_nombre_727"/><radialGradient id="Degradado_sin_nombre_727-7" cx="237.33" cy="411.58" r="64.2" gradientTransform="matrix(1 0 0 1.11 0 -36.36)" xlink:href="#Degradado_sin_nombre_727"/><radialGradient id="Degradado_sin_nombre_705-3" cx="241.61" cy="345.11" r="55.82" xlink:href="#Degradado_sin_nombre_705"/><radialGradient id="Degradado_sin_nombre_727-8" cx="237.78" cy="416.15" r="51.08" gradientTransform="matrix(1 0 0 1.11 0 -36.36)" xlink:href="#Degradado_sin_nombre_727"/><radialGradient id="Degradado_sin_nombre_705-4" cx="241.18" cy="365.27" r="44.41" xlink:href="#Degradado_sin_nombre_705"/><linearGradient id="Degradado_sin_nombre_669-3" x1="419.68" y1="166.78" x2="453.02" y2="166.78" xlink:href="#Degradado_sin_nombre_669"/><linearGradient id="Degradado_sin_nombre_654-3" x1="436.35" y1="186.41" x2="436.35" y2="155.42" xlink:href="#Degradado_sin_nombre_654"/><linearGradient id="Degradado_sin_nombre_663-3" x1="432.58" y1="166.78" x2="440.12" y2="166.78" xlink:href="#Degradado_sin_nombre_663"/><linearGradient id="Degradado_sin_nombre_669-4" x1="273.16" y1="133.95" x2="305.96" y2="133.95" xlink:href="#Degradado_sin_nombre_669"/><linearGradient id="Degradado_sin_nombre_654-4" x1="289.56" y1="153.27" x2="289.56" y2="122.76" xlink:href="#Degradado_sin_nombre_654"/><linearGradient id="Degradado_sin_nombre_663-4" x1="285.85" y1="133.95" x2="293.27" y2="133.95" xlink:href="#Degradado_sin_nombre_663"/><linearGradient id="Degradado_sin_nombre_669-5" x1="338.68" y1="141.51" x2="363.12" y2="141.51" xlink:href="#Degradado_sin_nombre_669"/><linearGradient id="Degradado_sin_nombre_654-5" x1="350.9" y1="155.9" x2="350.9" y2="133.17" xlink:href="#Degradado_sin_nombre_654"/><linearGradient id="Degradado_sin_nombre_663-5" x1="348.14" y1="141.51" x2="353.66" y2="141.51" xlink:href="#Degradado_sin_nombre_663"/><linearGradient id="Degradado_sin_nombre_669-6" x1="422.95" y1="100.04" x2="437.93" y2="100.04" xlink:href="#Degradado_sin_nombre_669"/><linearGradient id="Degradado_sin_nombre_654-6" x1="430.44" y1="108.87" x2="430.44" y2="94.94" xlink:href="#Degradado_sin_nombre_654"/><linearGradient id="Degradado_sin_nombre_663-6" x1="428.75" y1="100.04" x2="432.13" y2="100.04" xlink:href="#Degradado_sin_nombre_663"/><linearGradient id="Degradado_sin_nombre_669-7" x1="68.8" y1="166.78" x2="117.68" y2="166.78" gradientTransform="matrix(-1 0 0 1 125.58 0)" xlink:href="#Degradado_sin_nombre_669"/><linearGradient id="Degradado_sin_nombre_654-7" x1="93.24" y1="195.58" x2="93.24" y2="150.12" gradientTransform="matrix(-1 0 0 1 125.58 0)" xlink:href="#Degradado_sin_nombre_654"/><linearGradient id="Degradado_sin_nombre_663-7" x1="87.71" y1="166.78" x2="98.76" y2="166.78" gradientTransform="matrix(-1 0 0 1 125.58 0)" xlink:href="#Degradado_sin_nombre_663"/><linearGradient id="Degradado_sin_nombre_669-8" x1="-71.38" y1="144.56" x2="-51.27" y2="144.56" gradientTransform="matrix(-1 0 0 1 125.58 0)" xlink:href="#Degradado_sin_nombre_669"/><linearGradient id="Degradado_sin_nombre_654-8" x1="-61.33" y1="156.41" x2="-61.33" y2="137.71" gradientTransform="matrix(-1 0 0 1 125.58 0)" xlink:href="#Degradado_sin_nombre_654"/><linearGradient id="Degradado_sin_nombre_663-8" x1="-63.6" y1="144.56" x2="-59.05" y2="144.56" gradientTransform="matrix(-1 0 0 1 125.58 0)" xlink:href="#Degradado_sin_nombre_663"/><linearGradient id="Degradado_sin_nombre_669-9" x1="-12.21" y1="141.51" x2="12.24" y2="141.51" gradientTransform="matrix(-1 0 0 1 125.58 0)" xlink:href="#Degradado_sin_nombre_669"/><linearGradient id="Degradado_sin_nombre_654-9" x1=".02" y1="155.9" x2=".02" y2="133.17" gradientTransform="matrix(-1 0 0 1 125.58 0)" xlink:href="#Degradado_sin_nombre_654"/><linearGradient id="Degradado_sin_nombre_663-9" x1="-2.75" y1="141.51" x2="2.78" y2="141.51" gradientTransform="matrix(-1 0 0 1 125.58 0)" xlink:href="#Degradado_sin_nombre_663"/><linearGradient id="Degradado_sin_nombre_669-10" x1="72.06" y1="100.04" x2="87.04" y2="100.04" gradientTransform="matrix(-1 0 0 1 125.58 0)" xlink:href="#Degradado_sin_nombre_669"/><linearGradient id="Degradado_sin_nombre_654-10" x1="79.55" y1="108.87" x2="79.55" y2="94.94" gradientTransform="matrix(-1 0 0 1 125.58 0)" xlink:href="#Degradado_sin_nombre_654"/><linearGradient id="Degradado_sin_nombre_663-10" x1="77.86" y1="100.04" x2="81.25" y2="100.04" gradientTransform="matrix(-1 0 0 1 125.58 0)" xlink:href="#Degradado_sin_nombre_663"/></defs><g id="Layer_2" data-name="Layer 2"><g id="BACKGROUND_1" data-name="BACKGROUND 1"><ellipse cx="238.32" cy="436.55" rx="53.11" ry="18.58" fill="url(#Degradado_sin_nombre_865)"/><path d="M148.68 337.3a7.72 7.72 0 0 1-8-7.42l-2.5-68a7.72 7.72 0 0 1 7.42-8 7.72 7.72 0 0 1 8 7.42l2.5 68a7.72 7.72 0 0 1-7.42 8z" fill="url(#Degradado_sin_nombre_830)"/><path d="M153.67 343a7.75 7.75 0 0 1-8-7.43l-2.92-79.77a7.73 7.73 0 0 1 7.42-8 7.72 7.72 0 0 1 8 7.42L161.1 335a7.74 7.74 0 0 1-7.43 8z" fill="url(#Degradado_sin_nombre_846)"/><path d="M328 337.3a7.73 7.73 0 0 0 8-7.42l2.5-68a7.74 7.74 0 0 0-7.43-8 7.73 7.73 0 0 0-8 7.42l-2.5 68a7.74 7.74 0 0 0 7.43 8z" fill="url(#Degradado_sin_nombre_830-2)"/><path d="M323 343a7.74 7.74 0 0 0 8-7.43l2.93-79.77a7.74 7.74 0 0 0-7.42-8 7.74 7.74 0 0 0-8 7.42L315.55 335a7.73 7.73 0 0 0 7.45 8z" fill="url(#Degradado_sin_nombre_830-3)"/><path d="M286.06 157.68c-16.91-9-47.46-8-47.46-8s-30.55-.94-47.45 8-40.94 40.54-40.94 58.93v76.92a176.88 176.88 0 0 0 5.2 42.61l10.35 41.72s5.57 21.69 24.71 33 31 18.39 48.13 18.39 29-7.07 48.14-18.39 24.7-33 24.7-33l10.35-41.72a176.89 176.89 0 0 0 5.21-42.61v-76.92c0-18.39-24-49.98-40.94-58.93z" fill="url(#Degradado_sin_nombre_526)"/><path d="M299.22 400.29v-17.76c0-27.51-27.28-50-60.62-50-33.33 0-60.61 22.51-60.61 50v17.76a50 50 0 0 0 12.48 10.57c19.14 11.32 31 18.39 48.13 18.39s29-7.07 48.14-18.39a50 50 0 0 0 12.48-10.57z" fill="url(#Degradado_sin_nombre_551)"/><path d="M254 334.67h-28.94a9.82 9.82 0 0 1-9.79-9.79 9.81 9.81 0 0 1 9.79-9.79H254a9.82 9.82 0 0 1 9.79 9.79 9.82 9.82 0 0 1-9.79 9.79z" fill="url(#Degradado_sin_nombre_526-2)"/><path d="M254 334.14h-28.94a9.81 9.81 0 0 1-9.78-9.53v.27a9.82 9.82 0 0 0 9.79 9.79H254a9.82 9.82 0 0 0 9.79-9.79 2.45 2.45 0 0 0 0-.27 9.81 9.81 0 0 1-9.79 9.53z" fill="url(#Degradado_sin_nombre_727)"/><path d="M239.52 342.39a16.89 16.89 0 0 1-16.84-16.84v-73.2a16.89 16.89 0 0 1 16.84-16.84 16.89 16.89 0 0 1 16.84 16.84v73.2a16.89 16.89 0 0 1-16.84 16.84z" fill="url(#Degradado_sin_nombre_526-3)"/><path d="M239.52 341.55a16.89 16.89 0 0 1-16.84-16.84v.84a16.89 16.89 0 0 0 16.84 16.84 16.89 16.89 0 0 0 16.84-16.84v-.84a16.89 16.89 0 0 1-16.84 16.84z" fill="url(#Degradado_sin_nombre_727-2)"/><path d="M327 266.28c-8.48-3.57-19.38-6.39-30.4-4.36-23.54 4.33-38.7 29.16-38.7 29.16s23 17.8 46.55 13.47c8.81-1.62 16.44-6.12 22.55-11.1z" fill="url(#Degradado_sin_nombre_756)"/><path d="M257.9 291.08s17.31 13.39 35 10.13 29.1-21.94 29.1-21.94-17.31-13.39-35-10.13-29.1 21.94-29.1 21.94z" fill="url(#Degradado_sin_nombre_605)"/><path d="M284.28 272c-16 2.94-26.38 19-26.38 19s15.47 11.34 31.44 8.4 26.38-19.05 26.38-19.05-15.47-11.25-31.44-8.35z" fill="url(#Degradado_sin_nombre_714)"/><path d="M257.9 291.08s15.12 11.4 30.65 8.54 25.61-18.9 25.61-18.9-15.12-11.4-30.66-8.54-25.6 18.9-25.6 18.9z" fill="url(#Degradado_sin_nombre_705)"/><g clip-path="url(#clip-path)"><circle cx="285.47" cy="286.16" r="19.54" transform="rotate(-80.39 285.47 286.158)" fill="url(#Degradado_sin_nombre_764)"/><circle cx="285.47" cy="286.16" r="16.1" fill="url(#Degradado_sin_nombre_739)"/><circle cx="285.47" cy="286.16" r="12.96" transform="rotate(-20.65 285.422 286.135)" fill="url(#Degradado_sin_nombre_668)"/><path d="M285.47 297.17a11 11 0 1 1 11-11 11 11 0 0 1-11 11zm0-21.23a10.22 10.22 0 1 0 10.22 10.22 10.23 10.23 0 0 0-10.22-10.22z" fill="url(#Degradado_sin_nombre_669)"/><path d="M281.49 287H277a8.53 8.53 0 0 0 7.69 7.64v-4.49a4.09 4.09 0 0 1-3.2-3.15zm8-1.57H294a8.52 8.52 0 0 0-7.7-7.77v4.49a4.06 4.06 0 0 1 3.17 3.29zm-12.49 0h4.49a4.06 4.06 0 0 1 3.21-3.28v-4.49a8.52 8.52 0 0 0-7.7 7.78zm9.28 4.72v4.49A8.53 8.53 0 0 0 294 287h-4.5a4.09 4.09 0 0 1-3.24 3.16z" fill="url(#Degradado_sin_nombre_654)"/><path d="M288 286.16a2.49 2.49 0 1 1-2.49-2.49 2.5 2.5 0 0 1 2.49 2.49z" fill="url(#Degradado_sin_nombre_663)"/><path d="M291.88 292.73a.09.09 0 0 1-.07 0l-3.92-3.91a.1.1 0 0 1 .14-.14l3.92 3.91a.12.12 0 0 1 0 .14.11.11 0 0 1-.07 0z" fill="url(#Degradado_sin_nombre_645)"/><path d="M283 283.84a.11.11 0 0 1-.07 0l-3.93-3.95a.1.1 0 0 1 0-.14.11.11 0 0 1 .13 0l3.92 3.92a.1.1 0 0 1 0 .14.09.09 0 0 1-.05.03z" fill="url(#Degradado_sin_nombre_645-2)"/><path d="M288 283.84a.09.09 0 0 1-.07 0 .1.1 0 0 1 0-.14l3.92-3.92a.1.1 0 0 1 .14.14l-3.99 3.89a.11.11 0 0 1 0 .03z" fill="url(#Degradado_sin_nombre_645-3)"/><path d="M279.07 292.73a.08.08 0 0 1-.07 0 .1.1 0 0 1 0-.14l3.91-3.91a.1.1 0 0 1 .14.14l-3.92 3.91a.07.07 0 0 1-.06 0z" fill="url(#Degradado_sin_nombre_645-4)"/><path d="M289.6 294.39a.11.11 0 0 1-.09-.05l-2.51-4.93a.1.1 0 0 1 0-.14.1.1 0 0 1 .13.05l2.53 4.93a.1.1 0 0 1-.05.13z" fill="url(#Degradado_sin_nombre_645-5)"/><path d="M283.87 283.19a.09.09 0 0 1-.09-.05l-2.52-4.93a.09.09 0 0 1 0-.13.09.09 0 0 1 .13 0l2.53 4.93a.1.1 0 0 1 0 .13z" fill="url(#Degradado_sin_nombre_645-6)"/><path d="M288.6 284.72a.12.12 0 0 1-.09-.05.1.1 0 0 1 .05-.13l4.93-2.53a.1.1 0 0 1 .13.05.09.09 0 0 1 0 .13l-4.93 2.52z" fill="url(#Degradado_sin_nombre_645-7)"/><path d="M277.41 290.45a.1.1 0 0 1-.05-.18l4.93-2.53a.11.11 0 0 1 .14.05.1.1 0 0 1-.05.13l-4.93 2.52z" fill="url(#Degradado_sin_nombre_645-8)"/><path d="M293.67 290.18l-5-2.35a.1.1 0 0 1 0-.14.11.11 0 0 1 .13 0l5 2.36a.1.1 0 0 1 .05.13.11.11 0 0 1-.18 0z" fill="url(#Degradado_sin_nombre_645-9)"/><path d="M282.29 284.83l-5-2.36a.1.1 0 0 1-.05-.13.11.11 0 0 1 .13-.05l5 2.36a.1.1 0 0 1 .05.13.11.11 0 0 1-.13.05z" fill="url(#Degradado_sin_nombre_645-10)"/><path d="M287 283.14a.1.1 0 0 1-.05-.13l2.36-5a.1.1 0 0 1 .13-.05.09.09 0 0 1 0 .13l-2.35 5a.12.12 0 0 1-.09.05z" fill="url(#Degradado_sin_nombre_645-11)"/><path d="M281.62 294.52h-.05a.1.1 0 0 1 0-.14l2.35-5a.1.1 0 0 1 .18.08l-2.36 5a.09.09 0 0 1-.12.06z" fill="url(#Degradado_sin_nombre_645-12)"/></g><path d="M288.46 271.73c13.28.29 24.82 9 24.82 9s-10.07 16-25.61 18.9a27.9 27.9 0 0 1-5 .45 28.26 28.26 0 0 0 5.84-.45c15.54-2.86 25.61-18.9 25.61-18.9s-12.02-9.09-25.66-9z" fill="url(#Degradado_sin_nombre_727-3)"/><path d="M150.21 266.28c8.48-3.57 19.38-6.39 30.39-4.36 23.55 4.33 38.71 29.16 38.71 29.16s-23 17.8-46.55 13.47c-8.81-1.62-16.45-6.12-22.55-11.1z" fill="url(#Degradado_sin_nombre_756-2)"/><path d="M219.31 291.08s-17.31 13.39-35 10.13-29.12-21.94-29.12-21.94 17.31-13.39 35-10.13 29.12 21.94 29.12 21.94z" fill="url(#Degradado_sin_nombre_605-2)"/><path d="M192.92 272c16 2.94 26.39 19 26.39 19s-15.47 11.34-31.44 8.4-26.38-19.05-26.38-19.05S177 269.1 192.92 272z" fill="url(#Degradado_sin_nombre_714-2)"/><path d="M219.31 291.08s-15.12 11.4-30.66 8.54-25.6-18.9-25.6-18.9 15.12-11.4 30.66-8.54 25.6 18.9 25.6 18.9z" fill="url(#Degradado_sin_nombre_705-2)"/><g clip-path="url(#clip-path-2)"><circle cx="191.74" cy="286.16" r="19.54" transform="rotate(-13.17 191.726 286.176)" fill="url(#Degradado_sin_nombre_764-2)"/><circle cx="191.74" cy="286.16" r="16.1" fill="url(#Degradado_sin_nombre_739-2)"/><circle cx="191.74" cy="286.16" r="12.96" transform="rotate(-13.21 191.708 286.113)" fill="url(#Degradado_sin_nombre_668-2)"/><path d="M180.73 286.16a11 11 0 1 1 11 11 11 11 0 0 1-11-11zm.78 0a10.23 10.23 0 1 0 10.23-10.22 10.23 10.23 0 0 0-10.23 10.22z" fill="url(#Degradado_sin_nombre_669-2)"/><path d="M192.52 290.16v4.49a8.53 8.53 0 0 0 7.7-7.64h-4.5a4.09 4.09 0 0 1-3.2 3.15zm-1.57-8v-4.49a8.52 8.52 0 0 0-7.7 7.77h4.48a4.08 4.08 0 0 1 3.27-3.28zm1.57-4.49v4.49a4.07 4.07 0 0 1 3.22 3.28h4.49a8.53 8.53 0 0 0-7.71-7.77zm-4.77 9.33h-4.5a8.54 8.54 0 0 0 7.7 7.64v-4.49a4.09 4.09 0 0 1-3.2-3.15z" fill="url(#Degradado_sin_nombre_654-2)"/><path d="M189.25 286.16a2.49 2.49 0 1 0 2.49-2.49 2.49 2.49 0 0 0-2.49 2.49z" fill="url(#Degradado_sin_nombre_663-2)"/><path d="M185.33 292.73a.09.09 0 0 0 .07 0l3.92-3.91a.1.1 0 0 0-.14-.14l-3.92 3.91a.1.1 0 0 0 0 .14.11.11 0 0 0 .07 0z" fill="url(#Degradado_sin_nombre_645-13)"/><path d="M194.22 283.84a.08.08 0 0 0 .07 0l3.92-3.92a.1.1 0 0 0 0-.14.12.12 0 0 0-.14 0l-3.91 3.92a.1.1 0 0 0 0 .14.07.07 0 0 0 .06 0z" fill="url(#Degradado_sin_nombre_645-14)"/><path d="M189.25 283.84a.11.11 0 0 0 .07 0 .1.1 0 0 0 0-.14l-3.92-3.92a.12.12 0 0 0-.14 0 .1.1 0 0 0 0 .14l3.92 3.92a.09.09 0 0 0 .07 0z" fill="url(#Degradado_sin_nombre_645-15)"/><path d="M198.14 292.73a.09.09 0 0 0 .07 0 .1.1 0 0 0 0-.14l-3.92-3.91a.09.09 0 0 0-.13 0 .1.1 0 0 0 0 .14l3.91 3.91a.11.11 0 0 0 .07 0z" fill="url(#Degradado_sin_nombre_645-16)"/><path d="M187.61 294.39a.12.12 0 0 0 .09-.05l2.52-4.93a.1.1 0 0 0 0-.14.1.1 0 0 0-.13.05l-2.53 4.93a.11.11 0 0 0 0 .13z" fill="url(#Degradado_sin_nombre_645-17)"/><path d="M193.34 283.19a.09.09 0 0 0 .09-.05l2.52-4.93a.1.1 0 1 0-.17-.09l-2.53 4.93a.1.1 0 0 0 .05.13z" fill="url(#Degradado_sin_nombre_645-18)"/><path d="M188.6 284.72a.11.11 0 0 0 .09-.05.09.09 0 0 0 0-.13l-4.97-2.54a.1.1 0 0 0-.13.05.09.09 0 0 0 0 .13l4.93 2.52z" fill="url(#Degradado_sin_nombre_645-19)"/><path d="M199.8 290.45a.09.09 0 0 0 .09-.05.1.1 0 0 0 0-.13l-4.93-2.53a.11.11 0 0 0-.13.05.11.11 0 0 0 0 .13l4.94 2.52z" fill="url(#Degradado_sin_nombre_645-20)"/><path d="M183.54 290.18l5-2.35a.11.11 0 0 0 0-.14.11.11 0 0 0-.13 0l-5 2.36a.1.1 0 0 0-.05.13.11.11 0 0 0 .18 0z" fill="url(#Degradado_sin_nombre_645-21)"/><path d="M194.92 284.83l5-2.36a.1.1 0 0 0 0-.13.1.1 0 0 0-.13-.05l-5 2.36a.1.1 0 0 0 0 .13.1.1 0 0 0 .13.05z" fill="url(#Degradado_sin_nombre_645-22)"/><path d="M190.24 283.14a.1.1 0 0 0 .05-.13L188 278a.1.1 0 0 0-.13-.05.1.1 0 0 0-.05.13l2.36 5a.11.11 0 0 0 .06.06z" fill="url(#Degradado_sin_nombre_645-23)"/><path d="M195.59 294.52a.11.11 0 0 0 .05-.14l-2.36-5a.1.1 0 0 0-.13-.05.09.09 0 0 0 0 .13l2.35 5a.12.12 0 0 0 .09.06z" fill="url(#Degradado_sin_nombre_645-24)"/></g><path d="M188.75 271.73c-13.28.29-24.82 9-24.82 9s10.07 16 25.6 18.9a28.06 28.06 0 0 0 5 .45 28.31 28.31 0 0 1-5.84-.45c-15.53-2.86-25.6-18.9-25.6-18.9s12.02-9.09 25.66-9z" fill="url(#Degradado_sin_nombre_727-4)"/><path d="M238.6 429.25c15.59 0 26.84-5.87 43.16-15.46v-24.85a43.28 43.28 0 0 0-43.16-43.16 43.29 43.29 0 0 0-43.16 43.16v24.85c16.33 9.59 27.56 15.46 43.16 15.46z" fill="url(#Degradado_sin_nombre_551-2)"/><path d="M238.6 345.78a43.29 43.29 0 0 0-43.16 43.16v1a43.29 43.29 0 0 1 43.16-43.15 43.28 43.28 0 0 1 43.16 43.15v-1a43.28 43.28 0 0 0-43.16-43.16z" fill="url(#Degradado_sin_nombre_727-5)"/><rect x="168.21" y="169.99" width="140.23" height="81.5" rx="40.27" ry="40.27" fill="url(#Degradado_sin_nombre_714-3)"/><rect x="168.21" y="169.99" width="140.23" height="80.53" rx="40.27" ry="40.27" fill="url(#Degradado_sin_nombre_884)"/><rect x="194.36" y="181.81" width="86.14" height="53.1" rx="26.55" ry="26.55" fill="url(#Degradado_sin_nombre_893)"/><path d="M327 259.43v-42.82c0-18.39-24-50-40.94-58.93s-47.46-8-47.46-8-30.55-.94-47.45 8-40.94 40.54-40.94 58.93v42.82a90.38 90.38 0 0 1 45.21.33l33.35 26.89a17.13 17.13 0 0 0 21.89-.31l31.13-26.58a90.38 90.38 0 0 1 45.21-.33z" fill="url(#Degradado_sin_nombre_602)"/><path d="M281.79 258.75l-31.13 26.58a17.13 17.13 0 0 1-21.89.31l-33.35-26.89a90.5 90.5 0 0 0-45.21-.32v1a90.38 90.38 0 0 1 45.21.33l33.35 26.89a17.13 17.13 0 0 0 21.89-.31l31.13-26.58a90.38 90.38 0 0 1 45.21-.33v-1a90.5 90.5 0 0 0-45.21.32z" fill="url(#Degradado_sin_nombre_602-2)"/><path d="M281.79 259.76a90.38 90.38 0 0 1 45.21-.33v-31.2c-9.38-12.06-20.39-22.48-29.66-27.39-20.92-11.09-58.74-9.93-58.74-9.93s-37.81-1.16-58.73 9.93c-9.27 4.91-20.28 15.33-29.66 27.39v31.2a90.38 90.38 0 0 1 45.21.33l25.9 6.88 10.07 16.88-1.86 52 4 3.17a8.18 8.18 0 0 0 10.07 0l4-3.17-1.85-52 10.07-16.88z" fill="url(#Degradado_sin_nombre_605-3)"/><path d="M297.34 200.84c-20.92-11.09-58.74-9.93-58.74-9.93s-37.81-1.16-58.73 9.93c-9.27 4.91-20.28 15.33-29.66 27.39v1.4c9.38-12.06 20.39-22.48 29.66-27.39 20.92-11.09 58.73-9.92 58.73-9.92s37.82-1.17 58.74 9.92c9.27 4.91 20.28 15.33 29.66 27.39v-1.4c-9.38-12.06-20.39-22.48-29.66-27.39z" fill="url(#Degradado_sin_nombre_607)"/><path d="M238.6 232.13a60.91 60.91 0 0 0 60.73-60.73v-3.56a62.11 62.11 0 0 0-13.27-10.16c-16.91-9-47.46-8-47.46-8s-30.55-.94-47.45 8a61.86 61.86 0 0 0-13.27 10.16v3.56a60.9 60.9 0 0 0 60.72 60.73z" fill="url(#Degradado_sin_nombre_602-3)"/><path d="M238.6 230.54c-33.4 0-60.72-26.8-60.72-59.56v.42a60.9 60.9 0 0 0 60.72 60.73 60.91 60.91 0 0 0 60.73-60.73v-.4c0 32.74-27.33 59.54-60.73 59.54z" fill="url(#Degradado_sin_nombre_602-4)"/><path d="M286.06 157.68c-16.91-9-47.46-8-47.46-8s-30.55-.94-47.45 8-40.94 40.54-40.94 58.93v1.31c0-18.39 24-50 40.94-58.94s47.45-8 47.45-8 30.55-.95 47.46 8S327 199.53 327 217.92v-1.31c0-18.39-24-49.98-40.94-58.93z" fill="url(#Degradado_sin_nombre_602-5)"/><path d="M326.93 298.44c-42.87 21.16-41.46 94.17-40.39 112.56l.2-.12c19.14-11.31 24.7-33 24.7-33l10.35-41.72a177 177 0 0 0 5.14-37.72z" fill="url(#Degradado_sin_nombre_603)"/><path d="M286.54 411l.2-.12c19.14-11.31 24.7-33 24.7-33l10.35-41.72a173.49 173.49 0 0 0 3.87-21.05c-34.37 24.94-40.1 78.95-39.12 95.89z" fill="url(#Degradado_sin_nombre_603-2)"/><path d="M286.54 411l.2-.12c19.14-11.31 24.7-33 24.7-33l10.35-41.72c.47-1.89.9-3.79 1.31-5.69-29.43 25.38-37.48 64.63-36.56 80.53z" fill="url(#Degradado_sin_nombre_603-3)"/><path d="M150.31 298.44c42.87 21.16 41.46 94.17 40.39 112.56l-.2-.12c-19.14-11.31-24.71-33-24.71-33l-10.35-41.72a177 177 0 0 1-5.13-37.72z" fill="url(#Degradado_sin_nombre_603-4)"/><path d="M190.7 411l-.2-.12c-19.14-11.31-24.71-33-24.71-33l-10.35-41.72a177.44 177.44 0 0 1-3.87-21.05C186 340.05 191.68 394.06 190.7 411z" fill="url(#Degradado_sin_nombre_603-5)"/><path d="M190.7 411l-.2-.12c-19.14-11.31-24.71-33-24.71-33l-10.35-41.72q-.7-2.83-1.3-5.69c29.43 25.38 37.48 64.63 36.56 80.53z" fill="url(#Degradado_sin_nombre_603-6)"/><path d="M311.44 376.31s-5.56 21.68-24.7 33-31 18.39-48.14 18.39-29-7.07-48.13-18.39-24.71-33-24.71-33l-10.35-41.72a176.9 176.9 0 0 1-5.2-42.62v1.56a176.88 176.88 0 0 0 5.2 42.61l10.35 41.72s5.57 21.69 24.71 33 31 18.39 48.13 18.39 29-7.07 48.14-18.39 24.7-33 24.7-33l10.35-41.72a176.89 176.89 0 0 0 5.21-42.61V292a176.91 176.91 0 0 1-5.21 42.62z" fill="url(#Degradado_sin_nombre_727-6)"/><path d="M269.72 388.1a387.87 387.87 0 0 1-60.4 0A3.77 3.77 0 0 1 206 384a3.67 3.67 0 0 1 3.77-3.57 382.69 382.69 0 0 0 59.42 0A3.68 3.68 0 0 1 273 384a3.78 3.78 0 0 1-3.28 4.1z" fill="url(#Degradado_sin_nombre_727-7)"/><path d="M269.72 387.36a431.75 431.75 0 0 1-60.4 0 3.51 3.51 0 0 1-3.28-3.75 3.56 3.56 0 0 1 3.77-3.23 583 583 0 0 0 59.42 0 3.58 3.58 0 0 1 3.77 3.23 3.52 3.52 0 0 1-3.28 3.75z" fill="url(#Degradado_sin_nombre_705-3)"/><path d="M263.55 399.47a308.44 308.44 0 0 1-48.06 0 3 3 0 0 1-2.61-3.3 2.92 2.92 0 0 1 3-2.84 303.36 303.36 0 0 0 47.28 0 2.91 2.91 0 0 1 3 2.84 3 3 0 0 1-2.61 3.3z" fill="url(#Degradado_sin_nombre_727-8)"/><path d="M263.55 398.88a341.1 341.1 0 0 1-48.06 0 2.8 2.8 0 0 1-2.61-3 2.82 2.82 0 0 1 3-2.57 463.11 463.11 0 0 0 47.28 0 2.83 2.83 0 0 1 3 2.57 2.79 2.79 0 0 1-2.61 3z" fill="url(#Degradado_sin_nombre_705-4)"/><text transform="translate(144.63 90.91)" fill="#a5ffff" font-size="32.03" font-family="JosefinSans,JosefinSans" letter-spacing=".08em">A<tspan x="22.16" y="0" letter-spacing=".09em">R</tspan><tspan x="42.24" y="0">TIFICIAL</tspan></text><path d="M293.35 79.63h-2l-1.65 4c-.62 1.52-1.19 2.91-1.73 4.18l-1.28 3.06h2.18c.43-1 .93-2.19 1.51-3.62s1.17-3 1.79-4.55h8.78q.91 2.4 1.79 4.55c.57 1.43 1.08 2.64 1.5 3.62h2.21q-.51-1.16-1.29-3.06c-.53-1.27-1.1-2.66-1.72-4.18l-1.65-4h-2.07c.16.41.32.81.49 1.22h-7.3zm-15.21 0h2.21v11.28h-2.21zm-129.35 7.66q.87-2.15 1.8-4.55h8.77q.93 2.4 1.79 4.55c.58 1.43 1.08 2.64 1.51 3.62h2.21c-.34-.77-.78-1.79-1.3-3.06l-1.71-4.18c-.53-1.3-1.09-2.65-1.66-4h-2.06l.48 1.22h-7.3l.48-1.22h-2c-.56 1.39-1.11 2.74-1.64 4-.62 1.52-1.2 2.91-1.73 4.18l-1.28 3.06h2.18c.38-.98.89-2.19 1.46-3.62zm163.91-7.66v11.28h14.35v-2.08h-12.17v-9.2h-2.18zm-59.44.01a11.89 11.89 0 0 0 .82 4.42 11.29 11.29 0 0 0 2.3 3.66 10.9 10.9 0 0 0 3.62 2.52 11.86 11.86 0 0 0 4.79.93 12.38 12.38 0 0 0 3.94-.58 12.81 12.81 0 0 0 2.72-1.22l-1-2a4.56 4.56 0 0 1-.88.51 13.22 13.22 0 0 1-1.3.5 11.39 11.39 0 0 1-1.6.38 10.55 10.55 0 0 1-1.79.14 9.26 9.26 0 0 1-3.85-.78 9.73 9.73 0 0 1-3-2.08 9.21 9.21 0 0 1-1.92-3 9.76 9.76 0 0 1-.66-3.42h-2.22zm-82.11-.01v11.28h2.17v-9.16h4.14a3.71 3.71 0 0 0 .67-.06l.85 1.37 1 1.7c.36.6.73 1.21 1.12 1.83s.75 1.2 1.09 1.76l.93 1.5c.27.45.5.8.67 1.06h2.66c-.2-.3-.45-.7-.77-1.22s-.67-1.08-1.06-1.69l-1.2-2-1.2-2-1.06-1.74c-.32-.54-.57-1-.77-1.28a6.35 6.35 0 0 0 2-1.42h-4.91a6.4 6.4 0 0 1-.77 0h-3.4zm72.47 0h2.21v11.28h-2.21zm-47.14 0h2.21v11.28h-2.21zm26.9 11.28h2.18V80.76h9.64v-1.13h-11.82v11.28zm-11.34-11.28h2.21v11.28h-2.21z" fill="#67f8ff"/><text transform="translate(175.33 109.97)" font-size="12.53" font-family="JosefinSans-Light,JosefinSans Light" letter-spacing=".24em" fill="#a5ffff">INTELLIGENCE</text><path class="cls-88" d="M269 205.88a38.91 38.91 0 0 0 27.21-27.28l8.68-8.68v-23l20.33-20.33h55.91l61.17-61.21V34.17l23.29-23.29"/><path class="cls-88" d="M381.08 126.6L354.2 99.72V61.5l-18.22-18.22h-31.03l-10.62-10.61m21.29-5.83l16.04 16.04m-55.29 181.97a43.12 43.12 0 0 0 12.22-5.38c16-10.33 17.48-27.78 17.48-27.78l8.36-10h28l7.37-7.37h17.51l6.61-6.61h14.93l36.66-36.66h36.89"/><path class="cls-88" d="M279.96 239.89l9.6-9.6V218.7M286 233.85l4.48 4.48m-5.72-41.1l-10.85-10.85h-26.96l-7.91-7.91m53.68 8.61l-11.91-11.92h-20.46M299 209.47s6 1.31 10.75-2.49h17.59L339 218.66h46.24l27 27h39.51m-155.4-22.26s6.68 2.18 10.12 1.45h22.17l17.47 17.47h26.5v34.05l7.13 7.14h13.76l6.37-6.37h14.77"/><path class="cls-89" d="M304.84 158.98l24.07-24.08m-24.07 28.6l24.07-24.08m-24.07 28.59l24.07-24.07"/><circle class="cls-89" cx="330.03" cy="142.84" r="1.32"/><circle class="cls-89" cx="329.65" cy="138.47" r="1.32"/><circle class="cls-89" cx="451.73" cy="245.61" r="10.63"/><circle class="cls-89" cx="451.73" cy="245.61" r="7.61" transform="rotate(-76.67 451.753 245.604)"/><path class="cls-89" d="M456.07 245.61a4.34 4.34 0 1 1-4.34-4.34 4.34 4.34 0 0 1 4.34 4.34z"/><path class="cls-89" d="M453.64 245.61a1.91 1.91 0 1 1-1.91-1.9 1.91 1.91 0 0 1 1.91 1.9z"/><circle class="cls-89" cx="393.57" cy="283.51" r="10.63"/><circle class="cls-89" cx="393.57" cy="283.51" r="7.61" transform="rotate(-76.67 393.594 283.505)"/><path class="cls-89" d="M397.91 283.51a4.34 4.34 0 1 1-4.34-4.34 4.34 4.34 0 0 1 4.34 4.34z"/><path class="cls-89" d="M395.48 283.51a1.91 1.91 0 1 1-1.91-1.9 1.91 1.91 0 0 1 1.91 1.9z"/><circle class="cls-89" cx="372.61" cy="276.26" r="7.61" transform="rotate(-76.17 372.605 276.266)"/><path class="cls-89" d="M378.05 276.26a5.45 5.45 0 1 1-5.44-5.44 5.45 5.45 0 0 1 5.44 5.44z"/><path class="cls-89" d="M375.71 276.26a3.11 3.11 0 1 1-3.1-3.1 3.1 3.1 0 0 1 3.1 3.1z"/><path class="cls-89" d="M374 276.26a1.36 1.36 0 1 1-1.36-1.36 1.36 1.36 0 0 1 1.36 1.36z"/><circle class="cls-89" cx="372.61" cy="242.32" r="7.61"/><circle class="cls-89" cx="372.61" cy="242.32" r="5.45"/><path class="cls-89" d="M375.71 242.32a3.11 3.11 0 1 1-3.1-3.1 3.1 3.1 0 0 1 3.1 3.1z"/><path class="cls-89" d="M374 242.32a1.36 1.36 0 1 1-1.36-1.36 1.36 1.36 0 0 1 1.36 1.36z"/><circle class="cls-89" cx="330.03" cy="134.03" r="1.32"/><circle class="cls-89" cx="381.08" cy="126.6" r="10.63"/><circle class="cls-89" cx="381.08" cy="126.6" r="7.99"/><path class="cls-90" d="M384.8 126.6a3.72 3.72 0 1 1-3.72-3.72 3.72 3.72 0 0 1 3.72 3.72z"/><circle class="cls-89" cx="465.59" cy="10.88" r="10.63"/><circle class="cls-89" cx="465.59" cy="10.88" r="7.99"/><circle class="cls-90" cx="465.59" cy="10.88" r="6.1"/><circle class="cls-90" cx="451.71" cy="24.76" r="6.1"/><circle class="cls-90" cx="442.13" cy="34.74" r="3.88"/><circle class="cls-90" cx="442.13" cy="46.64" r="2.4"/><circle class="cls-90" cx="442.13" cy="59.77" r="1.55"/><circle class="cls-89" cx="333.56" cy="42.92" r="10.63"/><circle class="cls-89" cx="333.56" cy="42.92" r="7.99"/><path class="cls-90" d="M337.28 42.92a3.72 3.72 0 1 1-3.72-3.72 3.71 3.71 0 0 1 3.72 3.72z"/><path class="cls-89" d="M320.08 26.11a4.46 4.46 0 1 1-4.46-4.45 4.46 4.46 0 0 1 4.46 4.45z"/><circle class="cls-89" cx="315.62" cy="26.11" r="3.35"/><circle class="cls-90" cx="315.62" cy="26.11" r="1.56"/><path class="cls-89" d="M298.79 32c0 2.84-2 5.14-4.46 5.14s-4.45-2.3-4.45-5.14 2-5.14 4.45-5.14 4.46 2.28 4.46 5.14z"/><ellipse class="cls-89" cx="294.33" cy="31.98" rx="3.35" ry="3.86"/><ellipse class="cls-90" cx="294.33" cy="31.98" rx="1.56" ry="1.8"/><circle class="cls-90" cx="316.88" cy="177.4" r="2.24"/><circle class="cls-90" cx="324.1" cy="177.4" r="2.24"/><circle class="cls-90" cx="414.64" cy="277.14" r="2.24"/><circle class="cls-90" cx="331.32" cy="177.4" r="2.24"/><path class="cls-90" d="M336.3 177.4a2.24 2.24 0 1 1 2.24 2.25 2.24 2.24 0 0 1-2.24-2.25zm-56.04 47.45a3.73 3.73 0 1 1-3.72-3.72 3.72 3.72 0 0 1 3.72 3.72z"/><path class="cls-91" d="M278.66 224.85a2.13 2.13 0 1 1-2.12-2.12 2.13 2.13 0 0 1 2.12 2.12z"/><circle class="cls-91" cx="279.96" cy="239.89" r="2.13"/><path class="cls-89" d="M367.27 174.36l22.76 22.77-14.17 14.17"/><path class="cls-89" d="M369.18 172.45l33.43 33.44-5.96 5.96"/><path class="cls-89" d="M371.09 170.54l44.08 44.09-3.5 3.5 15.65 15.65 18.8-18.8m-73.13-46.34l44.09 44.08m-40.84-44.65l42.75 42.75m-39.37-43.19l41.28 41.28m-37.02-40.84L422.81 207m-35.51-39.32l37.41 37.41m-34.49-38.31l36.4 36.4m-34.49-38.31l36.4 36.4m-34.5-38.31l36.41 36.4m-34.5-38.31l36.41 36.41m-7.02-55.95a10.42 10.42 0 0 1-10.41-10.42 10.41 10.41 0 0 1 10.41-10.41 10.42 10.42 0 0 1 10.42 10.41 10.43 10.43 0 0 1-10.42 10.42z"/><path class="cls-89" d="M418.32 124.08h14.03v14.03h-14.03z"/><path class="cls-89" d="M420.88 126.64h8.9v8.9h-8.9zm46.81 9.82a5.36 5.36 0 0 1-5.37-5.37 5.37 5.37 0 0 1 5.37-5.37 5.38 5.38 0 0 1 5.37 5.37 5.37 5.37 0 0 1-5.37 5.37z"/><path class="cls-89" d="M464.07 127.47h7.24v7.24h-7.24z"/><path class="cls-89" d="M465.39 128.8h4.59v4.59h-4.59z"/><rect class="cls-89" x="357.22" y="150.53" width="35.07" height="35.07" rx="10.41" ry="10.41"/><path class="cls-89" d="M362.95 156.26h23.62v23.62h-23.62z"/><path class="cls-89" d="M367.27 160.58h14.98v14.98h-14.98zm55.98-31.57h4.17v4.17h-4.17z"/><circle class="cls-91" cx="268.95" cy="205.88" r="2.13"/><path class="cls-89" d="M269 213.46a7.58 7.58 0 0 1-7.58-7.58 7.58 7.58 0 0 1 7.58-7.59 7.59 7.59 0 0 1 7.59 7.59 7.58 7.58 0 0 1-7.59 7.58z"/><path class="cls-89" d="M263.84 200.77h10.22v10.22h-10.22z"/><path class="cls-89" d="M265.71 202.64h6.48v6.48h-6.48z"/><path class="cls-91" d="M240.47 178.47A1.43 1.43 0 1 1 239 177a1.43 1.43 0 0 1 1.47 1.47zm24.58-3.31a4.71 4.71 0 1 1-4.7-4.7 4.7 4.7 0 0 1 4.7 4.7z"/><circle class="cls-91" cx="269.62" cy="175.16" r="2.13"/><circle class="cls-91" cx="274.63" cy="175.16" r="1.07"/><path class="cls-89" d="M239 183.58a5.11 5.11 0 0 1-5.11-5.11 5.11 5.11 0 0 1 5.11-5.11 5.11 5.11 0 0 1 5.11 5.11 5.11 5.11 0 0 1-5.11 5.11z"/><path class="cls-89" d="M235.6 175.03h6.88v6.88h-6.88z"/><path class="cls-89" d="M236.86 176.29h4.36v4.36h-4.36z"/><path d="M436.35 183.44A16.67 16.67 0 1 1 453 166.78a16.68 16.68 0 0 1-16.65 16.66zm0-32.14a15.48 15.48 0 1 0 15.48 15.48 15.5 15.5 0 0 0-15.48-15.48z" fill="url(#Degradado_sin_nombre_669-3)"/><path d="M430.32 168.07h-6.81a12.92 12.92 0 0 0 11.65 11.56v-6.8a6.17 6.17 0 0 1-4.84-4.76zm12.09-2.38h6.79a12.9 12.9 0 0 0-11.66-11.76v6.8a6.14 6.14 0 0 1 4.87 4.96zm-18.91 0h6.79a6.14 6.14 0 0 1 4.87-5v-6.8a12.9 12.9 0 0 0-11.66 11.8zm14 7.14v6.8a12.92 12.92 0 0 0 11.65-11.56h-6.81a6.17 6.17 0 0 1-4.8 4.76z" fill="url(#Degradado_sin_nombre_654-3)"/><path d="M440.12 166.78a3.77 3.77 0 1 1-3.77-3.77 3.76 3.76 0 0 1 3.77 3.77z" fill="url(#Degradado_sin_nombre_663-3)"/><path d="M289.56 150.35A16.41 16.41 0 1 1 306 134a16.42 16.42 0 0 1-16.44 16.35zm0-31.64A15.24 15.24 0 1 0 304.79 134a15.25 15.25 0 0 0-15.23-15.29z" fill="url(#Degradado_sin_nombre_669-4)"/><path d="M283.62 135.22h-6.7a12.7 12.7 0 0 0 11.47 11.37v-6.69a6.08 6.08 0 0 1-4.77-4.68zm11.91-2.34h6.68a12.69 12.69 0 0 0-11.48-11.58v6.7a6.08 6.08 0 0 1 4.8 4.88zm-18.62 0h6.68a6.08 6.08 0 0 1 4.8-4.89v-6.69a12.69 12.69 0 0 0-11.48 11.58zm13.82 7v6.69a12.7 12.7 0 0 0 11.47-11.37h-6.7a6.08 6.08 0 0 1-4.77 4.7z" fill="url(#Degradado_sin_nombre_654-4)"/><path d="M293.27 134a3.71 3.71 0 1 1-3.71-3.71 3.71 3.71 0 0 1 3.71 3.71z" fill="url(#Degradado_sin_nombre_663-4)"/><path d="M350.9 153.73a12.23 12.23 0 1 1 12.22-12.22 12.24 12.24 0 0 1-12.22 12.22zm0-23.57a11.35 11.35 0 1 0 11.35 11.35 11.37 11.37 0 0 0-11.35-11.35z" fill="url(#Degradado_sin_nombre_669-5)"/><path d="M346.48 142.45h-5a9.48 9.48 0 0 0 8.55 8.48v-5a4.52 4.52 0 0 1-3.55-3.48zm8.87-1.74h5a9.47 9.47 0 0 0-8.56-8.63v5a4.52 4.52 0 0 1 3.56 3.63zm-13.87 0h5a4.51 4.51 0 0 1 3.57-3.64v-5a9.46 9.46 0 0 0-8.57 8.64zm10.29 5.23v5a9.48 9.48 0 0 0 8.55-8.48h-5a4.49 4.49 0 0 1-3.55 3.48z" fill="url(#Degradado_sin_nombre_654-5)"/><path d="M353.66 141.51a2.76 2.76 0 1 1-2.76-2.77 2.76 2.76 0 0 1 2.76 2.77z" fill="url(#Degradado_sin_nombre_663-5)"/><path d="M430.44 107.53a7.49 7.49 0 1 1 7.49-7.49 7.5 7.5 0 0 1-7.49 7.49zm0-14.44a7 7 0 1 0 7 7 7 7 0 0 0-7-7z" fill="url(#Degradado_sin_nombre_669-6)"/><path d="M427.73 100.62h-3.06a5.79 5.79 0 0 0 5.23 5.2v-3.06a2.77 2.77 0 0 1-2.17-2.14zm5.43-1.07h3.06a5.8 5.8 0 0 0-5.22-5.28v3a2.77 2.77 0 0 1 2.16 2.28zm-8.5 0h3a2.8 2.8 0 0 1 2.19-2.23v-3a5.8 5.8 0 0 0-5.19 5.23zm6.31 3.21v3.06a5.79 5.79 0 0 0 5.24-5.2h-3.06a2.77 2.77 0 0 1-2.15 2.14z" fill="url(#Degradado_sin_nombre_654-6)"/><circle cx="430.44" cy="100.04" r="1.69" fill="url(#Degradado_sin_nombre_663-6)"/><path class="cls-88" d="M207.52 205.88a38.91 38.91 0 0 1-27.21-27.28l-8.68-8.68v-23L151.3 126.6H95.38L34.17 65.38V34.17L10.88 10.88"/><path class="cls-88" d="M95.38 126.6l26.89-26.88V61.5l18.22-18.22h31.03l10.61-10.61m-21.29-5.83L144.8 42.88m55.3 181.97a43.12 43.12 0 0 1-12.22-5.38c-15.95-10.33-17.48-27.78-17.48-27.78l-8.36-10h-28l-7.36-7.37H109.2l-6.61-6.61H87.66L51 131.09H14.1"/><path class="cls-88" d="M196.51 239.89l-9.6-9.6V218.7m3.56 15.15l-4.48 4.48m16.66-13.96l7.81 7.81h17.4l7.9 7.9m-52.02-53l11.92-11.92h20.46m-38.66 34.31s-6 1.31-10.75-2.49h-17.6l-11.67 11.68H91.2l-26.95 27H24.73m155.39-22.26s-6.69 2.18-10.13 1.45h-22.16l-17.48 17.47h-26.49v34.05l-7.14 7.14H83l-6.36-6.37H61.82"/><path class="cls-89" d="M171.63 158.98l-24.08-24.08m24.08 28.6l-24.08-24.08m24.08 28.59l-24.08-24.07"/><circle class="cls-89" cx="146.43" cy="142.84" r="1.32"/><circle class="cls-89" cx="146.82" cy="138.47" r="1.32"/><circle class="cls-89" cx="24.73" cy="245.61" r="10.63"/><circle class="cls-89" cx="24.73" cy="245.61" r="7.61" transform="rotate(-45 24.737 245.614)"/><path class="cls-89" d="M20.39 245.61a4.34 4.34 0 1 0 4.34-4.34 4.35 4.35 0 0 0-4.34 4.34z"/><path class="cls-89" d="M22.83 245.61a1.9 1.9 0 1 0 1.9-1.9 1.9 1.9 0 0 0-1.9 1.9z"/><circle class="cls-89" cx="82.89" cy="283.51" r="10.63"/><circle class="cls-89" cx="82.89" cy="283.51" r="7.61" transform="rotate(-47.28 82.885 283.491)"/><path class="cls-89" d="M78.55 283.51a4.34 4.34 0 1 0 4.34-4.34 4.35 4.35 0 0 0-4.34 4.34z"/><path class="cls-89" d="M81 283.51a1.9 1.9 0 1 0 1.9-1.9 1.9 1.9 0 0 0-1.9 1.9z"/><circle class="cls-89" cx="103.86" cy="276.26" r="7.61" transform="rotate(-45 103.864 276.268)"/><path class="cls-89" d="M98.42 276.26a5.45 5.45 0 1 0 5.44-5.44 5.44 5.44 0 0 0-5.44 5.44z"/><path class="cls-89" d="M100.75 276.26a3.11 3.11 0 1 0 3.11-3.1 3.11 3.11 0 0 0-3.11 3.1z"/><path class="cls-89" d="M102.5 276.26a1.36 1.36 0 1 0 1.36-1.36 1.36 1.36 0 0 0-1.36 1.36z"/><circle class="cls-89" cx="103.86" cy="242.32" r="7.61"/><circle class="cls-89" cx="103.86" cy="242.32" r="5.45"/><circle class="cls-89" cx="103.86" cy="242.32" r="3.11"/><circle class="cls-89" cx="103.86" cy="242.32" r="1.36"/><circle class="cls-89" cx="146.43" cy="134.03" r="1.32"/><circle class="cls-89" cx="95.38" cy="126.6" r="10.63"/><circle class="cls-89" cx="95.38" cy="126.6" r="7.99"/><path class="cls-90" d="M91.66 126.6a3.73 3.73 0 1 0 3.72-3.72 3.73 3.73 0 0 0-3.72 3.72z"/><circle class="cls-89" cx="10.88" cy="10.88" r="10.63"/><circle class="cls-89" cx="10.88" cy="10.88" r="7.99"/><circle class="cls-90" cx="10.88" cy="10.88" r="6.1"/><circle class="cls-90" cx="24.76" cy="24.76" r="6.1"/><circle class="cls-90" cx="34.34" cy="34.74" r="3.88"/><circle class="cls-90" cx="34.34" cy="46.64" r="2.4"/><circle class="cls-90" cx="34.34" cy="59.77" r="1.55"/><circle class="cls-89" cx="142.91" cy="42.92" r="10.63"/><circle class="cls-89" cx="142.91" cy="42.92" r="7.99"/><path class="cls-90" d="M139.18 42.92a3.73 3.73 0 1 0 3.73-3.72 3.72 3.72 0 0 0-3.73 3.72z"/><path class="cls-89" d="M156.39 26.11a4.46 4.46 0 1 0 4.45-4.45 4.45 4.45 0 0 0-4.45 4.45z"/><path class="cls-89" d="M157.5 26.11a3.35 3.35 0 1 0 3.34-3.34 3.35 3.35 0 0 0-3.34 3.34z"/><circle class="cls-90" cx="160.84" cy="26.11" r="1.56"/><ellipse class="cls-89" cx="182.13" cy="31.98" rx="4.45" ry="5.14"/><ellipse class="cls-89" cx="182.13" cy="31.98" rx="3.35" ry="3.86"/><ellipse class="cls-90" cx="182.13" cy="31.98" rx="1.56" ry="1.8"/><circle class="cls-90" cx="159.59" cy="177.4" r="2.24"/><circle class="cls-90" cx="152.37" cy="177.4" r="2.24"/><path class="cls-90" d="M64.06 277.14a2.24 2.24 0 1 0-2.24 2.25 2.24 2.24 0 0 0 2.24-2.25z"/><circle class="cls-90" cx="145.15" cy="177.4" r="2.24"/><circle class="cls-90" cx="137.92" cy="177.4" r="2.24"/><path class="cls-90" d="M196.21 224.85a3.72 3.72 0 1 0 3.72-3.72 3.72 3.72 0 0 0-3.72 3.72z"/><path class="cls-91" d="M197.81 224.85a2.13 2.13 0 1 0 2.12-2.12 2.13 2.13 0 0 0-2.12 2.12zm-3.43 15.04a2.13 2.13 0 1 0 2.13-2.13 2.12 2.12 0 0 0-2.13 2.13z"/><path class="cls-89" d="M109.2 174.36l-22.76 22.77 14.17 14.17"/><path class="cls-89" d="M107.29 172.45l-33.43 33.44 5.96 5.96"/><path class="cls-89" d="M105.38 170.54L61.3 214.63l3.5 3.5-15.65 15.65-18.8-18.8m73.12-46.34l-44.08 44.08m40.83-44.65l-42.74 42.75m39.37-43.19l-41.28 41.28m37.02-40.84L53.66 207m35.5-39.32l-37.41 37.41m34.5-38.31l-36.41 36.4m34.5-38.31l-36.4 36.4m34.49-38.31l-36.4 36.4m34.49-38.31l-36.4 36.41m7.01-55.95a10.42 10.42 0 0 0 10.42-10.42 10.41 10.41 0 0 0-10.42-10.41 10.41 10.41 0 0 0-10.41 10.41 10.42 10.42 0 0 0 10.41 10.42z"/><path class="cls-89" transform="rotate(180 51.135 131.09)" d="M44.12 124.08h14.03v14.03H44.12z"/><path class="cls-89" transform="rotate(180 51.135 131.09)" d="M46.69 126.64h8.9v8.9h-8.9z"/><path class="cls-89" d="M8.78 136.46a5.36 5.36 0 0 0 5.37-5.37 5.37 5.37 0 0 0-5.37-5.37 5.38 5.38 0 0 0-5.37 5.37 5.37 5.37 0 0 0 5.37 5.37z"/><path class="cls-89" transform="rotate(180 8.78 131.09)" d="M5.16 127.47h7.24v7.24H5.16z"/><path class="cls-89" transform="rotate(180 8.78 131.09)" d="M6.49 128.8h4.59v4.59H6.49z"/><rect class="cls-89" x="84.17" y="150.53" width="35.07" height="35.07" rx="10.41" ry="10.41" transform="rotate(180 101.71 168.07)"/><path class="cls-89" transform="rotate(180 101.71 168.07)" d="M89.9 156.26h23.62v23.62H89.9z"/><path class="cls-89" transform="rotate(180 101.71 168.07)" d="M94.22 160.58h14.98v14.98H94.22z"/><path class="cls-89" transform="rotate(180 51.135 131.09)" d="M49.05 129.01h4.17v4.17h-4.17z"/><circle class="cls-91" cx="207.52" cy="205.88" r="2.13"/><path class="cls-89" d="M207.52 213.46a7.58 7.58 0 0 0 7.58-7.58 7.58 7.58 0 0 0-7.58-7.59 7.59 7.59 0 0 0-7.59 7.59 7.58 7.58 0 0 0 7.59 7.58z"/><path class="cls-89" transform="rotate(180 207.515 205.875)" d="M202.41 200.77h10.22v10.22h-10.22z"/><path class="cls-89" transform="rotate(180 207.515 205.875)" d="M204.28 202.64h6.48v6.48h-6.48z"/><path class="cls-91" d="M234.33 240.08a1.43 1.43 0 1 1 1.43 1.43 1.43 1.43 0 0 1-1.43-1.43zm-18.61 3.05a4.71 4.71 0 1 1 4.71 4.71 4.71 4.71 0 0 1-4.71-4.71z"/><circle class="cls-91" cx="211.15" cy="243.13" r="2.13"/><circle class="cls-91" cx="206.14" cy="243.13" r="1.07"/><path class="cls-89" d="M235.76 235a5.11 5.11 0 0 1 5.11 5.11 5.11 5.11 0 0 1-5.11 5.11 5.11 5.11 0 0 1-5.11-5.11 5.11 5.11 0 0 1 5.11-5.11z"/><path class="cls-89" transform="rotate(180 235.765 240.08)" d="M232.32 236.64h6.88v6.88h-6.88z"/><path class="cls-89" transform="rotate(180 235.765 240.08)" d="M233.58 237.9h4.36v4.36h-4.36z"/><path d="M7.9 166.78a24.44 24.44 0 1 1 24.44 24.44A24.47 24.47 0 0 1 7.9 166.78zm1.74 0a22.7 22.7 0 1 0 22.7-22.7 22.73 22.73 0 0 0-22.7 22.7z" fill="url(#Degradado_sin_nombre_669-7)"/><path d="M34.09 175.65v10a18.93 18.93 0 0 0 17.09-17h-10a9 9 0 0 1-7.09 7zM30.6 157.9v-10a18.93 18.93 0 0 0-17.11 17.25h10a9.06 9.06 0 0 1 7.11-7.25zm3.49-10v10a9.05 9.05 0 0 1 7.14 7.28h10a18.92 18.92 0 0 0-17.14-17.25zM23.5 168.67h-10a18.93 18.93 0 0 0 17.09 17v-10a9 9 0 0 1-7.09-7z" fill="url(#Degradado_sin_nombre_654-7)"/><circle cx="32.34" cy="166.78" r="5.52" fill="url(#Degradado_sin_nombre_663-7)"/><path d="M176.85 144.56a10.06 10.06 0 1 1 10.06 10.06 10.07 10.07 0 0 1-10.06-10.06zm.72 0a9.34 9.34 0 1 0 9.34-9.34 9.35 9.35 0 0 0-9.34 9.34z" fill="url(#Degradado_sin_nombre_669-8)"/><path d="M187.63 148.21v4.1a7.79 7.79 0 0 0 7-7h-4.11a3.73 3.73 0 0 1-2.89 2.9zm-1.44-7.3v-4.1a7.79 7.79 0 0 0-7 7.1h4.1a3.72 3.72 0 0 1 2.9-3zm1.44-4.1v4.1a3.7 3.7 0 0 1 2.93 3h4.1a7.78 7.78 0 0 0-7.03-7.1zm-4.36 8.53h-4.11a7.78 7.78 0 0 0 7 7v-4.1a3.71 3.71 0 0 1-2.89-2.9z" fill="url(#Degradado_sin_nombre_654-8)"/><path d="M184.63 144.56a2.28 2.28 0 1 0 2.28-2.27 2.27 2.27 0 0 0-2.28 2.27z" fill="url(#Degradado_sin_nombre_663-8)"/><path d="M113.34 141.51a12.23 12.23 0 1 1 12.23 12.22 12.25 12.25 0 0 1-12.23-12.22zm.88 0a11.35 11.35 0 1 0 11.35-11.35 11.36 11.36 0 0 0-11.35 11.35z" fill="url(#Degradado_sin_nombre_669-9)"/><path d="M126.44 145.94v5a9.47 9.47 0 0 0 8.54-8.48h-5a4.52 4.52 0 0 1-3.54 3.48zm-1.75-8.87v-5a9.46 9.46 0 0 0-8.55 8.63h5a4.52 4.52 0 0 1 3.55-3.63zm1.75-5v5a4.52 4.52 0 0 1 3.57 3.64h5a9.46 9.46 0 0 0-8.57-8.63zm-5.3 10.37h-5a9.47 9.47 0 0 0 8.54 8.48v-5a4.52 4.52 0 0 1-3.54-3.47z" fill="url(#Degradado_sin_nombre_654-9)"/><circle cx="125.57" cy="141.51" r="2.76" fill="url(#Degradado_sin_nombre_663-9)"/><path d="M38.54 100a7.49 7.49 0 1 1 7.46 7.53 7.5 7.5 0 0 1-7.46-7.53zm.53 0a7 7 0 1 0 7-7 7 7 0 0 0-7 7z" fill="url(#Degradado_sin_nombre_669-10)"/><path d="M46.56 102.76v3.06a5.8 5.8 0 0 0 5.24-5.2h-3.06a2.77 2.77 0 0 1-2.18 2.14zm-1.07-5.44v-3a5.79 5.79 0 0 0-5.24 5.28h3a2.78 2.78 0 0 1 2.24-2.28zm1.07-3v3a2.77 2.77 0 0 1 2.19 2.23h3.06a5.8 5.8 0 0 0-5.25-5.28zm-3.24 6.35h-3.07a5.81 5.81 0 0 0 5.24 5.2v-3.06a2.77 2.77 0 0 1-2.17-2.19z" fill="url(#Degradado_sin_nombre_654-10)"/><circle cx="46.03" cy="100.04" r="1.69" fill="url(#Degradado_sin_nombre_663-10)"/></g></g></svg>