<svg xmlns="http://www.w3.org/2000/svg" xmlns:xlink="http://www.w3.org/1999/xlink" viewBox="0 0 132.54 210.94"><defs><style>.cls-5{fill:#6ee5f9}.cls-7{fill:#c4118b}.cls-8{fill:#27f5ff}</style><linearGradient id="linear-gradient" x1="15.48" y1="150.34" x2="125.89" y2="150.34" gradientUnits="userSpaceOnUse"><stop offset="0" stop-color="#7827a8"/><stop offset=".33" stop-color="#6d32b0"/><stop offset=".9" stop-color="#5050c7"/><stop offset="1" stop-color="#4a56cb"/></linearGradient><linearGradient id="linear-gradient-2" y1="180.63" x2="132.54" y2="180.63" gradientUnits="userSpaceOnUse"><stop offset="0" stop-color="#611f87"/><stop offset=".38" stop-color="#562a90"/><stop offset="1" stop-color="#3c46a6"/></linearGradient><linearGradient id="linear-gradient-3" y1="170" x2="132.54" y2="170" gradientUnits="userSpaceOnUse"><stop offset="0" stop-color="#c4118b"/><stop offset=".08" stop-color="#b9148c"/><stop offset=".22" stop-color="#9b1b8e"/><stop offset=".4" stop-color="#6a2891"/><stop offset=".48" stop-color="#522e93"/><stop offset=".6" stop-color="#5855a9"/><stop offset=".87" stop-color="#67b6df"/><stop offset="1" stop-color="#6ee5f9"/></linearGradient><linearGradient id="linear-gradient-4" x1="0" y1="191.3" x2="132.48" y2="191.3" xlink:href="#linear-gradient-3"/><linearGradient id="linear-gradient-5" x1="15.48" y1="150.34" x2="125.89" y2="150.34" gradientUnits="userSpaceOnUse"><stop offset="0" stop-color="#c42992"/><stop offset=".08" stop-color="#b92992"/><stop offset=".22" stop-color="#9b2b92"/><stop offset=".4" stop-color="#6a2d93"/><stop offset=".48" stop-color="#522e93"/><stop offset=".6" stop-color="#6055a8"/><stop offset=".86" stop-color="#82b6dc"/><stop offset="1" stop-color="#95ebf9"/></linearGradient><linearGradient id="linear-gradient-6" x1="15.48" y1="122.01" x2="125.89" y2="122.01" xlink:href="#linear-gradient"/><linearGradient id="linear-gradient-7" x1="0" y1="152.3" x2="132.54" y2="152.3" xlink:href="#linear-gradient-2"/><linearGradient id="linear-gradient-8" x1="0" y1="141.67" x2="132.54" y2="141.67" xlink:href="#linear-gradient-3"/><linearGradient id="linear-gradient-9" x1="0" y1="162.98" x2="132.48" y2="162.98" xlink:href="#linear-gradient-3"/><linearGradient id="linear-gradient-10" x1="15.48" y1="122.01" x2="125.89" y2="122.01" xlink:href="#linear-gradient-5"/><linearGradient id="linear-gradient-11" x1="79.23" y1="244.2" x2="64.1" y2="13.98" gradientUnits="userSpaceOnUse"><stop offset="0" stop-color="#6ee8fd"/><stop offset=".09" stop-color="#6ee8fd" stop-opacity=".96"/><stop offset=".24" stop-color="#6ee8fd" stop-opacity=".84"/><stop offset=".34" stop-color="#6ee8fd" stop-opacity=".76"/><stop offset=".54" stop-color="#6ee8fd" stop-opacity=".54"/><stop offset=".84" stop-color="#6ee8fd" stop-opacity=".2"/><stop offset="1" stop-color="#6ee8fd" stop-opacity="0"/></linearGradient><linearGradient id="linear-gradient-12" x1="89.2" y1="218.08" x2="89.2" y2="25.11" gradientUnits="userSpaceOnUse"><stop offset="0" stop-color="#6ee8fd"/><stop offset=".09" stop-color="#6ee8fd" stop-opacity=".96"/><stop offset=".24" stop-color="#6ee8fd" stop-opacity=".84"/><stop offset=".45" stop-color="#6ee8fd" stop-opacity=".64"/><stop offset=".69" stop-color="#6ee8fd" stop-opacity=".38"/><stop offset=".97" stop-color="#6ee8fd" stop-opacity=".04"/><stop offset="1" stop-color="#6ee8fd" stop-opacity="0"/></linearGradient><linearGradient id="linear-gradient-13" x1="29.5" y1="122.65" x2="40.77" y2="122.65" xlink:href="#linear-gradient-2"/></defs><g id="Layer_2" data-name="Layer 2"><g id="OBJECTS"><path d="M130.54 147.56c2.65 1.53 2.67 4 0 5.55L71.3 187.55a10.51 10.51 0 0 1-9.58 0L2.06 153.11c-2.65-1.53-2.67-4 0-5.55l59.24-34.44a10.51 10.51 0 0 1 9.58 0z" fill="url(#linear-gradient)"/><path d="M130.57 153.11L71.3 187.55a10.51 10.51 0 0 1-9.58 0L2.06 153.11a3.4 3.4 0 0 1-2-2.79L0 172.55a3.41 3.41 0 0 0 2 2.8l59.65 34.44a10.59 10.59 0 0 0 9.59 0l59.27-34.44a3.36 3.36 0 0 0 2-2.76l.07-22.24a3.38 3.38 0 0 1-2.01 2.76z" fill="url(#linear-gradient-2)"/><path d="M.06 151.29a3.4 3.4 0 0 0 2 2.79l59.66 34.44a10.51 10.51 0 0 0 9.58 0l59.27-34.44a3.38 3.38 0 0 0 2-2.69v-1a3.38 3.38 0 0 1-2 2.76l-59.27 34.4a10.51 10.51 0 0 1-9.58 0L2.06 153.11a3.4 3.4 0 0 1-2-2.79L0 172.55v.07z" fill="url(#linear-gradient-3)"/><path d="M132.47 171.67a3.35 3.35 0 0 1-2 2.76l-59.23 34.44a10.59 10.59 0 0 1-9.59 0L2 174.43a3.44 3.44 0 0 1-2-2.73v.85a3.41 3.41 0 0 0 2 2.8l59.65 34.44a10.59 10.59 0 0 0 9.59 0l59.27-34.44a3.36 3.36 0 0 0 2-2.76v-.92z" fill="url(#linear-gradient-4)"/><path class="cls-5" d="M131.77 174.32a2.63 2.63 0 0 0 .7-1.73l.07-22.24a2.68 2.68 0 0 1-.77 1.81z"/><path d="M130.54 147.56l-59.66-34.44a10.51 10.51 0 0 0-9.58 0L2 147.56c-2.64 1.53-2.62 4 0 5.55l59.66 34.44a10.51 10.51 0 0 0 9.58 0l59.27-34.44c2.7-1.53 2.68-4.02.03-5.55zm-.43 4.76l-59.27 34.44a9.62 9.62 0 0 1-8.66 0L2.52 152.32a2.58 2.58 0 0 1-1.54-2 2.55 2.55 0 0 1 1.51-2l59.27-34.44a9.7 9.7 0 0 1 8.66 0l59.66 34.44a2.58 2.58 0 0 1 1.54 2 2.55 2.55 0 0 1-1.51 2z" fill="url(#linear-gradient-5)"/><path class="cls-7" d="M.66 151.93a2.6 2.6 0 0 1-.6-1.61L0 172.55a2.68 2.68 0 0 0 .66 1.7z"/><path class="cls-8" d="M46.46 183.51l-.03 13.12-1.56-.9.04-13.12 1.55.9zm3.64 2.1l-.04 13.12-1.56-.9.04-13.12 1.56.9zm3.63 2.1l-.04 13.11-1.55-.89.03-13.12 1.56.9zm3.63 2.09l-.04 13.12-1.55-.9.03-13.11 1.56.89z"/><path class="cls-7" d="M35 178.1a2 2 0 0 1 .9 1.54v.36c0 .57-.4.8-.89.51l-26.4-15.23a2 2 0 0 1-.89-1.55v-.32c0-.57.4-.8.9-.52zm0 4.59a2 2 0 0 1 .9 1.55v.33c0 .56-.4.79-.89.51l-26.4-15.21a2 2 0 0 1-.89-1.54V168c0-.57.4-.8.9-.51zm0 4.59a2 2 0 0 1 .9 1.55v.33c0 .57-.4.8-.89.51l-26.4-15.2a2 2 0 0 1-.89-1.55v-.33c0-.56.4-.8.9-.51z"/><path d="M130.54 119.24c2.65 1.53 2.67 4 0 5.55L71.3 159.23a10.57 10.57 0 0 1-9.58 0L2.06 124.79c-2.65-1.53-2.67-4 0-5.55L61.3 84.79a10.57 10.57 0 0 1 9.58 0z" fill="url(#linear-gradient-6)"/><path d="M130.57 124.79L71.3 159.23a10.57 10.57 0 0 1-9.58 0L2.06 124.79a3.42 3.42 0 0 1-2-2.8L0 144.23A3.38 3.38 0 0 0 2 147l59.65 34.44a10.53 10.53 0 0 0 9.59 0L130.51 147a3.35 3.35 0 0 0 2-2.75l.07-22.24a3.38 3.38 0 0 1-2.01 2.78z" fill="url(#linear-gradient-7)"/><path d="M.06 123a3.4 3.4 0 0 0 2 2.79l59.66 34.41a10.57 10.57 0 0 0 9.58 0l59.27-34.44a3.38 3.38 0 0 0 2-2.69v-1a3.38 3.38 0 0 1-2 2.76l-59.27 34.4a10.57 10.57 0 0 1-9.58 0L2.06 124.79a3.42 3.42 0 0 1-2-2.8L0 144.23v.07z" fill="url(#linear-gradient-8)"/><path d="M132.47 143.35a3.36 3.36 0 0 1-2 2.76l-59.23 34.44a10.59 10.59 0 0 1-9.59 0L2 146.11a3.45 3.45 0 0 1-2-2.74v.86A3.38 3.38 0 0 0 2 147l59.65 34.44a10.53 10.53 0 0 0 9.59 0L130.51 147a3.35 3.35 0 0 0 2-2.75v-.92z" fill="url(#linear-gradient-9)"/><path class="cls-5" d="M131.77 146a2.63 2.63 0 0 0 .7-1.73l.07-22.24a2.7 2.7 0 0 1-.77 1.81z"/><path d="M130.54 119.24L70.88 84.79a10.57 10.57 0 0 0-9.58 0L2 119.24c-2.64 1.53-2.62 4 0 5.55l59.66 34.44a10.57 10.57 0 0 0 9.58 0l59.27-34.44c2.7-1.53 2.68-4.02.03-5.55zm-.43 4.75l-59.27 34.45a9.7 9.7 0 0 1-8.66 0L2.52 124a2 2 0 0 1 0-4l59.24-34.41a9.62 9.62 0 0 1 8.66 0L130.08 120a2.58 2.58 0 0 1 1.54 2 2.53 2.53 0 0 1-1.51 2z" fill="url(#linear-gradient-10)"/><path class="cls-7" d="M.66 123.61a2.6 2.6 0 0 1-.6-1.61L0 144.23a2.64 2.64 0 0 0 .66 1.69z"/><path class="cls-8" d="M46.46 155.19l-.03 13.12-1.56-.9.04-13.12 1.55.9zm3.64 2.1l-.04 13.11-1.56-.9.04-13.11 1.56.9zm3.63 2.1l-.04 13.11-1.55-.9.03-13.11 1.56.9zm3.63 2.09l-.04 13.12-1.55-.9.03-13.12 1.56.9z"/><path fill="#56e1ef" d="M68.77 116.97l31.86-18.52-.07 24.87-31.86 18.51.07-24.86z"/><path class="cls-5" d="M50.36 88.72a12.68 12.68 0 0 1 3.87 3.7l19 27.14-4.46-2.56-.07 24.86-36.92-21.34.07-24.87-4.5-2.59L46.48 88a5.24 5.24 0 0 1 3.88.72z"/><path d="M86.09 73.91a12.68 12.68 0 0 0-3.87-3.7 5.21 5.21 0 0 0-3.88-.78l-19.13 5.11-31.86 18.52L46.48 88a5.24 5.24 0 0 1 3.88.77 12.68 12.68 0 0 1 3.87 3.7l19 27.14 31.85-18.51z" fill="#8df4ff"/><path d="M27.35 0v93.06L46.48 88a5.24 5.24 0 0 1 3.88.77 12.68 12.68 0 0 1 3.87 3.7l19 27.14 31.85-18.51V0z" fill="url(#linear-gradient-11)"/><path fill="url(#linear-gradient-12)" d="M73.27 119.56V0h31.85v101.05l-31.85 18.51z"/><path d="M29.69 124.75a.64.64 0 0 1-.19-.33v-10.25l11 6.38a.56.56 0 0 1 .19.33v10.26z" fill="url(#linear-gradient-13)"/></g></g></svg>