<svg xmlns="http://www.w3.org/2000/svg" xmlns:xlink="http://www.w3.org/1999/xlink" viewBox="0 0 120.41 206.51"><defs><style>.cls-1{fill:#6ee8fd;}.cls-2{fill:url(#linear-gradient);}.cls-3{fill:url(#linear-gradient-2);}.cls-4{fill:url(#linear-gradient-3);}.cls-5{fill:url(#linear-gradient-4);}.cls-6{fill:url(#linear-gradient-5);}.cls-7{fill:url(#linear-gradient-6);}.cls-8{fill:url(#linear-gradient-7);}.cls-9{fill:url(#linear-gradient-9);}.cls-10{fill:url(#linear-gradient-10);}.cls-11{fill:url(#linear-gradient-11);}.cls-12{fill:url(#linear-gradient-12);}.cls-13{fill:url(#linear-gradient-13);}.cls-14{fill:#282525;}.cls-15{fill:#3b3535;}.cls-16{fill:#27f5ff;}.cls-17{fill:url(#linear-gradient-14);}.cls-18{fill:url(#linear-gradient-15);}.cls-19{fill:#c4118b;}.cls-20{fill:#6ee5f9;}</style><linearGradient id="linear-gradient" x1="11.69" y1="170.86" x2="108.7" y2="170.86" gradientUnits="userSpaceOnUse"><stop offset="0" stop-color="#611f87"/><stop offset="0.38" stop-color="#562a90"/><stop offset="1" stop-color="#3c46a6"/></linearGradient><linearGradient id="linear-gradient-2" x1="33.83" y1="135.22" x2="86.54" y2="135.22" gradientUnits="userSpaceOnUse"><stop offset="0" stop-color="#1b2268"/><stop offset="0.31" stop-color="#1a2164"/><stop offset="0.59" stop-color="#171d59"/><stop offset="0.87" stop-color="#121646"/><stop offset="0.99" stop-color="#0f123b"/></linearGradient><linearGradient id="linear-gradient-3" x1="33.91" y1="135.21" x2="86.46" y2="135.21" xlink:href="#linear-gradient-2"/><linearGradient id="linear-gradient-4" x1="84.53" y1="171.74" x2="86.54" y2="171.74" xlink:href="#linear-gradient-2"/><linearGradient id="linear-gradient-5" x1="34.24" y1="171.7" x2="36.25" y2="171.7" xlink:href="#linear-gradient-2"/><linearGradient id="linear-gradient-6" x1="60.22" y1="145.95" x2="60.22" y2="90.15" xlink:href="#linear-gradient-2"/><linearGradient id="linear-gradient-7" x1="60.21" y1="207.96" x2="60.21" y2="36.13" gradientUnits="userSpaceOnUse"><stop offset="0" stop-color="#6ee8fd"/><stop offset="0.09" stop-color="#6ee8fd" stop-opacity="0.96"/><stop offset="0.24" stop-color="#6ee8fd" stop-opacity="0.84"/><stop offset="0.45" stop-color="#6ee8fd" stop-opacity="0.64"/><stop offset="0.69" stop-color="#6ee8fd" stop-opacity="0.38"/><stop offset="0.97" stop-color="#6ee8fd" stop-opacity="0.04"/><stop offset="1" stop-color="#6ee8fd" stop-opacity="0"/></linearGradient><linearGradient id="linear-gradient-9" x1="84.44" y1="181.23" x2="84.44" y2="81.1" xlink:href="#linear-gradient-7"/><linearGradient id="linear-gradient-10" x1="71.27" y1="23.48" x2="71.51" y2="23.48" xlink:href="#linear-gradient"/><linearGradient id="linear-gradient-11" x1="48.65" y1="23.5" x2="48.91" y2="23.5" xlink:href="#linear-gradient"/><linearGradient id="linear-gradient-12" x1="15.06" y1="55.01" x2="105.32" y2="55.01" xlink:href="#linear-gradient"/><linearGradient id="linear-gradient-13" x1="15.07" y1="39.88" x2="105.32" y2="39.88" gradientUnits="userSpaceOnUse"><stop offset="0" stop-color="#7827a8"/><stop offset="0.33" stop-color="#6d32b0"/><stop offset="0.9" stop-color="#5050c7"/><stop offset="1" stop-color="#4a56cb"/></linearGradient><linearGradient id="linear-gradient-14" x1="11.69" y1="191.43" x2="108.66" y2="191.43" gradientUnits="userSpaceOnUse"><stop offset="0" stop-color="#c4118b"/><stop offset="0.08" stop-color="#b9148c"/><stop offset="0.22" stop-color="#9b1b8e"/><stop offset="0.4" stop-color="#6a2891"/><stop offset="0.48" stop-color="#522e93"/><stop offset="0.6" stop-color="#5855a9"/><stop offset="0.87" stop-color="#67b6df"/><stop offset="1" stop-color="#6ee5f9"/></linearGradient><linearGradient id="linear-gradient-15" x1="11.69" y1="156.82" x2="108.7" y2="156.82" xlink:href="#linear-gradient-14"/></defs><title>Asset 2</title><g id="Layer_2" data-name="Layer 2"><g id="OBJECTS"><path class="cls-1" d="M107.22,133.18c1.94,1.12,2,2.94,0,4.06L63.86,162.46a7.75,7.75,0,0,1-7,0L13.17,137.24c-1.94-1.12-1.95-2.94,0-4.06L56.53,108a7.75,7.75,0,0,1,7,0Z"/><path class="cls-2" d="M107.26,137.24,63.88,162.46a7.75,7.75,0,0,1-7,0L13.2,137.24a2.48,2.48,0,0,1-1.47-2l0,43.21a2.47,2.47,0,0,0,1.46,2.05l43.67,25.21a7.73,7.73,0,0,0,7,0l43.39-25.21a2.46,2.46,0,0,0,1.44-2l0-43.21A2.44,2.44,0,0,1,107.26,137.24Z"/><polygon class="cls-3" points="33.83 121.17 84.53 150.44 86.54 149.28 35.83 120 33.83 121.17"/><polygon class="cls-4" points="35.92 150.38 86.46 121.2 84.45 120.04 33.91 149.22 35.92 150.38"/><polygon class="cls-5" points="84.53 193.63 86.54 192.46 86.54 149.86 85.53 149.86 84.53 150.44 84.53 193.63"/><polygon class="cls-6" points="36.25 193.79 36.25 150.56 34.6 149.6 34.24 149.6 34.24 192.63 36.25 193.79"/><rect class="cls-7" x="58.29" y="46.43" width="3.87" height="89.53"/><path class="cls-8" d="M108.7,22,57.22,1.48,11.71,23.24v112h0a2.48,2.48,0,0,0,1.46,2l43.67,25.22a7.75,7.75,0,0,0,7,0l43.38-25.22a2.46,2.46,0,0,0,1.44-2h0Z"/><path class="cls-8" d="M108.7,22,57.22,1.48,11.71,23.24v112h0a2.48,2.48,0,0,0,1.46,2l43.67,25.22a7.75,7.75,0,0,0,7,0l43.38-25.22a2.46,2.46,0,0,0,1.44-2h0Z"/><path class="cls-9" d="M108.68,135.24h0V22L60.18,2.66V163.29a7.24,7.24,0,0,0,3.68-.83l43.38-25.22A2.46,2.46,0,0,0,108.68,135.24Z"/><path class="cls-10" d="M71.49,24.53l0-4.15a3.75,3.75,0,0,1-.1.82,5.87,5.87,0,0,0-.13,1.24v4.15a5.71,5.71,0,0,1,.13-1.23A3.91,3.91,0,0,0,71.49,24.53Z"/><path class="cls-11" d="M48.9,26.69V22.53a5.08,5.08,0,0,0-.15-1.33,4.4,4.4,0,0,1-.1-.88v4.15a4.5,4.5,0,0,0,.1.89A6,6,0,0,1,48.9,26.69Z"/><path class="cls-12" d="M102.52,44.25a16.66,16.66,0,0,1-10,2.19,27.25,27.25,0,0,0-15.2,3.11l-.33.2c-3.44,2-5.47,4.69-5.47,7.48l0,3.61a7,7,0,0,1-3.58,3.54,18.15,18.15,0,0,1-15.09,0l-.53-.29a6.65,6.65,0,0,1-3.16-3.41V57.33c0-2.83-2-5.56-5.55-7.58l-.34-.2A27.41,27.41,0,0,0,28,46.44a17.16,17.16,0,0,1-9.57-1.88l-.5-.31c-1.9-1.24-2.86-2.82-2.85-4.4V44c0,1.58.94,3.16,2.85,4.4.16.11.33.21.5.31A17.16,17.16,0,0,0,28,50.59,27.43,27.43,0,0,1,43.21,53.7l.33.2c2.84,1.64,4.73,3.74,5.34,6v3.65c0,1.71,1.12,3.41,3.37,4.71l.54.3a18.23,18.23,0,0,0,15.09,0c2.56-1.32,3.84-3.13,3.84-4.94l0-3.93c.64-2.16,2.47-4.18,5.2-5.77l.34-.2a27.2,27.2,0,0,1,15.19-3.11,16.67,16.67,0,0,0,10.05-2.19c1.86-1.22,2.8-2.78,2.8-4.33V39.91C105.32,41.47,104.38,43,102.52,44.25Zm-31,16.47a6.94,6.94,0,0,1,.2-1A3.93,3.93,0,0,1,71.51,60.72Z"/><path class="cls-13" d="M102,35.2l.5.31c3.78,2.48,3.81,6.27,0,8.74a16.66,16.66,0,0,1-10,2.19,27.25,27.25,0,0,0-15.2,3.11l-.33.2c-4,2.31-6.07,5.56-5.32,8.81.48,2.09-.77,4.29-3.75,5.82a18.15,18.15,0,0,1-15.09,0l-.53-.29c-2.62-1.51-3.71-3.57-3.29-5.53.72-3.25-1.4-6.5-5.41-8.81l-.34-.2A27.41,27.41,0,0,0,28,46.44a17.16,17.16,0,0,1-9.57-1.88l-.5-.31c-3.79-2.47-3.81-6.26-.05-8.74a16.66,16.66,0,0,1,10-2.19,27.16,27.16,0,0,0,15.2-3.11l.33-.19c4-2.32,6.07-5.57,5.32-8.82-.47-2.09.77-4.29,3.75-5.82a18.23,18.23,0,0,1,15.09,0l.54.29c2.61,1.51,3.7,3.57,3.27,5.53-.71,3.25,1.41,6.5,5.42,8.82l.34.19A27.32,27.32,0,0,0,92.4,33.32,17.24,17.24,0,0,1,102,35.2Z"/><path class="cls-14" d="M68.54,40.92c-4.57,2.66-12,2.66-16.62,0-2.32-1.34-3.48-3.09-3.47-4.85V39.9c.1,1.66,1.25,3.31,3.46,4.58,4.6,2.66,12,2.66,16.62,0,2.27-1.32,3.41-3,3.41-4.78V36.41C71.83,38.05,70.7,39.67,68.54,40.92Z"/><path class="cls-15" d="M68.49,31.29c4.6,2.66,4.63,7,.05,9.63s-12,2.66-16.62,0-4.63-7-.05-9.63S63.88,28.63,68.49,31.29Z"/><path class="cls-16" d="M65.1,33.26c2.72,1.57,2.74,4.12,0,5.69a10.83,10.83,0,0,1-9.82,0c-2.73-1.57-2.74-4.12,0-5.69A10.85,10.85,0,0,1,65.1,33.26Z"/><path class="cls-16" d="M46.88,19.35c7.38,4.27,19.36,4.27,26.69,0,3.65-2.11,5.47-4.89,5.48-7.67V11a2.18,2.18,0,0,1,0,.25c.12-2.9-1.73-5.83-5.55-8-7.38-4.27-19.36-4.27-26.7,0-3.65,2.12-5.48,4.91-5.47,7.7v.67C41.31,14.39,43.16,17.21,46.88,19.35Zm-3.13-3.08.2.21ZM57.46,12l-9.72,5.65C45.15,16,43.66,14,43.27,12Zm-8.17,6.49,10.26-6,.05,8.27A25.27,25.27,0,0,1,49.29,18.48ZM49.21,4.07A25.06,25.06,0,0,1,59.49,1.76l0,8.28Zm-6,6.49c.37-2.05,1.84-4,4.41-5.65l9.79,5.65ZM43.49,16l-.19-.23Zm2.09,1.82-.24-.18ZM45,17.39l-.23-.19Zm-.54-.45a2.09,2.09,0,0,1-.22-.2A2.09,2.09,0,0,0,44.45,16.94ZM46,18.11a1.53,1.53,0,0,0,.21.14A1.53,1.53,0,0,1,46,18.11Zm25.16.37a24.9,24.9,0,0,1-10.29,2.3l0-8.27ZM62.92,12h14.2c-.37,2-1.84,4-4.41,5.65Zm0-1.43,9.72-5.65c2.59,1.61,4.08,3.6,4.47,5.65ZM60.82,10l0-8.27a25.11,25.11,0,0,1,10.31,2.3Zm13.42,8.22-.66.4Zm.62-.43c-.13.1-.28.2-.42.29C74.58,18,74.73,17.93,74.86,17.83Zm1.33-1.08.28-.26Zm-1.11.92.36-.27Zm.59-.46L76,17Zm1.65-1.66-.21.25Zm-.4.48-.25.25ZM79,11.75l0-.27Zm-1.51,3.57c.07-.09.14-.17.2-.26C77.63,15.15,77.56,15.23,77.49,15.32Zm.35-.5a2.33,2.33,0,0,0,.17-.26A2.33,2.33,0,0,1,77.84,14.82Zm.3-.5.15-.26Zm.26-.5.12-.27Zm.21-.51c0-.09.07-.18.1-.27C78.68,13.13,78.65,13.22,78.61,13.31Zm.18-.52c0-.09,0-.18.07-.27C78.84,12.61,78.81,12.7,78.79,12.79Zm.12-.52L79,12Zm-37.57-.84a2.26,2.26,0,0,1,0-.26A2.26,2.26,0,0,0,41.34,11.43Zm1.74,4.09a2,2,0,0,1-.17-.23A2,2,0,0,0,43.08,15.52ZM42.71,15l-.15-.23Zm-.32-.5c0-.08-.1-.16-.14-.24C42.29,14.37,42.34,14.45,42.39,14.53ZM42.1,14c0-.08-.07-.17-.11-.25C42,13.86,42.06,14,42.1,14Zm-.24-.51-.09-.25ZM41.67,13c0-.08-.05-.17-.08-.25C41.62,12.83,41.64,12.92,41.67,13Zm-.16-.52c0-.09,0-.17,0-.25C41.48,12.31,41.49,12.39,41.51,12.48Zm-.1-.53a1.87,1.87,0,0,1,0-.25A1.87,1.87,0,0,0,41.41,12Z"/><path class="cls-16" d="M120.4,35.1c.12-2.9-1.73-5.82-5.56-8-7.38-4.26-19.36-4.26-26.69,0-3.66,2.13-5.48,4.92-5.48,7.71v.66c0,2.82,1.85,5.64,5.56,7.79,7.39,4.26,19.36,4.26,26.7,0,3.64-2.12,5.47-4.9,5.48-7.68v-.69C120.41,34.94,120.4,35,120.4,35.1Zm-7.88,7.26a25.14,25.14,0,0,1-10.29,2.3l0-8.27Zm-8.25-7.92L114,28.79c2.59,1.61,4.08,3.6,4.47,5.65Zm-2.1-.53,0-8.27A25.27,25.27,0,0,1,112.44,28Zm2.11,2h14.19c-.37,2-1.83,4-4.41,5.65Zm16.11-.51a2.51,2.51,0,0,1,0,.27A2.51,2.51,0,0,0,120.39,35.36Zm-.07.52a2.56,2.56,0,0,1,0,.27A2.56,2.56,0,0,0,120.32,35.88Zm-.1.52c0,.09,0,.18-.08.26C120.17,36.58,120.19,36.49,120.22,36.4Zm-.15.51-.1.27Zm-.2.52a2.06,2.06,0,0,1-.12.26A2.06,2.06,0,0,0,119.87,37.43Zm-.23.51-.15.26Zm-.28.5c0,.09-.11.17-.17.26C119.25,38.61,119.31,38.53,119.36,38.44Zm-.32.49-.19.26Zm-.36.49-.22.26Zm-17.77-3,0,8.27a25.11,25.11,0,0,1-10.31-2.31ZM90.56,28a25.07,25.07,0,0,1,10.29-2.31l0,8.27Zm-6,6.49c.36-2,1.83-4,4.41-5.65l9.78,5.65Zm14.21,1.43-9.73,5.65c-2.59-1.61-4.08-3.61-4.47-5.66Zm-16.13-.56a2.17,2.17,0,0,0,0-.26A2.17,2.17,0,0,1,82.69,35.31Zm1.74,4.09c-.06-.07-.11-.15-.17-.23C84.32,39.25,84.37,39.33,84.43,39.4Zm-.36-.49-.16-.23Zm-.33-.5-.14-.24Zm-.28-.51-.12-.24Zm-.24-.51a1.86,1.86,0,0,1-.1-.25A1.86,1.86,0,0,0,83.22,37.39Zm-.2-.52a1.82,1.82,0,0,1-.07-.25A1.82,1.82,0,0,0,83,36.87Zm-.15-.52-.06-.25Zm-.11-.52,0-.26Zm2.34,4.32.2.21Zm-.44-.49a2,2,0,0,0,.19.22A2,2,0,0,1,84.66,39.66Zm2.27,2-.24-.17Zm-.58-.43-.24-.19Zm-.55-.45-.21-.2ZM87.35,42l.21.14Zm28.24.14-.66.41Zm.63-.42-.43.29Zm1.33-1.08.27-.26Zm-1.11.91.35-.26Zm.59-.46.3-.25Zm1.24-1.18-.25.26Z"/><path class="cls-16" d="M32.18,27.21c-7.39-4.27-19.37-4.27-26.7,0C1.82,29.33,0,32.12,0,34.91v.67c0,2.81,1.85,5.64,5.56,7.78,7.39,4.27,19.36,4.27,26.7,0,3.64-2.12,5.47-4.89,5.48-7.68V35c0,.08,0,.17,0,.25C37.85,32.34,36,29.41,32.18,27.21ZM29.85,42.49a25.1,25.1,0,0,1-10.29,2.3l0-8.27Zm-8.26-7.92,9.73-5.65c2.59,1.61,4.08,3.6,4.47,5.65Zm-2.09-.52,0-8.28a25.27,25.27,0,0,1,10.31,2.31Zm2.11,2H35.8c-.36,2-1.83,4-4.41,5.65ZM36,39.56l-.22.25Zm-17.77-3,0,8.27A25.27,25.27,0,0,1,8,42.49ZM7.89,28.08a25.1,25.1,0,0,1,10.29-2.31l0,8.27ZM1.94,34.57c.37-2,1.83-4,4.4-5.65l9.79,5.65ZM16.14,36,6.42,41.65C3.83,40,2.34,38.05,2,36ZM0,35.44c0-.09,0-.17,0-.26C0,35.27,0,35.35,0,35.44Zm1.74,4.09-.18-.23ZM1.4,39l-.16-.23Zm-.33-.5L.93,38.3ZM.79,38l-.12-.25Zm-.24-.52c0-.08-.06-.16-.1-.24C.49,37.36.51,37.44.55,37.52ZM.35,37c0-.09,0-.17-.07-.25C.3,36.84.32,36.92.35,37ZM.2,36.49c0-.09,0-.17-.05-.25C.16,36.32.18,36.4.2,36.49ZM.09,36l0-.25Zm2.34,4.32.2.21ZM2,39.79l.19.23Zm2.27,2.05L4,41.66Zm-.58-.44-.24-.19ZM3.13,41l-.21-.2Zm1.55,1.17.21.14Zm28.25.14c-.22.14-.44.28-.67.41C32.49,42.54,32.71,42.4,32.93,42.26Zm.62-.42c-.14.1-.28.2-.43.29C33.27,42,33.41,41.94,33.55,41.84Zm1.33-1.08c.09-.09.19-.17.27-.26C35.07,40.59,35,40.67,34.88,40.76Zm-1.11.92.36-.27Zm.59-.46.3-.26ZM35.6,40l-.24.26Zm2.09-4.27,0-.27Zm-1.51,3.57.19-.26Zm.34-.5a2.33,2.33,0,0,0,.17-.26A2.33,2.33,0,0,1,36.52,38.83Zm.31-.5c.05-.09.1-.17.14-.26C36.93,38.16,36.88,38.24,36.83,38.33Zm.25-.5c.05-.09.09-.18.13-.27C37.17,37.65,37.13,37.74,37.08,37.83Zm.22-.51.1-.27Zm.17-.52a2.76,2.76,0,0,0,.08-.27A2.76,2.76,0,0,1,37.47,36.8Zm.13-.52a2.56,2.56,0,0,0,0-.27A2.56,2.56,0,0,1,37.6,36.28Z"/><path class="cls-16" d="M73.53,51.08c-7.38-4.26-19.36-4.26-26.7,0-3.65,2.13-5.48,4.92-5.47,7.71v.66c0,2.82,1.85,5.64,5.57,7.79,7.38,4.26,19.36,4.26,26.69,0,3.65-2.12,5.47-4.9,5.48-7.68v-.69a1.93,1.93,0,0,1,0,.24C79.2,56.21,77.35,53.29,73.53,51.08ZM71.2,66.37a25.05,25.05,0,0,1-10.28,2.3l-.05-8.27ZM63,58.45l9.72-5.65c2.59,1.61,4.08,3.6,4.47,5.65Zm-2.09-.52,0-8.28A25.24,25.24,0,0,1,71.12,52Zm2.1,2h14.2c-.37,2-1.84,4-4.41,5.64Zm14.4,3.55-.21.26Zm-17.77-3,0,8.27a25.27,25.27,0,0,1-10.31-2.31ZM49.25,52a25.05,25.05,0,0,1,10.28-2.3l0,8.27Zm-6,6.5c.37-2.05,1.84-4,4.41-5.65l9.79,5.65ZM57.5,59.88l-9.72,5.65c-2.59-1.62-4.08-3.61-4.48-5.65Zm-16.12-.57a2.09,2.09,0,0,1,0-.25A2.09,2.09,0,0,0,41.38,59.31Zm1.74,4.1c-.06-.08-.12-.15-.17-.23C43,63.26,43.06,63.33,43.12,63.41Zm-.37-.49-.15-.24Zm-.32-.5c0-.08-.1-.16-.14-.24C42.33,62.26,42.38,62.34,42.43,62.42Zm-.29-.51L42,61.67Zm-.24-.51-.09-.25Zm-.19-.52c0-.08-.05-.16-.08-.25C41.66,60.72,41.68,60.8,41.71,60.88Zm-.16-.52c0-.08,0-.17,0-.25C41.52,60.19,41.53,60.28,41.55,60.36Zm-.1-.52a2.34,2.34,0,0,1,0-.26A2.34,2.34,0,0,0,41.45,59.84Zm2.34,4.31a2,2,0,0,0,.2.21A2,2,0,0,1,43.79,64.15Zm-.45-.48c.07.07.13.15.19.22S43.41,63.74,43.34,63.67Zm2.28,2a2.07,2.07,0,0,1-.24-.17A2.07,2.07,0,0,0,45.62,65.71ZM45,65.28l-.23-.2Zm-.54-.45-.22-.2ZM46,66l.21.14Zm28.24.14-.66.41Zm.62-.42-.41.28Zm1.33-1.09.28-.25Zm-1.09.91.34-.25Zm.57-.45.31-.25ZM77,63.91l-.25.26ZM79,59.63l0-.27ZM77.53,63.2a2.56,2.56,0,0,0,.2-.26A2.56,2.56,0,0,1,77.53,63.2Zm.35-.49.17-.26Zm.3-.5.15-.26Zm.26-.51.12-.26Zm.21-.51c0-.09.07-.18.1-.27C78.72,61,78.69,61.1,78.65,61.19Zm.17-.51a2.76,2.76,0,0,0,.08-.27A2.76,2.76,0,0,1,78.82,60.68Zm.13-.53.06-.26Z"/><path class="cls-17" d="M108.66,176.35a2.46,2.46,0,0,1-1.44,2L63.83,203.58a7.73,7.73,0,0,1-7,0L13.15,178.37a2.49,2.49,0,0,1-1.46-2v2.06a2.47,2.47,0,0,0,1.46,2.05l43.67,25.21a7.73,7.73,0,0,0,7,0l43.39-25.21a2.46,2.46,0,0,0,1.44-2v-2.09Z"/><path class="cls-18" d="M11.73,137.11a2.48,2.48,0,0,0,1.47,2l43.66,25.21a7.75,7.75,0,0,0,7,0l43.38-25.21a2.46,2.46,0,0,0,1.44-2v-1.93a2.44,2.44,0,0,1-1.44,2L63.88,162.46a7.75,7.75,0,0,1-7,0L13.2,137.24a2.48,2.48,0,0,1-1.47-2l0,43.21v0Z"/><path class="cls-19" d="M12.77,137a2.25,2.25,0,0,1-1-1.76l0,43.21a2.25,2.25,0,0,0,1.08,1.8Z"/><path class="cls-20" d="M107.82,136.86V180a2.15,2.15,0,0,0,.84-1.59l0-43.21A2.18,2.18,0,0,1,107.82,136.86Z"/></g></g></svg>