<svg xmlns="http://www.w3.org/2000/svg" xmlns:xlink="http://www.w3.org/1999/xlink" viewBox="0 0 194.14 162.31"><defs><style>.cls-2{fill:#43dfef}.cls-3{fill:#6ee5f9}.cls-4{fill:#221e1f}.cls-18{fill:#fff}.cls-20{fill:#b7bfb4}.cls-21{fill:#f4f4f4}.cls-25{fill:url(#linear-gradient-7)}</style><linearGradient id="linear-gradient" x1="133.51" y1="115.94" x2="187.86" y2="115.94" gradientUnits="userSpaceOnUse"><stop offset="0" stop-color="#7827a8"/><stop offset=".33" stop-color="#6d32b0"/><stop offset=".9" stop-color="#5050c7"/><stop offset="1" stop-color="#4a56cb"/></linearGradient><linearGradient id="linear-gradient-2" x1="133.44" y1="133.49" x2="187.79" y2="133.49" gradientUnits="userSpaceOnUse"><stop offset="0" stop-color="#611f87"/><stop offset=".38" stop-color="#562a90"/><stop offset="1" stop-color="#3c46a6"/></linearGradient><linearGradient id="linear-gradient-3" x1="133.51" y1="60.32" x2="187.86" y2="60.32" xlink:href="#linear-gradient"/><linearGradient id="linear-gradient-4" x1="133.38" y1="89.03" x2="187.86" y2="89.03" xlink:href="#linear-gradient-2"/><clipPath id="clip-path"><path d="M140.58 54.05a1.47 1.47 0 0 1-.45-.77l.07-23.84 25.71 14.84a1.61 1.61 0 0 1 .44.77l-.07 23.84z" fill="none"/></clipPath><linearGradient id="linear-gradient-5" x1="3.74" y1="73.93" x2="108.02" y2="73.93" xlink:href="#linear-gradient-2"/><linearGradient id="linear-gradient-6" x1="111.21" y1="118.47" x2="54.28" y2="72.65" gradientUnits="userSpaceOnUse"><stop offset="0" stop-color="#6ee8fd"/><stop offset=".09" stop-color="#6ee8fd" stop-opacity=".96"/><stop offset=".24" stop-color="#6ee8fd" stop-opacity=".84"/><stop offset=".45" stop-color="#6ee8fd" stop-opacity=".64"/><stop offset=".69" stop-color="#6ee8fd" stop-opacity=".38"/><stop offset=".97" stop-color="#6ee8fd" stop-opacity=".04"/><stop offset="1" stop-color="#6ee8fd" stop-opacity="0"/></linearGradient><linearGradient id="linear-gradient-7" x1="93.43" y1="99.54" x2="45.61" y2="61.03" xlink:href="#linear-gradient-6"/></defs><g id="Layer_2" data-name="Layer 2"><g id="OBJECTS"><path class="cls-2" d="M145.36 107c-2.2-1.28-5.24-1.1-8.6.84-6.67 3.85-12.07 13.19-12 20.86 0 3.81 1.36 6.49 3.53 7.75l3.83 2.23c-2.17-1.26-3.51-3.94-3.52-7.75 0-7.67 5.37-17 12-20.86 3.36-1.94 6.41-2.12 8.6-.85z"/><ellipse class="cls-3" cx="140.63" cy="123.97" rx="17.04" ry="9.87" transform="rotate(-59.84 140.62 123.973)"/><path class="cls-4" d="M135.25 134.08c-.42 0-.5-.1-.59-.22a5.06 5.06 0 0 1-.67-2.93c0-5.71 4.34-13.26 9.32-16.13a5.71 5.71 0 0 1 2.71-.93c.41 0 .5.1.59.22a5 5 0 0 1 .67 2.92c0 5.72-4.34 13.26-9.33 16.14a5.66 5.66 0 0 1-2.7.93z"/><path class="cls-3" d="M186.3 96.22c2.74 1.58 2.76 4.15 0 5.73l-13.69 8a10.91 10.91 0 0 1-9.89 0l-27.68-16c-2.74-1.58-2.76-4.15 0-5.73l13.69-8a10.87 10.87 0 0 1 9.9 0z"/><path class="cls-3" d="M186.3 92.89c2.74 1.59 2.76 4.15 0 5.74l-13.69 8a10.91 10.91 0 0 1-9.89 0l-27.68-16c-2.74-1.59-2.76-4.15 0-5.73l13.69-8a10.93 10.93 0 0 1 9.9 0z"/><path d="M185.83 117.07c2.69 1.55 2.71 4.07 0 5.62l-13.43 7.81a10.68 10.68 0 0 1-9.72 0l-27.17-15.69c-2.7-1.55-2.71-4.07 0-5.63l13.44-7.8a10.68 10.68 0 0 1 9.72 0z" fill="url(#linear-gradient)"/><path d="M185.86 122.69l-13.43 7.81a10.68 10.68 0 0 1-9.72 0l-27.17-15.69a3.41 3.41 0 0 1-2-2.83l-.07 23.84a3.77 3.77 0 0 0 2 2.32l27.17 15.7a10.74 10.74 0 0 0 9.72 0l13.37-7.84a3.43 3.43 0 0 0 2-2.8l.06-22.82a3.69 3.69 0 0 1-1.93 2.31z" fill="url(#linear-gradient-2)"/><path d="M181 96.06c2.17 1.25 2.18 3.29 0 4.54l-10.85 6.31a8.62 8.62 0 0 1-7.85 0l-22-12.68c-2.18-1.25-2.19-3.29 0-4.54l10.86-6.31a8.62 8.62 0 0 1 7.85 0z" fill="#252123"/><path class="cls-3" d="M181 100.6l-10.85 6.31a8.62 8.62 0 0 1-7.85 0l-22-12.68a2.75 2.75 0 0 1-1.64-2.29l-.06 19.27a3.05 3.05 0 0 0 1.59 1.88l22 12.68a8.69 8.69 0 0 0 7.85 0l10.86-6.31a2.76 2.76 0 0 0 1.61-2.26l.05-18.44a3 3 0 0 1-1.56 1.84z"/><path d="M185.83 61.45c2.69 1.55 2.71 4.07 0 5.63l-13.43 7.81a10.74 10.74 0 0 1-9.72 0L135.54 59.2c-2.7-1.56-2.71-4.08 0-5.63l13.44-7.81a10.74 10.74 0 0 1 9.72 0z" fill="url(#linear-gradient-3)"/><path d="M185.86 67.08l-13.43 7.81a10.74 10.74 0 0 1-9.72 0L135.54 59.2a3.43 3.43 0 0 1-2-2.84l-.16 45.64a3.43 3.43 0 0 0 2 2.84l27.17 15.69a10.74 10.74 0 0 0 9.72 0l13.43-7.81a3.4 3.4 0 0 0 2-2.8l.13-45.64a3.4 3.4 0 0 1-1.97 2.8z" fill="url(#linear-gradient-4)"/><path class="cls-3" d="M142.54 71.05v2.22l-3.73-2.15.01-2.22 3.72 2.15z"/><path fill="#83f1fc" d="M139.75 68.36l-.93.54 3.72 2.15.93-.54-3.72-2.15z"/><path fill="#65ddea" d="M143.47 70.51l-.93.54v2.22l.93-.55v-2.21z"/><path fill="#c909bc" d="M150.25 75.5v2.21l-3.73-2.15.01-2.21 3.72 2.15z"/><path fill="#e505e0" d="M147.46 72.81l-.93.54 3.72 2.15.93-.54-3.72-2.15z"/><path fill="#b208ae" d="M151.18 74.96l-.93.54v2.21l.93-.54v-2.21z"/><path fill="#edda17" d="M157.96 79.97l-.01 2.22-3.72-2.15.01-2.22 3.72 2.15z"/><path fill="#ffe94d" d="M155.17 77.28l-.93.54 3.72 2.15.93-.54-3.72-2.15z"/><path fill="#d6bf13" d="M158.89 79.43l-.93.54-.01 2.22.94-.55v-2.21z"/><path class="cls-3" d="M186.33 98.63l-13.69 8a10.91 10.91 0 0 1-9.89 0l-27.68-16a3.53 3.53 0 0 1-2.07-2.92v2a3.93 3.93 0 0 0 1.94 2.15l27.68 16a10.91 10.91 0 0 0 9.89 0l13.69-8a3.46 3.46 0 0 0 2-2.85v-.56a4 4 0 0 1-1.87 2.18z"/><path class="cls-3" d="M187.78 94.15v1.17a2.32 2.32 0 0 1 .06.45 3 3 0 0 1-1.77 2.4l-13.69 8a10.44 10.44 0 0 1-9.37 0l-27.68-16a3.53 3.53 0 0 1-1.7-1.82 1.56 1.56 0 0 1-.06-.26 8.52 8.52 0 0 1-.14-1.71c-.89 1.44-.35 3.11 1.65 4.26l27.68 16a10.91 10.91 0 0 0 9.89 0l13.69-8c2.07-1.22 2.55-3.01 1.44-4.49z"/><path class="cls-3" d="M188 98.05a4.13 4.13 0 0 0 .33-1.28v-1l-.33.87v1.41zm-1.67 3.95l-13.69 8a10.91 10.91 0 0 1-9.89 0l-27.68-16a3.5 3.5 0 0 1-2.07-3v2a4 4 0 0 0 1.94 2.15l27.68 16a10.91 10.91 0 0 0 9.89 0l13.69-8a3.48 3.48 0 0 0 2-2.85v-.56a4 4 0 0 1-1.87 2.26z"/><path class="cls-3" d="M187.78 97.48v1.16a2.32 2.32 0 0 1 .06.46 3 3 0 0 1-1.77 2.4l-13.69 8a10.36 10.36 0 0 1-9.37 0l-27.68-16a3.5 3.5 0 0 1-1.7-1.83 2 2 0 0 1-.06-.27 8.52 8.52 0 0 1-.14-1.71c-.89 1.43-.35 3.1 1.65 4.25l27.68 16a10.91 10.91 0 0 0 9.89 0l13.69-8c2.07-1.2 2.55-2.94 1.44-4.46z"/><path class="cls-3" d="M188 101.38a4.14 4.14 0 0 0 .33-1.29v-1l-.33.87-.07 1.46z"/><path class="cls-2" d="M186.79 129.81c-2.2-1.28-5.24-1.1-8.6.84-6.68 3.86-12.07 13.2-12.05 20.87 0 3.81 1.36 6.49 3.53 7.75l3.83 2.23c-2.17-1.26-3.52-3.95-3.53-7.76 0-7.67 5.38-17 12.05-20.86 3.36-1.94 6.4-2.12 8.6-.84z"/><path class="cls-3" d="M182 132.88c6.67-3.85 12.1-.76 12.12 6.91s-5.37 17-12 20.86-12.1.76-12.13-6.91 5.36-17.01 12.01-20.86z"/><path class="cls-4" d="M176.68 156.87c-.42 0-.5-.1-.6-.22a5.07 5.07 0 0 1-.67-2.92c0-5.72 4.35-13.26 9.33-16.14a5.66 5.66 0 0 1 2.7-.93c.42 0 .5.1.6.22a5.12 5.12 0 0 1 .67 2.92c0 5.72-4.35 13.27-9.33 16.14a5.69 5.69 0 0 1-2.7.93zm-9.51-115.15A4.12 4.12 0 0 1 169 45v26.22c0 1.19-.84 1.67-1.88 1.07l-27.69-16a4.12 4.12 0 0 1-1.87-3.23l.07-26.27c0-1.19.85-1.67 1.89-1.07z"/><path class="cls-3" d="M180.53 34l-27.69-16a1.29 1.29 0 0 0-1.33-.13l-13.37 7.73a1.33 1.33 0 0 1 1.34.13l27.69 16A4.12 4.12 0 0 1 169 45v26.22a1.3 1.3 0 0 1-.55 1.2l13.37-7.77a1.31 1.31 0 0 0 .55-1.2l.07-26.26a4.13 4.13 0 0 0-1.91-3.19z"/><path class="cls-18" d="M167.36 41.76a4.13 4.13 0 0 1 1.9 3.28l-.07 26.71c0 1.21-.86 1.69-1.91 1.09l-28.16-16.26a4.18 4.18 0 0 1-1.9-3.29l.07-26.7c0-1.21.86-1.7 1.92-1.09z"/><path class="cls-18" d="M169.42 40.56l-28.16-16.25a1.35 1.35 0 0 0-1.36-.14l-2.05 1.2a1.34 1.34 0 0 1 1.36.13l28.16 16.26a4.15 4.15 0 0 1 1.89 3.24l-.07 26.71a1.33 1.33 0 0 1-.56 1.22l2.06-1.19a1.35 1.35 0 0 0 .55-1.23l.08-26.7a4.21 4.21 0 0 0-1.9-3.25z"/><path class="cls-4" d="M140.58 54.05a1.47 1.47 0 0 1-.45-.77l.07-23.84 25.71 14.84a1.61 1.61 0 0 1 .44.77l-.07 23.84z"/><g clip-path="url(#clip-path)"><path class="cls-20" d="M153 40.69a11 11 0 0 1 5 8.61v2.24c0 3.17-2.25 4.44-5 2.85a11 11 0 0 1-5-8.61v-2.24c0-3.17 2.25-4.44 5-2.85z"/><path class="cls-20" d="M157.54 55.85a16.91 16.91 0 0 1 3.37 9.45v2.44L145 58.55V56.1c0-3.09 1.36-5.06 3.42-5.53a12.59 12.59 0 0 0 4.56 5c1.81 1.09 3.45 1.1 4.56.28z"/></g><path class="cls-21" d="M179 79.72a1.33 1.33 0 0 0-1.34.13 4.13 4.13 0 0 0-1.87 3.24 1.31 1.31 0 0 0 .55 1.21l1.46.85a1.33 1.33 0 0 1-.55-1.21 4.14 4.14 0 0 1 1.88-3.24 1.31 1.31 0 0 1 1.33-.13z"/><path class="cls-18" d="M179.11 80.7c1-.6 1.88-.12 1.88 1.08a4.15 4.15 0 0 1-1.87 3.22c-1 .6-1.88.12-1.89-1.08a4.14 4.14 0 0 1 1.88-3.22z"/><path class="cls-21" d="M179 89.23a1.33 1.33 0 0 0-1.34.13 4.13 4.13 0 0 0-1.87 3.24 1.32 1.32 0 0 0 .55 1.21l1.46.85a1.34 1.34 0 0 1-.55-1.21 4.14 4.14 0 0 1 1.88-3.24 1.31 1.31 0 0 1 1.33-.13z"/><path class="cls-18" d="M179.11 90.21c1-.6 1.88-.12 1.88 1.07a4.16 4.16 0 0 1-1.87 3.25c-1 .59-1.88.11-1.89-1.08a4.14 4.14 0 0 1 1.88-3.24z"/><path fill="url(#linear-gradient-5)" d="M107.79 2.94l.23 81.91L3.97 144.93l-.23-81.92L107.79 2.94z"/><path class="cls-4" d="M111.53 5.68L111.51 0 0 64.38l.02 5.68L111.51 5.69l.02-.01z"/><path d="M48.8 70.73l.1 33.78-6.92 3.99-.09-33.78 6.91-3.99zm9.52 2.84l.07 25.46-6.91 3.99-.07-25.46 6.91-3.99zm9.44-27.13l.13 47.11-6.91 3.98-.13-47.1 6.91-3.99zm15.55-6.64l.01 2.92-5.18 2.99-.01-2.92 5.18-2.99zm.03 9.53v2.92l-5.18 2.99v-2.92l5.18-2.99zm.02 9.52l.01 2.92-5.18 2.99-.01-2.92 5.18-2.99zm.03 9.52l.01 2.93-5.18 2.99-.01-2.93 5.18-2.99zm.03 9.53l.01 2.92-5.18 2.99-.01-2.92 5.18-2.99z" fill="#c4118b"/><path class="cls-4" d="M111.53 86.69l-.02-5.69L0 145.38l.02 5.68 111.49-64.37h.02z"/><path fill="url(#linear-gradient-6)" d="M21.38 114.67l129.33-24.72-60.33-56.76L21.26 73.1l.12 41.57z"/><path class="cls-25" d="M17.96 96.34l108.66-20.77-50.69-47.69-58.07 33.53.1 34.93z"/><path class="cls-25" d="M17.96 96.34l108.66-20.77-50.69-47.69-58.07 33.53.1 34.93z"/></g></g></svg>