<svg xmlns="http://www.w3.org/2000/svg" xmlns:xlink="http://www.w3.org/1999/xlink" viewBox="0 0 164.19 155.07"><defs><style>.cls-1{fill:url(#linear-gradient);}.cls-2{fill:#27f5ff;}.cls-3{fill:url(#linear-gradient-2);}.cls-4{fill:url(#linear-gradient-3);}.cls-5{fill:url(#linear-gradient-4);}.cls-6{fill:#6ee8fd;}.cls-7{fill:url(#linear-gradient-5);}.cls-8{fill:url(#linear-gradient-6);}.cls-9{fill:url(#linear-gradient-7);}.cls-10{fill:url(#linear-gradient-8);}.cls-11{fill:url(#linear-gradient-9);}.cls-12{fill:#6ee5f9;}.cls-13{fill:url(#linear-gradient-10);}.cls-14{fill:#c4118b;}.cls-15{fill:url(#linear-gradient-11);}.cls-16{fill:url(#linear-gradient-12);}.cls-17{fill:url(#linear-gradient-13);}.cls-18{fill:url(#linear-gradient-14);}.cls-19{fill:url(#linear-gradient-15);}.cls-20{fill:url(#linear-gradient-16);}.cls-21{fill:url(#linear-gradient-17);}.cls-22{fill:url(#linear-gradient-18);}.cls-23{fill:url(#linear-gradient-19);}.cls-24{fill:url(#linear-gradient-20);}.cls-25{fill:url(#linear-gradient-21);}.cls-26{fill:url(#linear-gradient-22);}</style><linearGradient id="linear-gradient" x1="0.01" y1="102.46" x2="164.19" y2="102.46" gradientUnits="userSpaceOnUse"><stop offset="0" stop-color="#7827a8"/><stop offset="0.33" stop-color="#6d32b0"/><stop offset="0.9" stop-color="#5050c7"/><stop offset="1" stop-color="#4a56cb"/></linearGradient><linearGradient id="linear-gradient-2" y1="120.24" x2="164.19" y2="120.24" gradientUnits="userSpaceOnUse"><stop offset="0" stop-color="#611f87"/><stop offset="0.38" stop-color="#562a90"/><stop offset="1" stop-color="#3c46a6"/></linearGradient><linearGradient id="linear-gradient-3" x1="18.3" y1="142.39" x2="83.94" y2="101.31" gradientUnits="userSpaceOnUse"><stop offset="0" stop-color="#c4118b"/><stop offset="0.08" stop-color="#b9148c"/><stop offset="0.22" stop-color="#9b1b8e"/><stop offset="0.4" stop-color="#6a2891"/><stop offset="0.48" stop-color="#522e93"/><stop offset="0.6" stop-color="#5855a9"/><stop offset="0.87" stop-color="#67b6df"/><stop offset="1" stop-color="#6ee5f9"/></linearGradient><linearGradient id="linear-gradient-4" x1="102.79" y1="52.04" x2="65.14" y2="143.79" gradientUnits="userSpaceOnUse"><stop offset="0" stop-color="#1b2268"/><stop offset="0.31" stop-color="#1a2164"/><stop offset="0.59" stop-color="#171d59"/><stop offset="0.87" stop-color="#121646"/><stop offset="0.99" stop-color="#0f123b"/></linearGradient><linearGradient id="linear-gradient-5" x1="81.7" y1="127.02" x2="81.7" y2="29.89" gradientUnits="userSpaceOnUse"><stop offset="0" stop-color="#6ee8fd"/><stop offset="0.09" stop-color="#6ee8fd" stop-opacity="0.96"/><stop offset="0.24" stop-color="#6ee8fd" stop-opacity="0.84"/><stop offset="0.45" stop-color="#6ee8fd" stop-opacity="0.64"/><stop offset="0.69" stop-color="#6ee8fd" stop-opacity="0.38"/><stop offset="0.97" stop-color="#6ee8fd" stop-opacity="0.04"/><stop offset="1" stop-color="#6ee8fd" stop-opacity="0"/></linearGradient><linearGradient id="linear-gradient-6" x1="52.74" y1="21.87" x2="115.7" y2="21.87" xlink:href="#linear-gradient"/><linearGradient id="linear-gradient-7" x1="43.92" y1="39.15" x2="119.49" y2="39.15" xlink:href="#linear-gradient-2"/><linearGradient id="linear-gradient-8" x1="43.92" y1="33.08" x2="119.49" y2="33.08" xlink:href="#linear-gradient-3"/><linearGradient id="linear-gradient-9" x1="43.92" y1="45.23" x2="119.45" y2="45.23" xlink:href="#linear-gradient-3"/><linearGradient id="linear-gradient-10" x1="52.74" y1="21.87" x2="115.7" y2="21.87" gradientUnits="userSpaceOnUse"><stop offset="0" stop-color="#c42992"/><stop offset="0.08" stop-color="#b92992"/><stop offset="0.22" stop-color="#9b2b92"/><stop offset="0.4" stop-color="#6a2d93"/><stop offset="0.48" stop-color="#522e93"/><stop offset="0.6" stop-color="#6055a8"/><stop offset="0.86" stop-color="#82b6dc"/><stop offset="1" stop-color="#95ebf9"/></linearGradient><linearGradient id="linear-gradient-11" x1="49.89" y1="83.98" x2="49.89" y2="44.33" gradientUnits="userSpaceOnUse"><stop offset="0" stop-color="#6ee8fd" stop-opacity="0"/><stop offset="0.03" stop-color="#6ee8fd" stop-opacity="0.04"/><stop offset="0.31" stop-color="#6ee8fd" stop-opacity="0.38"/><stop offset="0.55" stop-color="#6ee8fd" stop-opacity="0.64"/><stop offset="0.76" stop-color="#6ee8fd" stop-opacity="0.84"/><stop offset="0.91" stop-color="#6ee8fd" stop-opacity="0.96"/><stop offset="1" stop-color="#6ee8fd"/></linearGradient><linearGradient id="linear-gradient-12" x1="54.05" y1="103.38" x2="54.05" y2="68.95" xlink:href="#linear-gradient-11"/><linearGradient id="linear-gradient-13" x1="54.05" y1="63.75" x2="54.05" y2="58.3" xlink:href="#linear-gradient-11"/><linearGradient id="linear-gradient-14" x1="67.03" y1="105.68" x2="67.03" y2="56.46" xlink:href="#linear-gradient-11"/><linearGradient id="linear-gradient-15" x1="78.12" y1="111.21" x2="78.12" y2="70.85" xlink:href="#linear-gradient-11"/><linearGradient id="linear-gradient-16" x1="89.65" y1="97.47" x2="89.65" y2="60.98" xlink:href="#linear-gradient-11"/><linearGradient id="linear-gradient-17" x1="113.15" y1="97.91" x2="113.15" y2="45.26" xlink:href="#linear-gradient-11"/><linearGradient id="linear-gradient-18" x1="101.37" y1="100.28" x2="101.37" y2="57.01" xlink:href="#linear-gradient-11"/><linearGradient id="linear-gradient-19" x1="95.14" y1="59.45" x2="95.14" y2="54.66" xlink:href="#linear-gradient-11"/><linearGradient id="linear-gradient-20" x1="74.31" y1="65.94" x2="74.31" y2="60.96" xlink:href="#linear-gradient-11"/><linearGradient id="linear-gradient-21" x1="107.48" y1="73.34" x2="107.48" y2="68.44" xlink:href="#linear-gradient-11"/><linearGradient id="linear-gradient-22" x1="60.23" y1="77.85" x2="60.23" y2="71.9" xlink:href="#linear-gradient-11"/></defs><title>Asset 4</title><g id="Layer_2" data-name="Layer 2"><g id="OBJECTS"><path class="cls-1" d="M160.48,80.22,120.23,57c-4.93-2.85-12.89-2.85-17.79,0L3.67,114.39c-4.9,2.84-4.87,7.46.06,10.3L44,147.93c4.93,2.84,12.9,2.84,17.79,0l98.78-57.41C165.43,87.68,165.41,83.07,160.48,80.22Z"/><path class="cls-2" d="M145.07,75.75a1.65,1.65,0,0,1,1.47,0c.41.23.41.61,0,.85a1.63,1.63,0,0,1-1.46,0C144.67,76.36,144.67,76,145.07,75.75Z"/><path class="cls-2" d="M129.87,67a1.12,1.12,0,0,1,1,0l12.32,7.12a.31.31,0,0,1,0,.58,1.1,1.1,0,0,1-1,0l-12.33-7.11A.31.31,0,0,1,129.87,67Z"/><path class="cls-3" d="M160.54,90.52,61.76,147.93c-4.89,2.84-12.86,2.84-17.79,0L3.73,124.69C1.25,123.26,0,121.38,0,119.5v5c0,1.88,1.23,3.76,3.71,5.19L44,152.93c4.93,2.85,12.89,2.85,17.79,0l98.77-57.4c2.43-1.41,3.65-3.26,3.66-5.11v-5C164.19,87.26,163,89.11,160.54,90.52Z"/><path class="cls-4" d="M157.71,81.83c3.39,2,3.41,5.13,0,7.09L59,146.32a13.47,13.47,0,0,1-12.24,0L6.49,123.08c-3.39-2-3.41-5.13,0-7.09l98.78-57.4a13.47,13.47,0,0,1,12.24,0l4.32,2.5c.8.46.81,1.21,0,1.67-1.55.9-1.54,2.36,0,3.26l23.06,13.31a6.19,6.19,0,0,0,5.62,0,3.2,3.2,0,0,1,2.89,0Z"/><path class="cls-5" d="M52.87,146.61a11.21,11.21,0,0,1-5.54-1.31L7.08,122.07c-1.25-.73-2-1.65-2-2.54A3.26,3.26,0,0,1,7,117l98.78-57.4a12.33,12.33,0,0,1,11.06,0l4,2.33a3,3,0,0,0-1.44,2.45A3.16,3.16,0,0,0,121.23,67l23.06,13.31a7.38,7.38,0,0,0,6.8,0,1.75,1.75,0,0,1,.85-.19,1.82,1.82,0,0,1,.86.19l4.33,2.5a3.29,3.29,0,0,1,2,2.54,3.24,3.24,0,0,1-1.93,2.51L58.39,145.3A11.37,11.37,0,0,1,52.87,146.61Z"/><path class="cls-6" d="M118.34,100.94c1.52.87,1.53,2.29,0,3.16L84.57,123.74a6,6,0,0,1-5.46,0l-34-19.64c-1.52-.87-1.52-2.29,0-3.16L78.87,81.3a6,6,0,0,1,5.46,0Z"/><path class="cls-7" d="M119.49,29.84H43.92v72.62h0a1.88,1.88,0,0,0,1.14,1.64l34,19.64a6,6,0,0,0,5.46,0l33.79-19.64a1.86,1.86,0,0,0,1.12-1.64h0Z"/><path class="cls-8" d="M118.34,20.29c1.52.88,1.53,2.29,0,3.17L84.57,43.09a6,6,0,0,1-5.46,0l-34-19.63c-1.52-.88-1.52-2.29,0-3.17L78.87.66a6,6,0,0,1,5.46,0Z"/><path class="cls-9" d="M118.36,23.46,84.57,43.09a6,6,0,0,1-5.46,0l-34-19.63A1.92,1.92,0,0,1,44,21.86l0,12.68a1.93,1.93,0,0,0,1.14,1.59l34,19.64a6.06,6.06,0,0,0,5.47,0l33.79-19.64a1.92,1.92,0,0,0,1.12-1.57l0-12.67A2,2,0,0,1,118.36,23.46Z"/><path class="cls-10" d="M44,22.42A1.92,1.92,0,0,0,45.1,24l34,19.64a6,6,0,0,0,5.46,0L118.36,24a1.92,1.92,0,0,0,1.12-1.53v-.59a2,2,0,0,1-1.13,1.57L84.57,43.09a6,6,0,0,1-5.46,0l-34-19.63A1.92,1.92,0,0,1,44,21.86l0,12.68v0Z"/><path class="cls-11" d="M119.45,34a1.92,1.92,0,0,1-1.12,1.57L84.54,55.25a6.06,6.06,0,0,1-5.47,0l-34-19.64a2,2,0,0,1-1.14-1.56v.49a1.93,1.93,0,0,0,1.14,1.59l34,19.64a6.06,6.06,0,0,0,5.47,0l33.79-19.64a1.92,1.92,0,0,0,1.12-1.57V34Z"/><path class="cls-12" d="M119.05,35.55a1.55,1.55,0,0,0,.4-1l0-12.67a1.6,1.6,0,0,1-.44,1Z"/><path class="cls-13" d="M118.34,20.29,84.33.66a6,6,0,0,0-5.46,0L45.08,20.29c-1.5.88-1.5,2.29,0,3.17l34,19.63a6,6,0,0,0,5.46,0l33.79-19.63C119.87,22.58,119.86,21.17,118.34,20.29ZM118.1,23,84.31,42.64a5.47,5.47,0,0,1-4.94,0L45.36,23a1.46,1.46,0,0,1-.88-1.13,1.45,1.45,0,0,1,.86-1.13L79.13,1.11a5.47,5.47,0,0,1,4.94,0l34,19.63a1.49,1.49,0,0,1,.88,1.14A1.45,1.45,0,0,1,118.1,23Z"/><path class="cls-2" d="M100.16,21.83a3.15,3.15,0,0,0-1.5-1.61,8.68,8.68,0,0,0-2.28-.85,3.18,3.18,0,0,0-1.8-2.84,8.21,8.21,0,0,0-3-.94c0-.36-.09-1.08-1.2-1.71a6,6,0,0,0-1.26-.53A7.6,7.6,0,0,0,85.66,13a5.74,5.74,0,0,0-.76.18,2.93,2.93,0,0,0-1.08-1,6.71,6.71,0,0,0-2.34-.76,7.1,7.1,0,0,0-4.63.62,6.51,6.51,0,0,0-5-.5,4.23,4.23,0,0,0-2.44,1.49,1.24,1.24,0,0,0-.21.59,4.72,4.72,0,0,0-2.69,1.1,1.85,1.85,0,0,0-.16,2.62,1.75,1.75,0,0,0-.42.66,1.86,1.86,0,0,0,.65,2,4,4,0,0,0,.87.67,7.74,7.74,0,0,0,3.26.86c-.24,1.12.29,2.06,1.56,2.79a10.26,10.26,0,0,0,3.12,1.06,1.33,1.33,0,0,0-.2,1.82,4.11,4.11,0,0,0-1.27,2.9,2.55,2.55,0,0,0,1,2,3.13,3.13,0,0,0,1.51.16,1,1,0,0,0,.69-.44,4.85,4.85,0,0,1,2.19-2l.62.15a5.41,5.41,0,0,0,1.54,1.3,9.77,9.77,0,0,0,6.1.84,8.68,8.68,0,0,0,5.62-.25A3.85,3.85,0,0,0,95.23,30a1.47,1.47,0,0,0,.14-.77c2.63-1.05,3.4-2.21,3.57-3a1.92,1.92,0,0,0-.21-1.4C99.27,24.51,100.73,23.44,100.16,21.83ZM76.35,31.67l0,0a.29.29,0,0,1-.21.14,1.85,1.85,0,0,1-.78-.1,2.67,2.67,0,0,1-.7-1.66,3.39,3.39,0,0,1,.89-2.32l.11.13.21.22a5.74,5.74,0,0,0,1,.73l.21.11.16.09.06,0a9.58,9.58,0,0,0,1.24.51A5.34,5.34,0,0,0,76.35,31.67Zm22.06-7.29a5,5,0,0,0-1.31-1.06,7.48,7.48,0,0,0-2.34-.85.48.48,0,0,0-.48.14c0,.09,0,.17.09.23a.52.52,0,0,0,.15.06,6.27,6.27,0,0,1,2,.73,4.1,4.1,0,0,1,1.4,1.25s1.55,2.09-2.77,3.9a4,4,0,0,0-1.29-1.12,6.91,6.91,0,0,0-2.39-.81c-.2,0-.42,0-.47.15a.16.16,0,0,0,.1.22.38.38,0,0,0,.16.06,6.23,6.23,0,0,1,2.07.69,3,3,0,0,1,1.24,1.21c0,.12.23,1.3-1.93,2.3a7.11,7.11,0,0,1-4.25.33,4.31,4.31,0,0,0,1.91-1.29c.06-.09,0-.18-.09-.25a.4.4,0,0,0-.13,0,.49.49,0,0,0-.49.12,4.59,4.59,0,0,1-2.21,1.28A8.74,8.74,0,0,1,82,30.92a4.8,4.8,0,0,1-1.46-1.27s-.62-.71.56-1.71c.1-.09.08-.21-.1-.31a.59.59,0,0,0-.54.06c-.83.71-.91,1.31-.82,1.7A9.62,9.62,0,0,1,78.5,29l-.6-.25a.39.39,0,0,0-.13-.06l-.13-.07-.13-.07-.12-.07a4.27,4.27,0,0,1-1.07-.83l-.11-.14a2.7,2.7,0,0,1-.29-.4,1.11,1.11,0,0,1,.45-1.77,7.4,7.4,0,0,1,4.75-1.7c.21,0,.38-.1.37-.23a.18.18,0,0,0-.11-.15.49.49,0,0,0-.28-.06A8.42,8.42,0,0,0,75.87,25a9.87,9.87,0,0,1-3.11-1,2.2,2.2,0,0,1-1.33-2.46c.95,0,3.36-.1,4.21-1.68,0-.08,0-.16-.1-.22l-.16-.05a.47.47,0,0,0-.48.14c-.85,1.6-3.62,1.36-3.82,1.35a6.88,6.88,0,0,1-3.15-.74,3.55,3.55,0,0,1-.73-.57c-.88-.91-.66-1.6-.42-2l.1.06a3.59,3.59,0,0,0,2.56.36c.19-.05.3-.17.22-.29a.24.24,0,0,0-.09-.08.59.59,0,0,0-.4-.05,2.43,2.43,0,0,1-1.74-.25,1.68,1.68,0,0,1-.36-.27C67,17.22,66,16,67.1,15a3.77,3.77,0,0,1,2.12-.91,2.36,2.36,0,0,0,1,1.28.64.64,0,0,0,.54,0,.17.17,0,0,0,0-.32,2,2,0,0,1-.83-1.23s-.27-1.07,2.24-1.86a5.32,5.32,0,0,1,4.19.45l.2.13s1.88,1.29.77,2.46c-.09.09-.06.19.06.26l.09,0a.54.54,0,0,0,.52-.09,1.47,1.47,0,0,0,.08-2,3.34,3.34,0,0,0-.73-.76,4.29,4.29,0,0,1,.87-.37,6.6,6.6,0,0,1,3.06-.16,5.81,5.81,0,0,1,2,.64,2,2,0,0,1,1,1.06,2.9,2.9,0,0,1-.82,2c-.08.09,0,.19.07.26l.1,0a.57.57,0,0,0,.52-.1,3.27,3.27,0,0,0,.9-2.14,5.32,5.32,0,0,1,3.65.06,5.24,5.24,0,0,1,1.08.45c1.21.7,1,1.5.94,1.57a3.08,3.08,0,0,1-2,2.24c-.16.08-.18.22,0,.33a.61.61,0,0,0,.51,0A3.76,3.76,0,0,0,91.45,16a7.45,7.45,0,0,1,2.59.82,2.8,2.8,0,0,1,1.57,2.45h-.72a3.5,3.5,0,0,0-1.83.47c-.13.09-.11.21.06.31a.6.6,0,0,0,.54,0,5.06,5.06,0,0,1,2.25-.3,7.5,7.5,0,0,1,2.21.79,2.68,2.68,0,0,1,1.29,1.37A2.17,2.17,0,0,1,98.41,24.38Z"/><path class="cls-2" d="M85,17.94a.16.16,0,0,1,.1.11c0,.12-.08.24-.29.26a5.76,5.76,0,0,1-3.66-.57,3.4,3.4,0,0,1-1.42-1.47c0-.12.08-.24.29-.26a.53.53,0,0,1,.36.06.19.19,0,0,1,.1.1,2.76,2.76,0,0,0,1.18,1.24,4.67,4.67,0,0,0,3,.47A.52.52,0,0,1,85,17.94Z"/><path class="cls-2" d="M77.8,17.72A1.39,1.39,0,0,1,78.64,19c0,.12-.19.22-.4.21a.53.53,0,0,1-.26-.06.18.18,0,0,1-.11-.17,1,1,0,0,0-.61-.91,4,4,0,0,0-.87-.34,9.26,9.26,0,0,0-1.67-.27.56.56,0,0,1-.24-.07.17.17,0,0,1-.11-.17c0-.13.21-.22.42-.21A7.59,7.59,0,0,1,77.8,17.72Z"/><path class="cls-2" d="M88.63,21.14c.16.11.15.25,0,.33-1.36.69-1.68,1.35-1.66,1.85a.4.4,0,0,1,.06.11.14.14,0,0,1,0,.14,1.42,1.42,0,0,0,.43.64c.13.1.09.24-.08.31a.58.58,0,0,1-.5,0l0,0a1.8,1.8,0,0,1-.59-1A4.2,4.2,0,0,0,84.73,22a5.07,5.07,0,0,0-2.19-.64c-2.79-.2-3.88.58-3.93.62a.63.63,0,0,1-.54,0l0,0c-.14-.08-.16-.2,0-.29s1.38-1,4.63-.79a6,6,0,0,1,2.65.77,4.63,4.63,0,0,1,1.12.87,3.79,3.79,0,0,1,1.71-1.43A.63.63,0,0,1,88.63,21.14Z"/><path class="cls-14" d="M44.3,22.79a1.51,1.51,0,0,1-.34-.93l0,12.68a1.55,1.55,0,0,0,.38,1Z"/><path class="cls-15" d="M49.89,82.91h0a1,1,0,0,1-1-1V45.27a1,1,0,0,1,1-1h0a1,1,0,0,1,1,1V81.94A1,1,0,0,1,49.89,82.91Z"/><path class="cls-16" d="M54.05,102.46h0a.37.37,0,0,1-.37-.38V69.3a.37.37,0,0,1,.37-.37h0a.38.38,0,0,1,.37.37v32.78A.38.38,0,0,1,54.05,102.46Z"/><rect class="cls-17" x="53.68" y="58.3" width="0.74" height="5.31" rx="0.33" ry="0.33"/><path class="cls-18" d="M67,104.35h0a1.23,1.23,0,0,1-1.23-1.23V57.66A1.23,1.23,0,0,1,67,56.43h0a1.23,1.23,0,0,1,1.23,1.23v45.46A1.23,1.23,0,0,1,67,104.35Z"/><path class="cls-19" d="M78.12,110.12h0a1.62,1.62,0,0,1-1.62-1.62V72.44a1.63,1.63,0,0,1,1.62-1.62h0a1.62,1.62,0,0,1,1.62,1.62V108.5A1.61,1.61,0,0,1,78.12,110.12Z"/><path class="cls-20" d="M89.65,96.49h0a.91.91,0,0,1-.91-.91V61.86a.91.91,0,0,1,.91-.91h0a.9.9,0,0,1,.9.91V95.58A.9.9,0,0,1,89.65,96.49Z"/><path class="cls-21" d="M113.15,96.49h0a1.26,1.26,0,0,0,1.26-1.26V46.49a1.26,1.26,0,0,0-1.26-1.26h0a1.27,1.27,0,0,0-1.26,1.26V95.23A1.27,1.27,0,0,0,113.15,96.49Z"/><path class="cls-22" d="M101.37,99.11h0A1.07,1.07,0,0,0,102.44,98v-40A1.07,1.07,0,0,0,101.37,57h0a1.07,1.07,0,0,0-1.08,1.07V98A1.08,1.08,0,0,0,101.37,99.11Z"/><path class="cls-23" d="M95.14,59.32h0a.71.71,0,0,1-.71-.71V55.36a.71.71,0,0,1,.71-.71h0a.71.71,0,0,1,.71.71v3.25A.71.71,0,0,1,95.14,59.32Z"/><path class="cls-24" d="M74.31,65.81h0a.71.71,0,0,1-.71-.71V61.66a.71.71,0,0,1,.71-.71h0a.7.7,0,0,1,.7.71V65.1A.7.7,0,0,1,74.31,65.81Z"/><path class="cls-25" d="M107.48,73.2h0a.86.86,0,0,1-.86-.86v-3a.87.87,0,0,1,.86-.87h0a.87.87,0,0,1,.87.87v3A.86.86,0,0,1,107.48,73.2Z"/><path class="cls-26" d="M60.23,77.69h0a.78.78,0,0,1-.78-.79V72.68a.79.79,0,0,1,.78-.79h0a.79.79,0,0,1,.79.79V76.9A.79.79,0,0,1,60.23,77.69Z"/></g></g></svg>