<svg xmlns="http://www.w3.org/2000/svg" xmlns:xlink="http://www.w3.org/1999/xlink" viewBox="0 0 120.41 206.51"><defs><style>.cls-8{fill:url(#linear-gradient-7)}</style><linearGradient id="linear-gradient" x1="11.69" y1="170.86" x2="108.7" y2="170.86" gradientUnits="userSpaceOnUse"><stop offset="0" stop-color="#611f87"/><stop offset=".38" stop-color="#562a90"/><stop offset="1" stop-color="#3c46a6"/></linearGradient><linearGradient id="linear-gradient-2" x1="33.83" y1="135.22" x2="86.54" y2="135.22" gradientUnits="userSpaceOnUse"><stop offset="0" stop-color="#1b2268"/><stop offset=".31" stop-color="#1a2164"/><stop offset=".59" stop-color="#171d59"/><stop offset=".87" stop-color="#121646"/><stop offset=".99" stop-color="#0f123b"/></linearGradient><linearGradient id="linear-gradient-3" x1="33.91" y1="135.21" x2="86.46" y2="135.21" xlink:href="#linear-gradient-2"/><linearGradient id="linear-gradient-4" x1="84.53" y1="171.74" x2="86.54" y2="171.74" xlink:href="#linear-gradient-2"/><linearGradient id="linear-gradient-5" x1="34.24" y1="171.7" x2="36.25" y2="171.7" xlink:href="#linear-gradient-2"/><linearGradient id="linear-gradient-6" x1="60.22" y1="145.95" x2="60.22" y2="90.15" xlink:href="#linear-gradient-2"/><linearGradient id="linear-gradient-7" x1="60.21" y1="207.96" x2="60.21" y2="36.13" gradientUnits="userSpaceOnUse"><stop offset="0" stop-color="#6ee8fd"/><stop offset=".09" stop-color="#6ee8fd" stop-opacity=".96"/><stop offset=".24" stop-color="#6ee8fd" stop-opacity=".84"/><stop offset=".45" stop-color="#6ee8fd" stop-opacity=".64"/><stop offset=".69" stop-color="#6ee8fd" stop-opacity=".38"/><stop offset=".97" stop-color="#6ee8fd" stop-opacity=".04"/><stop offset="1" stop-color="#6ee8fd" stop-opacity="0"/></linearGradient><linearGradient id="linear-gradient-9" x1="84.44" y1="181.23" x2="84.44" y2="81.1" xlink:href="#linear-gradient-7"/><linearGradient id="linear-gradient-10" x1="71.27" y1="23.48" x2="71.51" y2="23.48" xlink:href="#linear-gradient"/><linearGradient id="linear-gradient-11" x1="48.65" y1="23.5" x2="48.91" y2="23.5" xlink:href="#linear-gradient"/><linearGradient id="linear-gradient-12" x1="15.06" y1="55.01" x2="105.32" y2="55.01" xlink:href="#linear-gradient"/><linearGradient id="linear-gradient-13" x1="15.07" y1="39.88" x2="105.32" y2="39.88" gradientUnits="userSpaceOnUse"><stop offset="0" stop-color="#7827a8"/><stop offset=".33" stop-color="#6d32b0"/><stop offset=".9" stop-color="#5050c7"/><stop offset="1" stop-color="#4a56cb"/></linearGradient><linearGradient id="linear-gradient-14" x1="11.69" y1="191.43" x2="108.66" y2="191.43" gradientUnits="userSpaceOnUse"><stop offset="0" stop-color="#c4118b"/><stop offset=".08" stop-color="#b9148c"/><stop offset=".22" stop-color="#9b1b8e"/><stop offset=".4" stop-color="#6a2891"/><stop offset=".48" stop-color="#522e93"/><stop offset=".6" stop-color="#5855a9"/><stop offset=".87" stop-color="#67b6df"/><stop offset="1" stop-color="#6ee5f9"/></linearGradient><linearGradient id="linear-gradient-15" x1="11.69" y1="156.82" x2="108.7" y2="156.82" xlink:href="#linear-gradient-14"/></defs><g id="Layer_2" data-name="Layer 2"><g id="OBJECTS"><path d="M107.22 133.18c1.94 1.12 2 2.94 0 4.06l-43.36 25.22a7.75 7.75 0 0 1-7 0l-43.69-25.22c-1.94-1.12-1.95-2.94 0-4.06L56.53 108a7.75 7.75 0 0 1 7 0z" fill="#6ee8fd"/><path d="M107.26 137.24l-43.38 25.22a7.75 7.75 0 0 1-7 0L13.2 137.24a2.48 2.48 0 0 1-1.47-2v43.21a2.47 2.47 0 0 0 1.46 2.05l43.67 25.21a7.73 7.73 0 0 0 7 0l43.39-25.21a2.46 2.46 0 0 0 1.44-2v-43.21a2.44 2.44 0 0 1-1.43 1.95z" fill="url(#linear-gradient)"/><path fill="url(#linear-gradient-2)" d="M33.83 121.17l50.7 29.27 2.01-1.16L35.83 120l-2 1.17z"/><path fill="url(#linear-gradient-3)" d="M35.92 150.38l50.54-29.18-2.01-1.16-50.54 29.18 2.01 1.16z"/><path fill="url(#linear-gradient-4)" d="M84.53 193.63l2.01-1.17v-42.6h-1.01l-1 .58v43.19z"/><path fill="url(#linear-gradient-5)" d="M36.25 193.79v-43.23l-1.65-.96h-.36v43.03l2.01 1.16z"/><path fill="url(#linear-gradient-6)" d="M58.29 46.43h3.87v89.53h-3.87z"/><path class="cls-8" d="M108.7 22L57.22 1.48 11.71 23.24v112a2.48 2.48 0 0 0 1.46 2l43.67 25.22a7.75 7.75 0 0 0 7 0l43.38-25.22a2.46 2.46 0 0 0 1.44-2z"/><path class="cls-8" d="M108.7 22L57.22 1.48 11.71 23.24v112a2.48 2.48 0 0 0 1.46 2l43.67 25.22a7.75 7.75 0 0 0 7 0l43.38-25.22a2.46 2.46 0 0 0 1.44-2z"/><path d="M108.68 135.24V22L60.18 2.66v160.63a7.24 7.24 0 0 0 3.68-.83l43.38-25.22a2.46 2.46 0 0 0 1.44-2z" fill="url(#linear-gradient-9)"/><path d="M71.49 24.53v-4.15a3.75 3.75 0 0 1-.1.82 5.87 5.87 0 0 0-.13 1.24v4.15a5.71 5.71 0 0 1 .13-1.23 3.91 3.91 0 0 0 .1-.83z" fill="url(#linear-gradient-10)"/><path d="M48.9 26.69v-4.16a5.08 5.08 0 0 0-.15-1.33 4.4 4.4 0 0 1-.1-.88v4.15a4.5 4.5 0 0 0 .1.89 6 6 0 0 1 .15 1.33z" fill="url(#linear-gradient-11)"/><path d="M102.52 44.25a16.66 16.66 0 0 1-10 2.19 27.25 27.25 0 0 0-15.2 3.11l-.33.2c-3.44 2-5.47 4.69-5.47 7.48v3.61a7 7 0 0 1-3.58 3.54 18.15 18.15 0 0 1-15.09 0l-.53-.29a6.65 6.65 0 0 1-3.16-3.41v-3.35c0-2.83-2-5.56-5.55-7.58l-.34-.2A27.41 27.41 0 0 0 28 46.44a17.16 17.16 0 0 1-9.57-1.88l-.5-.31c-1.9-1.24-2.86-2.82-2.85-4.4V44c0 1.58.94 3.16 2.85 4.4.16.11.33.21.5.31A17.16 17.16 0 0 0 28 50.59a27.43 27.43 0 0 1 15.21 3.11l.33.2c2.84 1.64 4.73 3.74 5.34 6v3.65c0 1.71 1.12 3.41 3.37 4.71l.54.3a18.23 18.23 0 0 0 15.09 0c2.56-1.32 3.84-3.13 3.84-4.94v-3.93c.64-2.16 2.47-4.18 5.2-5.77l.34-.2a27.2 27.2 0 0 1 15.19-3.11 16.67 16.67 0 0 0 10.05-2.19c1.86-1.22 2.8-2.78 2.8-4.33v-4.18c.02 1.56-.92 3.09-2.78 4.34zm-31 16.47a6.94 6.94 0 0 1 .2-1 3.93 3.93 0 0 1-.21 1z" fill="url(#linear-gradient-12)"/><path d="M102 35.2l.5.31c3.78 2.48 3.81 6.27 0 8.74a16.66 16.66 0 0 1-10 2.19 27.25 27.25 0 0 0-15.2 3.11l-.33.2c-4 2.31-6.07 5.56-5.32 8.81.48 2.09-.77 4.29-3.75 5.82a18.15 18.15 0 0 1-15.09 0l-.53-.29c-2.62-1.51-3.71-3.57-3.29-5.53.72-3.25-1.4-6.5-5.41-8.81l-.34-.2A27.41 27.41 0 0 0 28 46.44a17.16 17.16 0 0 1-9.57-1.88l-.5-.31c-3.79-2.47-3.81-6.26-.05-8.74a16.66 16.66 0 0 1 10-2.19 27.16 27.16 0 0 0 15.2-3.11l.33-.19c4-2.32 6.07-5.57 5.32-8.82-.47-2.09.77-4.29 3.75-5.82a18.23 18.23 0 0 1 15.09 0l.54.29c2.61 1.51 3.7 3.57 3.27 5.53-.71 3.25 1.41 6.5 5.42 8.82l.34.19a27.32 27.32 0 0 0 15.26 3.11 17.24 17.24 0 0 1 9.6 1.88z" fill="url(#linear-gradient-13)"/><path d="M68.54 40.92c-4.57 2.66-12 2.66-16.62 0-2.32-1.34-3.48-3.09-3.47-4.85v3.83c.1 1.66 1.25 3.31 3.46 4.58 4.6 2.66 12 2.66 16.62 0 2.27-1.32 3.41-3 3.41-4.78v-3.29c-.11 1.64-1.24 3.26-3.4 4.51z" fill="#282525"/><path d="M68.49 31.29c4.6 2.66 4.63 7 .05 9.63s-12 2.66-16.62 0-4.63-7-.05-9.63 12.01-2.66 16.62 0z" fill="#3b3535"/><path d="M65.1 33.26c2.72 1.57 2.74 4.12 0 5.69a10.83 10.83 0 0 1-9.82 0c-2.73-1.57-2.74-4.12 0-5.69a10.85 10.85 0 0 1 9.82 0zM46.88 19.35c7.38 4.27 19.36 4.27 26.69 0 3.65-2.11 5.47-4.89 5.48-7.67V11a2.18 2.18 0 0 1 0 .25c.12-2.9-1.73-5.83-5.55-8-7.38-4.27-19.36-4.27-26.7 0-3.65 2.12-5.48 4.91-5.47 7.7v.67c-.02 2.77 1.83 5.59 5.55 7.73zm-3.13-3.08l.2.21zM57.46 12l-9.72 5.65C45.15 16 43.66 14 43.27 12zm-8.17 6.49l10.26-6 .05 8.27a25.27 25.27 0 0 1-10.31-2.28zm-.08-14.42a25.06 25.06 0 0 1 10.28-2.31v8.28zm-6 6.49c.37-2.05 1.84-4 4.41-5.65l9.79 5.65zm.28 5.44l-.19-.23zm2.09 1.82l-.24-.18zm-.58-.43l-.23-.19zm-.54-.45a2.09 2.09 0 0 1-.22-.2 2.09 2.09 0 0 0 .21.2zM46 18.11a1.53 1.53 0 0 0 .21.14 1.53 1.53 0 0 1-.21-.14zm25.16.37a24.9 24.9 0 0 1-10.29 2.3v-8.27zM62.92 12h14.2c-.37 2-1.84 4-4.41 5.65zm0-1.43l9.72-5.65c2.59 1.61 4.08 3.6 4.47 5.65zm-2.1-.57V1.73a25.11 25.11 0 0 1 10.31 2.3zm13.42 8.22l-.66.4zm.62-.43c-.13.1-.28.2-.42.29.14-.08.29-.15.42-.25zm1.33-1.08l.28-.26zm-1.11.92l.36-.27zm.59-.46L76 17zm1.65-1.66l-.21.25zm-.4.48l-.25.25zM79 11.75v-.27zm-1.51 3.57c.07-.09.14-.17.2-.26-.06.09-.13.17-.2.26zm.35-.5a2.33 2.33 0 0 0 .17-.26 2.33 2.33 0 0 1-.17.26zm.3-.5l.15-.26zm.26-.5l.12-.27zm.21-.51c0-.09.07-.18.1-.27-.03.09-.06.18-.1.27zm.18-.52c0-.09 0-.18.07-.27-.02.09-.05.18-.07.27zm.12-.52L79 12zm-37.57-.84a2.26 2.26 0 0 1 0-.26 2.26 2.26 0 0 0 0 .26zm1.74 4.09a2 2 0 0 1-.17-.23 2 2 0 0 0 .17.23zm-.37-.52l-.15-.23zm-.32-.5c0-.08-.1-.16-.14-.24.04.11.09.19.14.27zm-.29-.5c0-.08-.07-.17-.11-.25.01.11.07.25.11.25zm-.24-.51l-.09-.25zm-.19-.49c0-.08-.05-.17-.08-.25.03.08.05.17.08.25zm-.16-.52v-.25c-.03.08-.02.16 0 .25zm-.1-.53a1.87 1.87 0 0 1 0-.25 1.87 1.87 0 0 0 0 .3zM120.4 35.1c.12-2.9-1.73-5.82-5.56-8-7.38-4.26-19.36-4.26-26.69 0-3.66 2.13-5.48 4.92-5.48 7.71v.66c0 2.82 1.85 5.64 5.56 7.79 7.39 4.26 19.36 4.26 26.7 0 3.64-2.12 5.47-4.9 5.48-7.68v-.69c0 .05-.01.11-.01.21zm-7.88 7.26a25.14 25.14 0 0 1-10.29 2.3v-8.27zm-8.25-7.92l9.73-5.65c2.59 1.61 4.08 3.6 4.47 5.65zm-2.1-.53v-8.27A25.27 25.27 0 0 1 112.44 28zm2.11 2h14.19c-.37 2-1.83 4-4.41 5.65zm16.11-.51a2.51 2.51 0 0 1 0 .27 2.51 2.51 0 0 0 0-.31zm-.07.52a2.56 2.56 0 0 1 0 .27 2.56 2.56 0 0 0 0-.31zm-.1.52c0 .09 0 .18-.08.26.03-.12.05-.21.08-.3zm-.15.51l-.1.27zm-.2.52a2.06 2.06 0 0 1-.12.26 2.06 2.06 0 0 0 .12-.3zm-.23.51l-.15.26zm-.28.5c0 .09-.11.17-.17.26.06-.13.12-.21.17-.3zm-.32.49l-.19.26zm-.36.49l-.22.26zm-17.77-3v8.27a25.11 25.11 0 0 1-10.31-2.31zM90.56 28a25.07 25.07 0 0 1 10.29-2.31v8.27zm-6 6.49c.36-2 1.83-4 4.41-5.65l9.78 5.65zm14.21 1.43l-9.73 5.65c-2.59-1.61-4.08-3.61-4.47-5.66zm-16.13-.56a2.17 2.17 0 0 0 0-.26 2.17 2.17 0 0 1 .05.21zm1.74 4.09c-.06-.07-.11-.15-.17-.23.11.03.16.11.22.18zm-.36-.49l-.16-.23zm-.33-.5l-.14-.24zm-.28-.51l-.12-.24zm-.24-.51a1.86 1.86 0 0 1-.1-.25 1.86 1.86 0 0 0 .15.2zm-.2-.52a1.82 1.82 0 0 1-.07-.25 1.82 1.82 0 0 0 .1.2zm-.15-.52l-.06-.25zm-.11-.52v-.26zm2.34 4.32l.2.21zm-.44-.49a2 2 0 0 0 .19.22 2 2 0 0 1-.14-.27zm2.27 2l-.24-.17zm-.58-.43l-.24-.19zm-.55-.45l-.21-.2zm1.6 1.17l.21.14zm28.24.14l-.66.41zm.63-.42l-.43.29zm1.33-1.08l.27-.26zm-1.11.91l.35-.26zm.59-.46l.3-.25zm1.24-1.18l-.25.26zm-86.09-12.7c-7.39-4.27-19.37-4.27-26.7 0C1.82 29.33 0 32.12 0 34.91v.67c0 2.81 1.85 5.64 5.56 7.78 7.39 4.27 19.36 4.27 26.7 0 3.64-2.12 5.47-4.89 5.48-7.68V35v.25c.11-2.91-1.74-5.84-5.56-8.04zm-2.33 15.28a25.1 25.1 0 0 1-10.29 2.3v-8.27zm-8.26-7.92l9.73-5.65c2.59 1.61 4.08 3.6 4.47 5.65zm-2.09-.52v-8.28a25.27 25.27 0 0 1 10.31 2.31zm2.11 2H35.8c-.36 2-1.83 4-4.41 5.65zM36 39.56l-.22.25zm-17.77-3v8.27A25.27 25.27 0 0 1 8 42.49zM7.89 28.08a25.1 25.1 0 0 1 10.29-2.31v8.27zm-5.95 6.49c.37-2 1.83-4 4.4-5.65l9.79 5.65zM16.14 36l-9.72 5.65C3.83 40 2.34 38.05 2 36zM0 35.44v-.26.26zm1.74 4.09l-.18-.23zM1.4 39l-.16-.23zm-.33-.5l-.14-.2zM.79 38l-.12-.25zm-.24-.52c0-.08-.06-.16-.1-.24.04.12.06.2.1.28zM.35 37c0-.09 0-.17-.07-.25.02.09.04.17.07.25zm-.15-.51c0-.09 0-.17-.05-.25.01.08.03.16.05.25zM.09 36v-.25zm2.34 4.32l.2.21zM2 39.79l.19.23zm2.27 2.05L4 41.66zm-.58-.44l-.24-.19zm-.56-.4l-.21-.2zm1.55 1.17l.21.14zm28.25.14c-.22.14-.44.28-.67.41.23-.18.45-.32.67-.46zm.62-.42c-.14.1-.28.2-.43.29.15-.18.29-.24.43-.34zm1.33-1.08c.09-.09.19-.17.27-.26-.08.04-.15.12-.27.21zm-1.11.92l.36-.27zm.59-.46l.3-.26zM35.6 40l-.24.26zm2.09-4.27v-.27zm-1.51 3.57l.19-.26zm.34-.5a2.33 2.33 0 0 0 .17-.26 2.33 2.33 0 0 1-.17.29zm.31-.5c.05-.09.1-.17.14-.26-.04.12-.09.2-.14.29zm.25-.5c.05-.09.09-.18.13-.27-.04.12-.08.21-.13.3zm.22-.51l.1-.27zm.17-.52a2.76 2.76 0 0 0 .08-.27 2.76 2.76 0 0 1-.08.3zm.13-.52a2.56 2.56 0 0 0 0-.27 2.56 2.56 0 0 1 0 .3zm35.93 14.83c-7.38-4.26-19.36-4.26-26.7 0-3.65 2.13-5.48 4.92-5.47 7.71v.66c0 2.82 1.85 5.64 5.57 7.79 7.38 4.26 19.36 4.26 26.69 0 3.65-2.12 5.47-4.9 5.48-7.68v-.69a1.93 1.93 0 0 1 0 .24c.1-2.9-1.75-5.82-5.57-8.03zM71.2 66.37a25.05 25.05 0 0 1-10.28 2.3l-.05-8.27zM63 58.45l9.72-5.65c2.59 1.61 4.08 3.6 4.47 5.65zm-2.09-.52v-8.28A25.24 25.24 0 0 1 71.12 52zm2.1 2h14.2c-.37 2-1.84 4-4.41 5.64zm14.4 3.55l-.21.26zm-17.77-3v8.27a25.27 25.27 0 0 1-10.31-2.31zM49.25 52a25.05 25.05 0 0 1 10.28-2.3v8.27zm-6 6.5c.37-2.05 1.84-4 4.41-5.65l9.79 5.65zm14.25 1.38l-9.72 5.65c-2.59-1.62-4.08-3.61-4.48-5.65zm-16.12-.57a2.09 2.09 0 0 1 0-.25 2.09 2.09 0 0 0 0 .25zm1.74 4.1c-.06-.08-.12-.15-.17-.23.05.08.11.15.17.23zm-.37-.49l-.15-.24zm-.32-.5c0-.08-.1-.16-.14-.24.04.08.09.16.14.24zm-.29-.51l-.14-.24zm-.24-.51l-.09-.25zm-.19-.52c0-.08-.05-.16-.08-.25.03.09.05.17.08.25zm-.16-.52v-.25c-.03.08-.02.17 0 .25zm-.1-.52a2.34 2.34 0 0 1 0-.26 2.34 2.34 0 0 0 0 .26zm2.34 4.31a2 2 0 0 0 .2.21 2 2 0 0 1-.2-.21zm-.45-.48c.07.07.13.15.19.22s-.12-.15-.19-.22zm2.28 2a2.07 2.07 0 0 1-.24-.17 2.07 2.07 0 0 0 .24.21zm-.62-.39l-.23-.2zm-.54-.45l-.22-.2zM46 66l.21.14zm28.24.14l-.66.41zm.62-.42l-.41.28zm1.33-1.09l.28-.25zm-1.09.91l.34-.25zm.57-.45l.31-.25zM77 63.91l-.25.26zm2-4.28v-.27zm-1.47 3.57a2.56 2.56 0 0 0 .2-.26 2.56 2.56 0 0 1-.2.26zm.35-.49l.17-.26zm.3-.5l.15-.26zm.26-.51l.12-.26zm.21-.51c0-.09.07-.18.1-.27-.03.08-.06.18-.1.27zm.17-.51a2.76 2.76 0 0 0 .08-.27 2.76 2.76 0 0 1-.08.27zm.13-.53l.06-.26z" fill="#27f5ff"/><path d="M108.66 176.35a2.46 2.46 0 0 1-1.44 2l-43.39 25.23a7.73 7.73 0 0 1-7 0l-43.68-25.21a2.49 2.49 0 0 1-1.46-2v2.06a2.47 2.47 0 0 0 1.46 2.05l43.67 25.21a7.73 7.73 0 0 0 7 0l43.39-25.21a2.46 2.46 0 0 0 1.44-2v-2.09z" fill="url(#linear-gradient-14)"/><path d="M11.73 137.11a2.48 2.48 0 0 0 1.47 2l43.66 25.21a7.75 7.75 0 0 0 7 0l43.38-25.21a2.46 2.46 0 0 0 1.44-2v-1.93a2.44 2.44 0 0 1-1.44 2l-43.36 25.28a7.75 7.75 0 0 1-7 0L13.2 137.24a2.48 2.48 0 0 1-1.47-2v43.21z" fill="url(#linear-gradient-15)"/><path d="M12.77 137a2.25 2.25 0 0 1-1-1.76v43.21a2.25 2.25 0 0 0 1.08 1.8z" fill="#c4118b"/><path d="M107.82 136.86V180a2.15 2.15 0 0 0 .84-1.59V135.2a2.18 2.18 0 0 1-.84 1.66z" fill="#6ee5f9"/></g></g></svg>