<svg xmlns="http://www.w3.org/2000/svg" xmlns:xlink="http://www.w3.org/1999/xlink" viewBox="0 0 194.14 162.31"><defs><style>.cls-1{fill:none;}.cls-2{fill:#43dfef;}.cls-3{fill:#6ee5f9;}.cls-4{fill:#221e1f;}.cls-5{fill:url(#linear-gradient);}.cls-6{fill:url(#linear-gradient-2);}.cls-7{fill:#252123;}.cls-8{fill:url(#linear-gradient-3);}.cls-9{fill:url(#linear-gradient-4);}.cls-10{fill:#83f1fc;}.cls-11{fill:#65ddea;}.cls-12{fill:#c909bc;}.cls-13{fill:#e505e0;}.cls-14{fill:#b208ae;}.cls-15{fill:#edda17;}.cls-16{fill:#ffe94d;}.cls-17{fill:#d6bf13;}.cls-18{fill:#fff;}.cls-19{clip-path:url(#clip-path);}.cls-20{fill:#b7bfb4;}.cls-21{fill:#f4f4f4;}.cls-22{fill:url(#linear-gradient-5);}.cls-23{fill:#c4118b;}.cls-24{fill:url(#linear-gradient-6);}.cls-25{fill:url(#linear-gradient-7);}</style><linearGradient id="linear-gradient" x1="133.51" y1="115.94" x2="187.86" y2="115.94" gradientUnits="userSpaceOnUse"><stop offset="0" stop-color="#7827a8"/><stop offset="0.33" stop-color="#6d32b0"/><stop offset="0.9" stop-color="#5050c7"/><stop offset="1" stop-color="#4a56cb"/></linearGradient><linearGradient id="linear-gradient-2" x1="133.44" y1="133.49" x2="187.79" y2="133.49" gradientUnits="userSpaceOnUse"><stop offset="0" stop-color="#611f87"/><stop offset="0.38" stop-color="#562a90"/><stop offset="1" stop-color="#3c46a6"/></linearGradient><linearGradient id="linear-gradient-3" x1="133.51" y1="60.32" x2="187.86" y2="60.32" xlink:href="#linear-gradient"/><linearGradient id="linear-gradient-4" x1="133.38" y1="89.03" x2="187.86" y2="89.03" xlink:href="#linear-gradient-2"/><clipPath id="clip-path"><path class="cls-1" d="M140.58,54.05a1.47,1.47,0,0,1-.45-.77l.07-23.84,25.71,14.84a1.61,1.61,0,0,1,.44.77l-.07,23.84Z"/></clipPath><linearGradient id="linear-gradient-5" x1="3.74" y1="73.93" x2="108.02" y2="73.93" xlink:href="#linear-gradient-2"/><linearGradient id="linear-gradient-6" x1="111.21" y1="118.47" x2="54.28" y2="72.65" gradientUnits="userSpaceOnUse"><stop offset="0" stop-color="#6ee8fd"/><stop offset="0.09" stop-color="#6ee8fd" stop-opacity="0.96"/><stop offset="0.24" stop-color="#6ee8fd" stop-opacity="0.84"/><stop offset="0.45" stop-color="#6ee8fd" stop-opacity="0.64"/><stop offset="0.69" stop-color="#6ee8fd" stop-opacity="0.38"/><stop offset="0.97" stop-color="#6ee8fd" stop-opacity="0.04"/><stop offset="1" stop-color="#6ee8fd" stop-opacity="0"/></linearGradient><linearGradient id="linear-gradient-7" x1="93.43" y1="99.54" x2="45.61" y2="61.03" xlink:href="#linear-gradient-6"/></defs><title>Asset 5</title><g id="Layer_2" data-name="Layer 2"><g id="OBJECTS"><path class="cls-2" d="M145.36,107c-2.2-1.28-5.24-1.1-8.6.84-6.67,3.85-12.07,13.19-12,20.86,0,3.81,1.36,6.49,3.53,7.75l3.83,2.23c-2.17-1.26-3.51-3.94-3.52-7.75,0-7.67,5.37-17,12-20.86,3.36-1.94,6.41-2.12,8.6-.85Z"/><ellipse class="cls-3" cx="140.63" cy="123.97" rx="17.04" ry="9.87" transform="translate(-37.22 183.27) rotate(-59.84)"/><path class="cls-4" d="M135.25,134.08c-.42,0-.5-.1-.59-.22a5.06,5.06,0,0,1-.67-2.93c0-5.71,4.34-13.26,9.32-16.13a5.71,5.71,0,0,1,2.71-.93c.41,0,.5.1.59.22a5,5,0,0,1,.67,2.92c0,5.72-4.34,13.26-9.33,16.14A5.66,5.66,0,0,1,135.25,134.08Z"/><path class="cls-3" d="M186.3,96.22c2.74,1.58,2.76,4.15,0,5.73l-13.69,8a10.91,10.91,0,0,1-9.89,0l-27.68-16c-2.74-1.58-2.76-4.15,0-5.73l13.69-8a10.87,10.87,0,0,1,9.9,0Z"/><path class="cls-3" d="M186.3,92.89c2.74,1.59,2.76,4.15,0,5.74l-13.69,8a10.91,10.91,0,0,1-9.89,0l-27.68-16c-2.74-1.59-2.76-4.15,0-5.73l13.69-8a10.93,10.93,0,0,1,9.9,0Z"/><path class="cls-5" d="M185.83,117.07c2.69,1.55,2.71,4.07,0,5.62l-13.43,7.81a10.68,10.68,0,0,1-9.72,0l-27.17-15.69c-2.7-1.55-2.71-4.07,0-5.63l13.44-7.8a10.68,10.68,0,0,1,9.72,0Z"/><path class="cls-6" d="M185.86,122.69l-13.43,7.81a10.68,10.68,0,0,1-9.72,0l-27.17-15.69a3.41,3.41,0,0,1-2-2.83l-.07,23.84a3.77,3.77,0,0,0,2,2.32l27.17,15.7a10.74,10.74,0,0,0,9.72,0L185.73,146a3.43,3.43,0,0,0,2-2.8l.06-22.82A3.69,3.69,0,0,1,185.86,122.69Z"/><path class="cls-7" d="M181,96.06c2.17,1.25,2.18,3.29,0,4.54l-10.85,6.31a8.62,8.62,0,0,1-7.85,0l-22-12.68c-2.18-1.25-2.19-3.29,0-4.54l10.86-6.31a8.62,8.62,0,0,1,7.85,0Z"/><path class="cls-3" d="M181,100.6l-10.85,6.31a8.62,8.62,0,0,1-7.85,0l-22-12.68a2.75,2.75,0,0,1-1.64-2.29l-.06,19.27a3.05,3.05,0,0,0,1.59,1.88l22,12.68a8.69,8.69,0,0,0,7.85,0l10.86-6.31a2.76,2.76,0,0,0,1.61-2.26l.05-18.44A3,3,0,0,1,181,100.6Z"/><path class="cls-8" d="M185.83,61.45c2.69,1.55,2.71,4.07,0,5.63l-13.43,7.81a10.74,10.74,0,0,1-9.72,0L135.54,59.2c-2.7-1.56-2.71-4.08,0-5.63l13.44-7.81a10.74,10.74,0,0,1,9.72,0Z"/><path class="cls-9" d="M185.86,67.08l-13.43,7.81a10.74,10.74,0,0,1-9.72,0L135.54,59.2a3.43,3.43,0,0,1-2-2.84L133.38,102a3.43,3.43,0,0,0,2,2.84l27.17,15.69a10.74,10.74,0,0,0,9.72,0l13.43-7.81a3.4,3.4,0,0,0,2-2.8l.13-45.64A3.4,3.4,0,0,1,185.86,67.08Z"/><polygon class="cls-3" points="142.54 71.05 142.54 73.27 138.81 71.12 138.82 68.9 142.54 71.05"/><polygon class="cls-10" points="139.75 68.36 138.82 68.9 142.54 71.05 143.47 70.51 139.75 68.36"/><polygon class="cls-11" points="143.47 70.51 142.54 71.05 142.54 73.27 143.47 72.72 143.47 70.51"/><polygon class="cls-12" points="150.25 75.5 150.25 77.71 146.52 75.56 146.53 73.35 150.25 75.5"/><polygon class="cls-13" points="147.46 72.81 146.53 73.35 150.25 75.5 151.18 74.96 147.46 72.81"/><polygon class="cls-14" points="151.18 74.96 150.25 75.5 150.25 77.71 151.18 77.17 151.18 74.96"/><polygon class="cls-15" points="157.96 79.97 157.95 82.19 154.23 80.04 154.24 77.82 157.96 79.97"/><polygon class="cls-16" points="155.17 77.28 154.24 77.82 157.96 79.97 158.89 79.43 155.17 77.28"/><polygon class="cls-17" points="158.89 79.43 157.96 79.97 157.95 82.19 158.89 81.64 158.89 79.43"/><path class="cls-3" d="M186.33,98.63l-13.69,8a10.91,10.91,0,0,1-9.89,0l-27.68-16A3.53,3.53,0,0,1,133,87.71v2a3.93,3.93,0,0,0,1.94,2.15l27.68,16a10.91,10.91,0,0,0,9.89,0l13.69-8a3.46,3.46,0,0,0,2-2.85v-.56A4,4,0,0,1,186.33,98.63Z"/><path class="cls-3" d="M187.78,94.15v1.17a2.32,2.32,0,0,1,.06.45,3,3,0,0,1-1.77,2.4l-13.69,8a10.44,10.44,0,0,1-9.37,0l-27.68-16a3.53,3.53,0,0,1-1.7-1.82h0a1.56,1.56,0,0,1-.06-.26h0a8.52,8.52,0,0,1-.14-1.71c-.89,1.44-.35,3.11,1.65,4.26l27.68,16a10.91,10.91,0,0,0,9.89,0l13.69-8C188.41,97.42,188.89,95.63,187.78,94.15Z"/><path class="cls-3" d="M188,98.05a4.13,4.13,0,0,0,.33-1.28v-1l-.33.87L188,98.05Z"/><path class="cls-3" d="M186.33,102l-13.69,8a10.91,10.91,0,0,1-9.89,0l-27.68-16A3.5,3.5,0,0,1,133,91v2a4,4,0,0,0,1.94,2.15l27.68,16a10.91,10.91,0,0,0,9.89,0l13.69-8a3.48,3.48,0,0,0,2-2.85v-.56A4,4,0,0,1,186.33,102Z"/><path class="cls-3" d="M187.78,97.48v1.16a2.32,2.32,0,0,1,.06.46,3,3,0,0,1-1.77,2.4l-13.69,8a10.36,10.36,0,0,1-9.37,0l-27.68-16a3.5,3.5,0,0,1-1.7-1.83h0a2,2,0,0,1-.06-.27h0a8.52,8.52,0,0,1-.14-1.71c-.89,1.43-.35,3.1,1.65,4.25l27.68,16a10.91,10.91,0,0,0,9.89,0l13.69-8C188.41,100.74,188.89,99,187.78,97.48Z"/><path class="cls-3" d="M188,101.38a4.14,4.14,0,0,0,.33-1.29v-1l-.33.87-.07,1.46Z"/><path class="cls-2" d="M186.79,129.81c-2.2-1.28-5.24-1.1-8.6.84-6.68,3.86-12.07,13.2-12.05,20.87,0,3.81,1.36,6.49,3.53,7.75l3.83,2.23c-2.17-1.26-3.52-3.95-3.53-7.76,0-7.67,5.38-17,12.05-20.86,3.36-1.94,6.4-2.12,8.6-.84Z"/><path class="cls-3" d="M182,132.88c6.67-3.85,12.1-.76,12.12,6.91s-5.37,17-12,20.86-12.1.76-12.13-6.91S175.35,136.73,182,132.88Z"/><path class="cls-4" d="M176.68,156.87c-.42,0-.5-.1-.6-.22a5.07,5.07,0,0,1-.67-2.92c0-5.72,4.35-13.26,9.33-16.14a5.66,5.66,0,0,1,2.7-.93c.42,0,.5.1.6.22a5.12,5.12,0,0,1,.67,2.92c0,5.72-4.35,13.27-9.33,16.14A5.69,5.69,0,0,1,176.68,156.87Z"/><path class="cls-4" d="M167.17,41.72A4.12,4.12,0,0,1,169,45L169,71.22c0,1.19-.84,1.67-1.88,1.07l-27.69-16a4.12,4.12,0,0,1-1.87-3.23l.07-26.27c0-1.19.85-1.67,1.89-1.07Z"/><path class="cls-3" d="M180.53,34,152.84,18a1.29,1.29,0,0,0-1.33-.13L138.14,25.6a1.33,1.33,0,0,1,1.34.13l27.69,16A4.12,4.12,0,0,1,169,45L169,71.22a1.3,1.3,0,0,1-.55,1.2l13.37-7.77a1.31,1.31,0,0,0,.55-1.2l.07-26.26A4.13,4.13,0,0,0,180.53,34Z"/><path class="cls-18" d="M167.36,41.76a4.13,4.13,0,0,1,1.9,3.28l-.07,26.71c0,1.21-.86,1.69-1.91,1.09L139.12,56.58a4.18,4.18,0,0,1-1.9-3.29l.07-26.7c0-1.21.86-1.7,1.92-1.09Z"/><path class="cls-18" d="M169.42,40.56,141.26,24.31a1.35,1.35,0,0,0-1.36-.14l-2.05,1.2a1.34,1.34,0,0,1,1.36.13l28.16,16.26A4.15,4.15,0,0,1,169.26,45l-.07,26.71a1.33,1.33,0,0,1-.56,1.22l2.06-1.19a1.35,1.35,0,0,0,.55-1.23l.08-26.7A4.21,4.21,0,0,0,169.42,40.56Z"/><path class="cls-4" d="M140.58,54.05a1.47,1.47,0,0,1-.45-.77l.07-23.84,25.71,14.84a1.61,1.61,0,0,1,.44.77l-.07,23.84Z"/><g class="cls-19"><path class="cls-20" d="M153,40.69a11,11,0,0,1,5,8.61v2.24c0,3.17-2.25,4.44-5,2.85a11,11,0,0,1-5-8.61V43.54C148,40.37,150.25,39.1,153,40.69Z"/><path class="cls-20" d="M157.54,55.85a16.91,16.91,0,0,1,3.37,9.45v2.44L145,58.55V56.1c0-3.09,1.36-5.06,3.42-5.53a12.59,12.59,0,0,0,4.56,5C154.79,56.66,156.43,56.67,157.54,55.85Z"/></g><path class="cls-21" d="M179,79.72a1.33,1.33,0,0,0-1.34.13,4.13,4.13,0,0,0-1.87,3.24,1.31,1.31,0,0,0,.55,1.21l1.46.85a1.33,1.33,0,0,1-.55-1.21,4.14,4.14,0,0,1,1.88-3.24,1.31,1.31,0,0,1,1.33-.13Z"/><path class="cls-18" d="M179.11,80.7c1-.6,1.88-.12,1.88,1.08A4.15,4.15,0,0,1,179.12,85c-1,.6-1.88.12-1.89-1.08A4.14,4.14,0,0,1,179.11,80.7Z"/><path class="cls-21" d="M179,89.23a1.33,1.33,0,0,0-1.34.13,4.13,4.13,0,0,0-1.87,3.24,1.32,1.32,0,0,0,.55,1.21l1.46.85a1.34,1.34,0,0,1-.55-1.21,4.14,4.14,0,0,1,1.88-3.24,1.31,1.31,0,0,1,1.33-.13Z"/><path class="cls-18" d="M179.11,90.21c1-.6,1.88-.12,1.88,1.07a4.16,4.16,0,0,1-1.87,3.25c-1,.59-1.88.11-1.89-1.08A4.14,4.14,0,0,1,179.11,90.21Z"/><polygon class="cls-22" points="107.79 2.94 108.02 84.85 3.97 144.93 3.74 63.01 107.79 2.94"/><polygon class="cls-4" points="111.53 5.68 111.51 0 0 64.38 0.02 70.06 111.51 5.69 111.53 5.68"/><polygon class="cls-23" points="48.8 70.73 48.9 104.51 41.98 108.5 41.89 74.72 48.8 70.73"/><polygon class="cls-23" points="58.32 73.57 58.39 99.03 51.48 103.02 51.41 77.56 58.32 73.57"/><polygon class="cls-23" points="67.76 46.44 67.89 93.55 60.98 97.53 60.85 50.43 67.76 46.44"/><polygon class="cls-23" points="83.31 39.8 83.32 42.72 78.14 45.71 78.13 42.79 83.31 39.8"/><polygon class="cls-23" points="83.34 49.33 83.34 52.25 78.16 55.24 78.16 52.32 83.34 49.33"/><polygon class="cls-23" points="83.36 58.85 83.37 61.77 78.19 64.76 78.18 61.84 83.36 58.85"/><polygon class="cls-23" points="83.39 68.37 83.4 71.3 78.22 74.29 78.21 71.36 83.39 68.37"/><polygon class="cls-23" points="83.42 77.9 83.43 80.82 78.25 83.81 78.24 80.89 83.42 77.9"/><polygon class="cls-4" points="111.53 86.69 111.51 81 0 145.38 0.02 151.06 111.51 86.69 111.53 86.69"/><polygon class="cls-24" points="21.38 114.67 150.71 89.95 90.38 33.19 21.26 73.1 21.38 114.67"/><polygon class="cls-25" points="17.96 96.34 126.62 75.57 75.93 27.88 17.86 61.41 17.96 96.34"/><polygon class="cls-25" points="17.96 96.34 126.62 75.57 75.93 27.88 17.86 61.41 17.96 96.34"/></g></g></svg>