<svg xmlns="http://www.w3.org/2000/svg" width="512" height="512" viewBox="0 0 485.74 485.74"><path d="M248.799 376.222c42.557-4.06 79.694-21.221 110.306-51.174 44.45-43.521 62.94-96.742 56.155-158.384-3.472-31.461-15.049-60.203-33.763-85.809-30.174-41.229-70.517-66.438-120.883-75.218-10.052-1.753-20.322-2.209-30.481-3.261h-2.022c-9.493 1.042-19.029 1.732-28.471 3.177C102.774 20.421 32.744 112.133 43.822 209.71c5.29 46.583 24.793 86.292 59.423 117.965 41.179 37.669 90.091 53.817 145.554 48.547zM88.43 265.18c-32.545-62.485-16.692-133.194 16.382-172.098.887 6.993 1.759 13.278 2.484 19.595 1.979 17.229.487 34.23-3.036 51.18-.747 3.609-.49 7.716.491 11.27.531 1.937 3.445 4.23 5.47 4.421 1.595.151 4.37-2.367 5.021-4.26 1.161-3.384 1.209-7.176 1.562-10.821.251-2.566.257-5.171.443-9.187 2.626 2.128 4.544 3.417 6.128 5.02 4.062 4.085 8.164 8.151 11.864 12.545 1.642 1.95 3.329 4.679 3.278 7.026-.103 5.021 2.101 8.432 4.795 12.384 2.989 4.382 4.336 9.895 6.254 14.979.812 2.129.974 4.525 1.938 6.572 2.052 4.386 5.138 7.384 10.461 7.721 5.604.353 7.706 2.523 8.512 8.26-1.434.162-2.858.354-4.298.492-6.829.646-10.214 3.782-9.945 10.682.544 13.691 5.475 25.647 15.634 35.151 2.806 2.622 5.776 5.057 8.5 7.749 6.212 6.146 8.381 13.346 5.395 21.816-1.428 4.05-3.389 8.017-4.024 12.187-.642 4.252-.648 8.859.331 13.012 1.026 4.323.583 13.769 5.048 12.985 7.896-1.378 12.436.171 13.046-8.662.117-1.69-.017-1.904-.465-3.452-2.349-8.301 8.304-31.856 14.708-36.143 5.465-3.678 10.944-7.42 15.892-11.728 7.146-6.21 10.345-14.222 7.34-23.557-2.822-8.777.481-15.239 6.619-20.897 6.271-5.765 10.375-12.405 9.95-21.28-.435-8.871-6.229-15.275-13.805-14.361-3.7.437-7.246 2.213-10.849 3.428-5.288 1.779-10.438 4.288-15.875 5.259-7.604 1.343-12.275-3.623-15.677-9.655-2.736-4.854-3.625-5.223-8.367-2.202-3.995 2.55-7.982 5.132-12.126 7.436-4.298 2.408-6.645 1.51-9.951-2.08-1.967-2.123-4.683-3.614-7.206-5.137-1.803-1.112-4.258-1.413-5.715-2.808-1.942-1.877-4.662-4.679-4.387-6.72.323-2.392 3.098-5.395 5.513-6.38 4.176-1.694 8.915-1.967 13.399-2.933 2.385-.525 4.801-1.053 7.053-1.953 3.094-1.228 2.952-3.256.593-5.155-1.165-.941-2.604-1.598-3.999-2.164-6.833-2.739-13.694-5.374-20.509-8.131a28.734 28.734 0 0 1-4.893-2.504c-4.285-2.823-4.796-5.929-.914-9.357 15.354-13.543 33.303-17.51 49.194.487 4.919 5.57 8.26 12.522 12.908 18.372 3.655 4.612 7.874 8.944 12.52 12.495 1.91 1.469 6.224 1.716 8.369.544 3.189-1.753 3.301-5.731 1.688-9.056-1.384-2.883-3.016-5.721-4.972-8.252-9.021-11.633-8.41-34.304 9.275-43.773 5.916-3.166 11.885-6.506 14.706-15.002-3.387.919-5.841 1.513-8.256 2.241-13.426 4.159-4.074-5.855 2.095-7.604 3.756-1.064-3.357-3.932-3.357-3.932.175-.298 4.731-1.598 9.787-3.754 3.485-1.485 7.053-3.152 9.942-5.499 1.872-1.541 2.588-4.477 3.838-6.791-.323-.364-.626-.717-.943-1.081-3.557.476-7.097 1.004-10.654 1.405-6.019.668-7.434-.516-7.997-6.595-.38-4.14-4.615-6.408-8.572-4.279-2.673 1.445-4.987 3.546-7.554 5.209-5.939 3.85-10.377 2.315-12.708-4.319-1.384-3.943-3.322-4.695-6.948-2.482-1.828 1.111-3.357 2.736-5.218 3.764-3.042 1.71-6.142 3.415-9.409 4.575-3.187 1.119-7.032 1.942-9.187-1.548-2.336-3.76-.294-7.418 2.636-9.77 3.642-2.925 7.858-5.208 11.965-7.505 5.855-3.299 12.053-6.033 17.7-9.63 4.142-2.651 5.956-6.955 4.611-12.042-1.126-4.293-4-5.75-7.979-3.778-3.283 1.63-6.162 4.185-9.53 5.49-2.47.956-5.542.961-8.203.496-.976-.169-2.008-2.892-2.034-4.462-.027-.9 1.816-2.476 2.993-2.673 8.164-1.275 16.361-2.347 24.562-3.283 1.095-.118 2.727.555 3.401 1.417 5.425 6.843 12.985 10.167 20.946 12.537 6.687 1.982 7.646 1.037 8.571-5.973 8.591-2.024 17.317-6.008 25.965-.561 4.791 3.025 9.158 6.859 13.219 10.843 1.009.996.383 4.068-.094 6.033-.629 2.662-2.101 5.105-2.777 7.768-1.303 5.138 2.012 9.158 7.325 9.078 1.686-.041 3.354-.38 5.034-.465 4.908-.229 6.659 1.647 6.195 6.61-.631 7.018.541 7.863 7.634 6.657 2.022-.339 4.381.591 6.463 1.313 1.236.435 2.198 1.619 3.297 2.454 6.589 4.999 11.625 3.122 13.555-5.048.208-.887.181-1.833.367-2.736.762-3.664 2.834-4.613 5.302-2 5.247 5.546 10.158 11.409 15.48 17.453-5.713 5.245-5.904 11.617-4.641 17.852 1.406 6.944-.421 12.977-3.157 19.092-2.632 5.855-5.504 11.683-7.265 17.813-2.623 9.198.355 13.407 9.699 15.437 8.914 1.954 10.364 3.743 10.706 12.459.457 11.891 6.559 20.096 16.982 25.336 2.328 1.152 4.779 2.027 7.142 3.018-1.177 18.312-6.406 37.388-15.354 55.483-4.739-8.263-10.713-19.771-13.388-29.596-3.88-14.271-13.195-.481-13.971 8.836-.779 9.317-6.989 16.294-19.409 2.332-12.429-13.979-14.76-10.869-18.634-10.869-3.88 0-10.861 9.313-9.319 52.788 1.105 31.05 13.353 35.968 21.365 38.222-14.858 10.217-31.926 18.257-51.1 23.119-73.195 18.591-147.956-15.162-182.87-82.215zm300.081 178.889c-5.631-48.75 14.161-122.682 16.757-132.044a219.628 219.628 0 0 0 11.874-19.46c27.314-50.609 33.273-108.834 16.809-163.932C417.474 73.537 380.527 28.148 329.914.841c-3.385-1.828-7.634-.583-9.464 2.828-1.831 3.401-.569 7.643 2.835 9.476 47.329 25.541 81.867 67.979 97.275 119.497 15.404 51.517 9.828 105.963-15.721 153.293-25.53 47.316-67.979 81.868-119.497 97.271-51.529 15.409-105.966 9.829-153.29-15.716a6.981 6.981 0 0 0-9.463 2.834 6.982 6.982 0 0 0 2.834 9.467c31.872 17.193 66.741 25.932 101.956 25.932 20.723 0 41.568-3.026 61.974-9.128 12.653-3.786 24.746-8.694 36.273-14.544 3.054.569 26.556 6.703 26.53 60.395-38.249 1.022-68.216 10.293-68.216 21.593 0 11.983 33.664 21.703 75.202 21.703 41.545 0 75.206-9.72 75.206-21.703-.004-8.966-18.891-16.659-45.837-19.97zm-47.78-70.473a212.333 212.333 0 0 0 43.812-35.754c-6.211 28.389-13.429 71.092-10.194 104.952-2.68-.146-5.444-.268-8.246-.345.016-43.036-13.946-61.225-25.372-68.853z" data-original="#000000" class="active-path" data-old_color="#000000" fill="#24DDE3"/></svg>