<svg xmlns="http://www.w3.org/2000/svg" width="512" height="512"><path d="M474.463 96.482L428.749 5.053a9.144 9.144 0 0 0-16.355 0L366.68 96.482a9.143 9.143 0 0 0-.965 4.089v89.049l-22.484-14.454a9.141 9.141 0 0 0-4.944-1.452h-27.429v-73.143a9.14 9.14 0 0 0-.965-4.089L264.177 5.053a9.144 9.144 0 0 0-16.354 0l-45.714 91.429a9.144 9.144 0 0 0-.966 4.089v73.143h-27.429c-1.753 0-3.47.504-4.944 1.452l-22.484 14.454v-89.049c0-1.42-.33-2.819-.966-4.089L99.606 5.053a9.144 9.144 0 0 0-16.354 0L37.537 96.482a9.144 9.144 0 0 0-.966 4.089v402.285a9.144 9.144 0 0 0 9.143 9.143h420.571a9.144 9.144 0 0 0 9.143-9.143V100.571a9.13 9.13 0 0 0-.965-4.089zm-53.892-66.895l30.921 61.842H389.65l30.921-61.842zm-164.571 0l30.921 61.842H225.08L256 29.587zm-36.571 80.127h73.143v64h-73.143v-64zm-128-80.127l30.921 61.842H60.508l30.921-61.842zm-36.572 80.127H128v91.429c0 .075.02.144.022.219l-73.165 47.034V109.714zm18.286 384H54.857V274.286h18.286v219.428zm201.143 0h-36.571v-54.857h36.571v54.857zm146.285 0h-128v-64a9.144 9.144 0 0 0-9.143-9.143h-54.857a9.144 9.144 0 0 0-9.143 9.143v64h-128V274.286h329.143v219.428zM429.714 256H76.844l99.556-64h159.2l99.556 64h-5.442zm27.429 237.714h-18.286V274.286h18.286v219.428zm0-245.318l-73.165-47.034c.002-.075.022-.144.022-.219v-91.429h73.143v138.682z" data-original="#000000" class="active-path" data-old_color="#000000" fill="#24DDE3"/><path d="M164.571 292.571H128a9.144 9.144 0 0 0-9.143 9.143v36.571a9.144 9.144 0 0 0 9.143 9.143h36.571a9.144 9.144 0 0 0 9.143-9.143v-36.571a9.143 9.143 0 0 0-9.143-9.143zm-9.142 36.572h-18.286v-18.286h18.286v18.286zm82.285-36.572h-36.571a9.144 9.144 0 0 0-9.143 9.143v36.571a9.144 9.144 0 0 0 9.143 9.143h36.571a9.144 9.144 0 0 0 9.143-9.143v-36.571a9.144 9.144 0 0 0-9.143-9.143zm-9.143 36.572h-18.286v-18.286h18.286v18.286zm82.286-36.572h-36.571a9.144 9.144 0 0 0-9.143 9.143v36.571a9.144 9.144 0 0 0 9.143 9.143h36.571a9.144 9.144 0 0 0 9.143-9.143v-36.571a9.144 9.144 0 0 0-9.143-9.143zm-9.143 36.572h-18.286v-18.286h18.286v18.286zM384 292.571h-36.571a9.144 9.144 0 0 0-9.143 9.143v36.571a9.144 9.144 0 0 0 9.143 9.143H384a9.144 9.144 0 0 0 9.143-9.143v-36.571a9.144 9.144 0 0 0-9.143-9.143zm-9.143 36.572h-18.286v-18.286h18.286v18.286zm-205.714 45.714c-17.645 0-32 14.386-32 32.068V448a9.144 9.144 0 0 0 9.143 9.143H192a9.144 9.144 0 0 0 9.143-9.143v-41.075c0-17.682-14.355-32.068-32-32.068zm13.714 64h-27.429v-31.932c0-7.599 6.152-13.782 13.714-13.782 7.563 0 13.714 6.183 13.714 13.782v31.932zm160-64c-17.645 0-32 14.386-32 32.068V448a9.144 9.144 0 0 0 9.143 9.143h45.714a9.144 9.144 0 0 0 9.143-9.143v-41.075c0-17.682-14.355-32.068-32-32.068zm13.714 64h-27.429v-31.932c0-7.599 6.152-13.782 13.714-13.782s13.714 6.183 13.714 13.782v31.932z" data-original="#000000" class="active-path" data-old_color="#000000" fill="#24DDE3"/></svg>