<?xml version="1.0"?>
<svg xmlns="http://www.w3.org/2000/svg" xmlns:xlink="http://www.w3.org/1999/xlink" version="1.1" id="Layer_1" x="0px" y="0px" viewBox="0 0 512 512" style="enable-background:new 0 0 512 512;" xml:space="preserve" width="512px" height="512px" class=""><g><g>
	<g>
		<path d="M474.463,96.482L428.749,5.053C427.2,1.957,424.035,0,420.571,0c-3.463,0-6.628,1.957-8.177,5.053L366.68,96.482    c-0.635,1.27-0.965,2.67-0.965,4.089v89.049l-22.484-14.454c-1.474-0.948-3.191-1.452-4.944-1.452h-27.429v-73.143    c0-1.42-0.33-2.819-0.965-4.089L264.177,5.053C262.628,1.957,259.463,0,256,0s-6.628,1.957-8.177,5.053l-45.714,91.429    c-0.635,1.27-0.966,2.67-0.966,4.089v73.143h-27.429c-1.753,0-3.47,0.504-4.944,1.452l-22.484,14.454v-89.049    c0-1.42-0.33-2.819-0.966-4.089L99.606,5.053C98.057,1.957,94.892,0,91.429,0c-3.463,0-6.628,1.957-8.177,5.053L37.537,96.482    c-0.635,1.27-0.966,2.67-0.966,4.089v164.571v9.143v228.571c0,5.049,4.094,9.143,9.143,9.143h36.571h146.286h54.857h146.286    h36.571c5.049,0,9.143-4.094,9.143-9.143V274.286v-9.143V100.571C475.429,99.152,475.098,97.752,474.463,96.482z M420.571,29.587    l30.921,61.842h-61.842L420.571,29.587z M256,29.587l30.921,61.842h-61.841L256,29.587z M219.429,109.714h73.143v64h-73.143    V109.714z M91.429,29.587l30.921,61.842H60.508L91.429,29.587z M54.857,109.714H128v91.429c0,0.075,0.02,0.144,0.022,0.219    l-73.165,47.034V109.714z M73.143,493.714H54.857V274.286h18.286V493.714z M274.286,493.714h-36.571v-54.857h36.571V493.714z     M420.571,493.714h-128v-64c0-5.049-4.094-9.143-9.143-9.143h-54.857c-5.049,0-9.143,4.094-9.143,9.143v64h-128V274.286h329.143    V493.714z M429.714,256H82.286h-5.442l99.556-64H335.6l99.556,64H429.714z M457.143,493.714h-18.286V274.286h18.286V493.714z     M457.143,248.396l-73.165-47.034c0.002-0.075,0.022-0.144,0.022-0.219v-91.429h73.143V248.396z" data-original="#000000" class="active-path" data-old_color="#000000" fill="#24DDE3"/>
	</g>
</g><g>
	<g>
		<path d="M164.571,292.571H128c-5.049,0-9.143,4.094-9.143,9.143v36.571c0,5.049,4.094,9.143,9.143,9.143h36.571    c5.049,0,9.143-4.094,9.143-9.143v-36.571C173.714,296.665,169.621,292.571,164.571,292.571z M155.429,329.143h-18.286v-18.286    h18.286V329.143z" data-original="#000000" class="active-path" data-old_color="#000000" fill="#24DDE3"/>
	</g>
</g><g>
	<g>
		<path d="M237.714,292.571h-36.571c-5.049,0-9.143,4.094-9.143,9.143v36.571c0,5.049,4.094,9.143,9.143,9.143h36.571    c5.049,0,9.143-4.094,9.143-9.143v-36.571C246.857,296.665,242.763,292.571,237.714,292.571z M228.571,329.143h-18.286v-18.286    h18.286V329.143z" data-original="#000000" class="active-path" data-old_color="#000000" fill="#24DDE3"/>
	</g>
</g><g>
	<g>
		<path d="M310.857,292.571h-36.571c-5.049,0-9.143,4.094-9.143,9.143v36.571c0,5.049,4.094,9.143,9.143,9.143h36.571    c5.049,0,9.143-4.094,9.143-9.143v-36.571C320,296.665,315.906,292.571,310.857,292.571z M301.714,329.143h-18.286v-18.286h18.286    V329.143z" data-original="#000000" class="active-path" data-old_color="#000000" fill="#24DDE3"/>
	</g>
</g><g>
	<g>
		<path d="M384,292.571h-36.571c-5.049,0-9.143,4.094-9.143,9.143v36.571c0,5.049,4.094,9.143,9.143,9.143H384    c5.049,0,9.143-4.094,9.143-9.143v-36.571C393.143,296.665,389.049,292.571,384,292.571z M374.857,329.143h-18.286v-18.286h18.286    V329.143z" data-original="#000000" class="active-path" data-old_color="#000000" fill="#24DDE3"/>
	</g>
</g><g>
	<g>
		<path d="M169.143,374.857c-17.645,0-32,14.386-32,32.068V448c0,5.049,4.094,9.143,9.143,9.143H192    c5.049,0,9.143-4.094,9.143-9.143v-41.075C201.143,389.243,186.788,374.857,169.143,374.857z M182.857,438.857h-27.429v-31.932    c0-7.599,6.152-13.782,13.714-13.782c7.563,0,13.714,6.183,13.714,13.782V438.857z" data-original="#000000" class="active-path" data-old_color="#000000" fill="#24DDE3"/>
	</g>
</g><g>
	<g>
		<path d="M342.857,374.857c-17.645,0-32,14.386-32,32.068V448c0,5.049,4.094,9.143,9.143,9.143h45.714    c5.049,0,9.143-4.094,9.143-9.143v-41.075C374.857,389.243,360.502,374.857,342.857,374.857z M356.571,438.857h-27.429v-31.932    c0-7.599,6.152-13.782,13.714-13.782s13.714,6.183,13.714,13.782V438.857z" data-original="#000000" class="active-path" data-old_color="#000000" fill="#24DDE3"/>
	</g>
</g></g> </svg>
