<svg xmlns="http://www.w3.org/2000/svg" xmlns:xlink="http://www.w3.org/1999/xlink" viewBox="0 0 476.47 455.13"><defs><style>.cls-1,.cls-88,.cls-89{fill:none;}.cls-2{fill:url(#Degradado_sin_nombre_865);}.cls-3{fill:url(#Degradado_sin_nombre_830);}.cls-4{fill:url(#Degradado_sin_nombre_846);}.cls-5{fill:url(#Degradado_sin_nombre_830-2);}.cls-6{fill:url(#Degradado_sin_nombre_830-3);}.cls-7{fill:url(#Degradado_sin_nombre_526);}.cls-8{fill:url(#Degradado_sin_nombre_551);}.cls-9{fill:url(#Degradado_sin_nombre_526-2);}.cls-10{fill:url(#Degradado_sin_nombre_727);}.cls-11{fill:url(#Degradado_sin_nombre_526-3);}.cls-12{fill:url(#Degradado_sin_nombre_727-2);}.cls-13{fill:url(#Degradado_sin_nombre_756);}.cls-14{fill:url(#Degradado_sin_nombre_605);}.cls-15{fill:url(#Degradado_sin_nombre_714);}.cls-16{fill:url(#Degradado_sin_nombre_705);}.cls-17{clip-path:url(#clip-path);}.cls-18{fill:url(#Degradado_sin_nombre_764);}.cls-19{fill:url(#Degradado_sin_nombre_739);}.cls-20{fill:url(#Degradado_sin_nombre_668);}.cls-21{fill:url(#Degradado_sin_nombre_669);}.cls-22{fill:url(#Degradado_sin_nombre_654);}.cls-23{fill:url(#Degradado_sin_nombre_663);}.cls-24{fill:url(#Degradado_sin_nombre_645);}.cls-25{fill:url(#Degradado_sin_nombre_645-2);}.cls-26{fill:url(#Degradado_sin_nombre_645-3);}.cls-27{fill:url(#Degradado_sin_nombre_645-4);}.cls-28{fill:url(#Degradado_sin_nombre_645-5);}.cls-29{fill:url(#Degradado_sin_nombre_645-6);}.cls-30{fill:url(#Degradado_sin_nombre_645-7);}.cls-31{fill:url(#Degradado_sin_nombre_645-8);}.cls-32{fill:url(#Degradado_sin_nombre_645-9);}.cls-33{fill:url(#Degradado_sin_nombre_645-10);}.cls-34{fill:url(#Degradado_sin_nombre_645-11);}.cls-35{fill:url(#Degradado_sin_nombre_645-12);}.cls-36{fill:url(#Degradado_sin_nombre_727-3);}.cls-37{fill:url(#Degradado_sin_nombre_756-2);}.cls-38{fill:url(#Degradado_sin_nombre_605-2);}.cls-39{fill:url(#Degradado_sin_nombre_714-2);}.cls-40{fill:url(#Degradado_sin_nombre_705-2);}.cls-41{clip-path:url(#clip-path-2);}.cls-42{fill:url(#Degradado_sin_nombre_764-2);}.cls-43{fill:url(#Degradado_sin_nombre_739-2);}.cls-44{fill:url(#Degradado_sin_nombre_668-2);}.cls-45{fill:url(#Degradado_sin_nombre_669-2);}.cls-46{fill:url(#Degradado_sin_nombre_654-2);}.cls-47{fill:url(#Degradado_sin_nombre_663-2);}.cls-48{fill:url(#Degradado_sin_nombre_645-13);}.cls-49{fill:url(#Degradado_sin_nombre_645-14);}.cls-50{fill:url(#Degradado_sin_nombre_645-15);}.cls-51{fill:url(#Degradado_sin_nombre_645-16);}.cls-52{fill:url(#Degradado_sin_nombre_645-17);}.cls-53{fill:url(#Degradado_sin_nombre_645-18);}.cls-54{fill:url(#Degradado_sin_nombre_645-19);}.cls-55{fill:url(#Degradado_sin_nombre_645-20);}.cls-56{fill:url(#Degradado_sin_nombre_645-21);}.cls-57{fill:url(#Degradado_sin_nombre_645-22);}.cls-58{fill:url(#Degradado_sin_nombre_645-23);}.cls-59{fill:url(#Degradado_sin_nombre_645-24);}.cls-60{fill:url(#Degradado_sin_nombre_727-4);}.cls-61{fill:url(#Degradado_sin_nombre_551-2);}.cls-62{fill:url(#Degradado_sin_nombre_727-5);}.cls-63{fill:url(#Degradado_sin_nombre_714-3);}.cls-64{fill:url(#Degradado_sin_nombre_884);}.cls-65{fill:url(#Degradado_sin_nombre_893);}.cls-66{fill:url(#Degradado_sin_nombre_602);}.cls-67{fill:url(#Degradado_sin_nombre_602-2);}.cls-68{fill:url(#Degradado_sin_nombre_605-3);}.cls-69{fill:url(#Degradado_sin_nombre_607);}.cls-70{fill:url(#Degradado_sin_nombre_602-3);}.cls-71{fill:url(#Degradado_sin_nombre_602-4);}.cls-72{fill:url(#Degradado_sin_nombre_602-5);}.cls-73{fill:url(#Degradado_sin_nombre_603);}.cls-74{fill:url(#Degradado_sin_nombre_603-2);}.cls-75{fill:url(#Degradado_sin_nombre_603-3);}.cls-76{fill:url(#Degradado_sin_nombre_603-4);}.cls-77{fill:url(#Degradado_sin_nombre_603-5);}.cls-78{fill:url(#Degradado_sin_nombre_603-6);}.cls-79{fill:url(#Degradado_sin_nombre_727-6);}.cls-80{fill:url(#Degradado_sin_nombre_727-7);}.cls-81{fill:url(#Degradado_sin_nombre_705-3);}.cls-82{fill:url(#Degradado_sin_nombre_727-8);}.cls-83{fill:url(#Degradado_sin_nombre_705-4);}.cls-84{font-size:32.03px;font-family:JosefinSans, JosefinSans;letter-spacing:0.08em;}.cls-84,.cls-87{fill:#a5ffff;}.cls-85{letter-spacing:0.09em;}.cls-86{fill:#67f8ff;}.cls-87{font-size:12.53px;font-family:JosefinSans-Light, JosefinSans Light;letter-spacing:0.24em;}.cls-88,.cls-89{stroke:#4dffff;stroke-miterlimit:10;}.cls-89{stroke-width:0.5px;}.cls-90{fill:#4dffff;}.cls-91{fill:#d6ffff;}.cls-92{fill:url(#Degradado_sin_nombre_669-3);}.cls-93{fill:url(#Degradado_sin_nombre_654-3);}.cls-94{fill:url(#Degradado_sin_nombre_663-3);}.cls-95{fill:url(#Degradado_sin_nombre_669-4);}.cls-96{fill:url(#Degradado_sin_nombre_654-4);}.cls-97{fill:url(#Degradado_sin_nombre_663-4);}.cls-98{fill:url(#Degradado_sin_nombre_669-5);}.cls-99{fill:url(#Degradado_sin_nombre_654-5);}.cls-100{fill:url(#Degradado_sin_nombre_663-5);}.cls-101{fill:url(#Degradado_sin_nombre_669-6);}.cls-102{fill:url(#Degradado_sin_nombre_654-6);}.cls-103{fill:url(#Degradado_sin_nombre_663-6);}.cls-104{fill:url(#Degradado_sin_nombre_669-7);}.cls-105{fill:url(#Degradado_sin_nombre_654-7);}.cls-106{fill:url(#Degradado_sin_nombre_663-7);}.cls-107{fill:url(#Degradado_sin_nombre_669-8);}.cls-108{fill:url(#Degradado_sin_nombre_654-8);}.cls-109{fill:url(#Degradado_sin_nombre_663-8);}.cls-110{fill:url(#Degradado_sin_nombre_669-9);}.cls-111{fill:url(#Degradado_sin_nombre_654-9);}.cls-112{fill:url(#Degradado_sin_nombre_663-9);}.cls-113{fill:url(#Degradado_sin_nombre_669-10);}.cls-114{fill:url(#Degradado_sin_nombre_654-10);}.cls-115{fill:url(#Degradado_sin_nombre_663-10);}</style><radialGradient id="Degradado_sin_nombre_865" cx="238.32" cy="436.55" r="49.08" gradientTransform="translate(0 260.1) scale(1 0.4)" gradientUnits="userSpaceOnUse"><stop offset="0" stop-color="#1affff"/><stop offset="0.04" stop-color="#18f2f6" stop-opacity="0.94"/><stop offset="0.25" stop-color="#11b8d1" stop-opacity="0.66"/><stop offset="0.45" stop-color="#0b87b2" stop-opacity="0.42"/><stop offset="0.62" stop-color="#066299" stop-opacity="0.24"/><stop offset="0.78" stop-color="#034788" stop-opacity="0.11"/><stop offset="0.91" stop-color="#01367d" stop-opacity="0.03"/><stop offset="1" stop-color="#003079" stop-opacity="0"/></radialGradient><radialGradient id="Degradado_sin_nombre_830" cx="144.9" cy="254.19" r="101.06" gradientTransform="matrix(1, -0.04, 0.03, 0.88, -7.67, 35.15)" gradientUnits="userSpaceOnUse"><stop offset="0" stop-color="#00002d" stop-opacity="0"/><stop offset="0.22" stop-color="#084a6a" stop-opacity="0.29"/><stop offset="0.43" stop-color="#0e8a9f" stop-opacity="0.54"/><stop offset="0.62" stop-color="#13bdc8" stop-opacity="0.74"/><stop offset="0.78" stop-color="#17e1e6" stop-opacity="0.88"/><stop offset="0.91" stop-color="#19f7f8" stop-opacity="0.97"/><stop offset="1" stop-color="#1affff"/></radialGradient><radialGradient id="Degradado_sin_nombre_846" cx="164.69" cy="298.57" r="53.83" gradientTransform="translate(-8.97 4.5) rotate(-2.1)" gradientUnits="userSpaceOnUse"><stop offset="0" stop-color="#00002d" stop-opacity="0"/><stop offset="0.25" stop-color="#084e6d" stop-opacity="0.3"/><stop offset="0.52" stop-color="#1099ab" stop-opacity="0.6"/><stop offset="0.75" stop-color="#15d0d8" stop-opacity="0.82"/><stop offset="0.91" stop-color="#19f2f4" stop-opacity="0.95"/><stop offset="1" stop-color="#1affff"/></radialGradient><radialGradient id="Degradado_sin_nombre_830-2" cx="383.89" cy="264.2" r="101.06" gradientTransform="matrix(-1, -0.04, -0.03, 0.88, 723.46, 35.15)" xlink:href="#Degradado_sin_nombre_830"/><radialGradient id="Degradado_sin_nombre_830-3" cx="393.44" cy="297.54" r="55.42" gradientTransform="matrix(-1, -0.04, -0.04, 1, 724.77, 4.5)" xlink:href="#Degradado_sin_nombre_830"/><radialGradient id="Degradado_sin_nombre_526" cx="235.17" cy="152.96" r="310.56" gradientUnits="userSpaceOnUse"><stop offset="0" stop-color="#1affff"/><stop offset="0.09" stop-color="#19f7f8" stop-opacity="0.97"/><stop offset="0.22" stop-color="#17e1e6" stop-opacity="0.88"/><stop offset="0.38" stop-color="#13bdc8" stop-opacity="0.74"/><stop offset="0.57" stop-color="#0e8a9f" stop-opacity="0.54"/><stop offset="0.78" stop-color="#084a6a" stop-opacity="0.29"/><stop offset="1" stop-color="#00002d" stop-opacity="0"/></radialGradient><linearGradient id="Degradado_sin_nombre_551" x1="238.6" y1="459.69" x2="238.6" y2="315.87" gradientUnits="userSpaceOnUse"><stop offset="0" stop-color="#00002d" stop-opacity="0"/><stop offset="0.1" stop-color="#02123c" stop-opacity="0.07"/><stop offset="0.31" stop-color="#074264" stop-opacity="0.26"/><stop offset="0.61" stop-color="#0f90a3" stop-opacity="0.56"/><stop offset="0.98" stop-color="#19f8fa" stop-opacity="0.97"/><stop offset="1" stop-color="#1affff"/></linearGradient><radialGradient id="Degradado_sin_nombre_526-2" cx="239.94" cy="336.58" r="37.77" xlink:href="#Degradado_sin_nombre_526"/><radialGradient id="Degradado_sin_nombre_727" cx="239.52" cy="329.64" r="17.51" gradientUnits="userSpaceOnUse"><stop offset="0" stop-color="#1affff"/><stop offset="0.16" stop-color="#15e4f7"/><stop offset="0.29" stop-color="#0f87f3"/><stop offset="0.49" stop-color="#15e4f7"/><stop offset="0.6" stop-color="#09a1e3"/><stop offset="0.65" stop-color="#0ebeec"/><stop offset="0.74" stop-color="#15e4f7"/><stop offset="0.84" stop-color="#0cb1e7"/><stop offset="0.95" stop-color="#0381d9"/><stop offset="1" stop-color="#006fd3"/></radialGradient><radialGradient id="Degradado_sin_nombre_526-3" cx="238.05" cy="338.01" r="64.22" gradientTransform="translate(0 -35.31) scale(1 1.1)" xlink:href="#Degradado_sin_nombre_526"/><radialGradient id="Degradado_sin_nombre_727-2" cx="239.52" cy="333.55" r="13.45" xlink:href="#Degradado_sin_nombre_727"/><linearGradient id="Degradado_sin_nombre_756" x1="257.9" y1="283.23" x2="334.98" y2="283.23" gradientUnits="userSpaceOnUse"><stop offset="0" stop-color="#1affff"/><stop offset="0.12" stop-color="#1afbfc" stop-opacity="0.98"/><stop offset="0.24" stop-color="#18eef1" stop-opacity="0.93"/><stop offset="0.37" stop-color="#16d9e0" stop-opacity="0.85"/><stop offset="0.5" stop-color="#13bcc8" stop-opacity="0.74"/><stop offset="0.63" stop-color="#0f96a9" stop-opacity="0.59"/><stop offset="0.76" stop-color="#0b6882" stop-opacity="0.41"/><stop offset="0.89" stop-color="#053256" stop-opacity="0.2"/><stop offset="1" stop-color="#00002d" stop-opacity="0"/></linearGradient><linearGradient id="Degradado_sin_nombre_605" x1="247.84" y1="269.7" x2="313.05" y2="269.7" gradientTransform="matrix(0.98, -0.18, 0.09, 0.49, -10.26, 203.35)" gradientUnits="userSpaceOnUse"><stop offset="0" stop-color="#fff" stop-opacity="0"/><stop offset="0.09" stop-color="#faffff" stop-opacity="0.02"/><stop offset="0.22" stop-color="#ebffff" stop-opacity="0.09"/><stop offset="0.36" stop-color="#d2ffff" stop-opacity="0.2"/><stop offset="0.52" stop-color="#afffff" stop-opacity="0.35"/><stop offset="0.68" stop-color="#83ffff" stop-opacity="0.54"/><stop offset="0.85" stop-color="#4effff" stop-opacity="0.77"/><stop offset="1" stop-color="#1affff"/></linearGradient><linearGradient id="Degradado_sin_nombre_714" x1="263.55" y1="285.76" x2="321.38" y2="285.76" gradientUnits="userSpaceOnUse"><stop offset="0" stop-color="#fff" stop-opacity="0"/><stop offset="0.02" stop-color="#fdffff" stop-opacity="0.02"/><stop offset="0.3" stop-color="#e1ffff" stop-opacity="0.36"/><stop offset="0.55" stop-color="#caffff" stop-opacity="0.64"/><stop offset="0.76" stop-color="#baffff" stop-opacity="0.83"/><stop offset="0.91" stop-color="#b0ffff" stop-opacity="0.95"/><stop offset="1" stop-color="#acffff"/></linearGradient><radialGradient id="Degradado_sin_nombre_705" cx="276.72" cy="296.46" r="44.87" gradientTransform="matrix(1.01, -0.19, 0.14, 0.78, -32.76, 120.85)" gradientUnits="userSpaceOnUse"><stop offset="0" stop-color="#00d3ff"/><stop offset="0.11" stop-color="#00c5f1"/><stop offset="0.31" stop-color="#00a1cd"/><stop offset="0.58" stop-color="#006592"/><stop offset="0.92" stop-color="#001541"/><stop offset="1" stop-color="#00002d"/></radialGradient><clipPath id="clip-path"><path class="cls-1" d="M257.9,291.08s15.12,11.4,30.65,8.54,25.61-18.9,25.61-18.9-15.12-11.4-30.66-8.54S257.9,291.08,257.9,291.08Z"/></clipPath><linearGradient id="Degradado_sin_nombre_764" x1="250.45" y1="286.16" x2="341.61" y2="286.16" gradientTransform="translate(519.95 -43.08) rotate(80.39)" gradientUnits="userSpaceOnUse"><stop offset="0" stop-color="#fff" stop-opacity="0"/><stop offset="0.09" stop-color="#f3ffff" stop-opacity="0.05"/><stop offset="0.25" stop-color="#d5ffff" stop-opacity="0.18"/><stop offset="0.48" stop-color="#a3ffff" stop-opacity="0.4"/><stop offset="0.75" stop-color="#60ffff" stop-opacity="0.7"/><stop offset="1" stop-color="#1affff"/></linearGradient><linearGradient id="Degradado_sin_nombre_739" x1="269.37" y1="286.16" x2="301.57" y2="286.16" gradientUnits="userSpaceOnUse"><stop offset="0" stop-color="#00d4ff"/><stop offset="0.05" stop-color="#0dd6ff" stop-opacity="0.95"/><stop offset="0.71" stop-color="#b9f3ff" stop-opacity="0.27"/><stop offset="1" stop-color="#fff" stop-opacity="0"/></linearGradient><linearGradient id="Degradado_sin_nombre_668" x1="272.51" y1="286.16" x2="298.43" y2="286.16" gradientTransform="translate(119.24 -82.28) rotate(20.65)" gradientUnits="userSpaceOnUse"><stop offset="0" stop-color="#1affff"/><stop offset="0.01" stop-color="#1afdfe"/><stop offset="0.49" stop-color="#0cb1e7"/><stop offset="0.83" stop-color="#0381d9"/><stop offset="1" stop-color="#006fd3"/></linearGradient><linearGradient id="Degradado_sin_nombre_669" x1="274.46" y1="286.16" x2="296.48" y2="286.16" gradientUnits="userSpaceOnUse"><stop offset="0" stop-color="#006fd3"/><stop offset="0.17" stop-color="#0381d9"/><stop offset="0.51" stop-color="#0cb1e7"/><stop offset="0.99" stop-color="#1afdfe"/><stop offset="1" stop-color="#1affff"/></linearGradient><linearGradient id="Degradado_sin_nombre_654" x1="285.47" y1="299.13" x2="285.47" y2="278.66" gradientUnits="userSpaceOnUse"><stop offset="0" stop-color="#fff" stop-opacity="0"/><stop offset="0.29" stop-color="#c0ffff" stop-opacity="0.27"/><stop offset="0.95" stop-color="#25ffff" stop-opacity="0.95"/><stop offset="1" stop-color="#1affff"/></linearGradient><linearGradient id="Degradado_sin_nombre_663" x1="282.98" y1="286.16" x2="287.96" y2="286.16" gradientUnits="userSpaceOnUse"><stop offset="0" stop-color="#1affff"/><stop offset="0.48" stop-color="#0cb5e2"/><stop offset="0.83" stop-color="#0385d0"/><stop offset="1" stop-color="#0073c9"/></linearGradient><linearGradient id="Degradado_sin_nombre_645" x1="287.86" y1="290.68" x2="291.97" y2="290.68" gradientUnits="userSpaceOnUse"><stop offset="0" stop-color="#1affff"/><stop offset="0" stop-color="#1affff"/><stop offset="0.67" stop-color="#07cfdf"/><stop offset="1" stop-color="#00bdd3"/></linearGradient><linearGradient id="Degradado_sin_nombre_645-2" x1="278.97" y1="281.78" x2="283.08" y2="281.78" xlink:href="#Degradado_sin_nombre_645"/><linearGradient id="Degradado_sin_nombre_645-3" x1="287.86" y1="281.78" x2="291.97" y2="281.78" xlink:href="#Degradado_sin_nombre_645"/><linearGradient id="Degradado_sin_nombre_645-4" x1="278.97" y1="290.68" x2="283.08" y2="290.68" xlink:href="#Degradado_sin_nombre_645"/><linearGradient id="Degradado_sin_nombre_645-5" x1="286.98" y1="291.83" x2="289.7" y2="291.83" xlink:href="#Degradado_sin_nombre_645"/><linearGradient id="Degradado_sin_nombre_645-6" x1="281.24" y1="280.63" x2="283.97" y2="280.63" xlink:href="#Degradado_sin_nombre_645"/><linearGradient id="Degradado_sin_nombre_645-7" x1="288.5" y1="283.36" x2="293.63" y2="283.36" xlink:href="#Degradado_sin_nombre_645"/><linearGradient id="Degradado_sin_nombre_645-8" x1="277.31" y1="289.09" x2="282.44" y2="289.09" xlink:href="#Degradado_sin_nombre_645"/><linearGradient id="Degradado_sin_nombre_645-9" x1="288.56" y1="288.91" x2="293.77" y2="288.91" xlink:href="#Degradado_sin_nombre_645"/><linearGradient id="Degradado_sin_nombre_645-10" x1="277.18" y1="283.55" x2="282.39" y2="283.55" xlink:href="#Degradado_sin_nombre_645"/><linearGradient id="Degradado_sin_nombre_645-11" x1="286.87" y1="280.54" x2="289.42" y2="280.54" xlink:href="#Degradado_sin_nombre_645"/><linearGradient id="Degradado_sin_nombre_645-12" x1="281.52" y1="291.92" x2="284.07" y2="291.92" xlink:href="#Degradado_sin_nombre_645"/><radialGradient id="Degradado_sin_nombre_727-3" cx="298.43" cy="285.9" r="14.97" xlink:href="#Degradado_sin_nombre_727"/><linearGradient id="Degradado_sin_nombre_756-2" x1="100.74" y1="283.23" x2="177.83" y2="283.23" gradientTransform="matrix(-1, 0, 0, 1, 320.05, 0)" xlink:href="#Degradado_sin_nombre_756"/><linearGradient id="Degradado_sin_nombre_605-2" x1="93.28" y1="212.78" x2="158.5" y2="212.78" gradientTransform="matrix(-0.98, -0.18, -0.09, 0.49, 330.31, 203.35)" xlink:href="#Degradado_sin_nombre_605"/><linearGradient id="Degradado_sin_nombre_714-2" x1="106.4" y1="285.76" x2="164.22" y2="285.76" gradientTransform="matrix(-1, 0, 0, 1, 320.05, 0)" xlink:href="#Degradado_sin_nombre_714"/><radialGradient id="Degradado_sin_nombre_705-2" cx="125.93" cy="239.55" r="44.87" gradientTransform="matrix(-1.01, -0.19, -0.14, 0.78, 349.85, 136.98)" xlink:href="#Degradado_sin_nombre_705"/><clipPath id="clip-path-2"><path class="cls-1" d="M219.31,291.08s-15.12,11.4-30.66,8.54-25.6-18.9-25.6-18.9,15.12-11.4,30.66-8.54S219.31,291.08,219.31,291.08Z"/></clipPath><linearGradient id="Degradado_sin_nombre_764-2" x1="93.29" y1="286.16" x2="184.45" y2="286.16" gradientTransform="matrix(-0.97, -0.23, -0.23, 0.97, 381.88, 36.76)" xlink:href="#Degradado_sin_nombre_764"/><linearGradient id="Degradado_sin_nombre_739-2" x1="112.22" y1="286.16" x2="144.41" y2="286.16" gradientTransform="matrix(-1, 0, 0, 1, 320.05, 0)" xlink:href="#Degradado_sin_nombre_739"/><linearGradient id="Degradado_sin_nombre_668-2" x1="115.35" y1="286.16" x2="141.28" y2="286.16" gradientTransform="matrix(-0.97, -0.23, -0.23, 0.97, 382.04, 36.89)" xlink:href="#Degradado_sin_nombre_668"/><linearGradient id="Degradado_sin_nombre_669-2" x1="117.31" y1="286.16" x2="139.32" y2="286.16" gradientTransform="matrix(-1, 0, 0, 1, 320.05, 0)" xlink:href="#Degradado_sin_nombre_669"/><linearGradient id="Degradado_sin_nombre_654-2" x1="128.32" y1="299.13" x2="128.32" y2="278.66" gradientTransform="matrix(-1, 0, 0, 1, 320.05, 0)" xlink:href="#Degradado_sin_nombre_654"/><linearGradient id="Degradado_sin_nombre_663-2" x1="125.83" y1="286.16" x2="130.8" y2="286.16" gradientTransform="matrix(-1, 0, 0, 1, 320.05, 0)" xlink:href="#Degradado_sin_nombre_663"/><linearGradient id="Degradado_sin_nombre_645-13" x1="130.7" y1="290.68" x2="134.82" y2="290.68" gradientTransform="matrix(-1, 0, 0, 1, 320.05, 0)" xlink:href="#Degradado_sin_nombre_645"/><linearGradient id="Degradado_sin_nombre_645-14" x1="121.81" y1="281.78" x2="125.93" y2="281.78" gradientTransform="matrix(-1, 0, 0, 1, 320.05, 0)" xlink:href="#Degradado_sin_nombre_645"/><linearGradient id="Degradado_sin_nombre_645-15" x1="130.7" y1="281.78" x2="134.82" y2="281.78" gradientTransform="matrix(-1, 0, 0, 1, 320.05, 0)" xlink:href="#Degradado_sin_nombre_645"/><linearGradient id="Degradado_sin_nombre_645-16" x1="121.81" y1="290.68" x2="125.93" y2="290.68" gradientTransform="matrix(-1, 0, 0, 1, 320.05, 0)" xlink:href="#Degradado_sin_nombre_645"/><linearGradient id="Degradado_sin_nombre_645-17" x1="129.82" y1="291.83" x2="132.54" y2="291.83" gradientTransform="matrix(-1, 0, 0, 1, 320.05, 0)" xlink:href="#Degradado_sin_nombre_645"/><linearGradient id="Degradado_sin_nombre_645-18" x1="124.09" y1="280.63" x2="126.81" y2="280.63" gradientTransform="matrix(-1, 0, 0, 1, 320.05, 0)" xlink:href="#Degradado_sin_nombre_645"/><linearGradient id="Degradado_sin_nombre_645-19" x1="131.35" y1="283.36" x2="136.48" y2="283.36" gradientTransform="matrix(-1, 0, 0, 1, 320.05, 0)" xlink:href="#Degradado_sin_nombre_645"/><linearGradient id="Degradado_sin_nombre_645-20" x1="120.15" y1="289.09" x2="125.28" y2="289.09" gradientTransform="matrix(-1, 0, 0, 1, 320.05, 0)" xlink:href="#Degradado_sin_nombre_645"/><linearGradient id="Degradado_sin_nombre_645-21" x1="131.4" y1="288.91" x2="136.61" y2="288.91" gradientTransform="matrix(-1, 0, 0, 1, 320.05, 0)" xlink:href="#Degradado_sin_nombre_645"/><linearGradient id="Degradado_sin_nombre_645-22" x1="120.02" y1="283.55" x2="125.23" y2="283.55" gradientTransform="matrix(-1, 0, 0, 1, 320.05, 0)" xlink:href="#Degradado_sin_nombre_645"/><linearGradient id="Degradado_sin_nombre_645-23" x1="129.71" y1="280.54" x2="132.27" y2="280.54" gradientTransform="matrix(-1, 0, 0, 1, 320.05, 0)" xlink:href="#Degradado_sin_nombre_645"/><linearGradient id="Degradado_sin_nombre_645-24" x1="124.36" y1="291.92" x2="126.92" y2="291.92" gradientTransform="matrix(-1, 0, 0, 1, 320.05, 0)" xlink:href="#Degradado_sin_nombre_645"/><radialGradient id="Degradado_sin_nombre_727-4" cx="141.28" cy="285.9" r="14.97" gradientTransform="matrix(-1, 0, 0, 1, 320.05, 0)" xlink:href="#Degradado_sin_nombre_727"/><linearGradient id="Degradado_sin_nombre_551-2" x1="238.6" y1="319.51" x2="238.6" y2="443.61" xlink:href="#Degradado_sin_nombre_551"/><radialGradient id="Degradado_sin_nombre_727-5" cx="238.6" cy="367.86" r="34.28" xlink:href="#Degradado_sin_nombre_727"/><linearGradient id="Degradado_sin_nombre_714-3" x1="168.21" y1="210.74" x2="308.44" y2="210.74" xlink:href="#Degradado_sin_nombre_714"/><linearGradient id="Degradado_sin_nombre_884" x1="238.32" y1="257.37" x2="238.32" y2="133.06" gradientUnits="userSpaceOnUse"><stop offset="0" stop-color="#0046d3"/><stop offset="0.14" stop-color="#0358d7"/><stop offset="0.41" stop-color="#0988e3"/><stop offset="0.8" stop-color="#14d4f5"/><stop offset="1" stop-color="#1affff"/></linearGradient><linearGradient id="Degradado_sin_nombre_893" x1="194.36" y1="208.36" x2="280.5" y2="208.36" gradientUnits="userSpaceOnUse"><stop offset="0" stop-color="#16ffff"/><stop offset="0.3" stop-color="#36b4ff"/><stop offset="0.64" stop-color="#5668ff"/><stop offset="0.88" stop-color="#6a38ff"/><stop offset="1" stop-color="#7226ff"/></linearGradient><linearGradient id="Degradado_sin_nombre_602" x1="238.6" y1="290.45" x2="238.6" y2="209.11" gradientUnits="userSpaceOnUse"><stop offset="0" stop-color="#1affff"/><stop offset="0.15" stop-color="#4effff" stop-opacity="0.77"/><stop offset="0.32" stop-color="#83ffff" stop-opacity="0.54"/><stop offset="0.48" stop-color="#afffff" stop-opacity="0.35"/><stop offset="0.64" stop-color="#d2ffff" stop-opacity="0.2"/><stop offset="0.78" stop-color="#ebffff" stop-opacity="0.09"/><stop offset="0.91" stop-color="#faffff" stop-opacity="0.02"/><stop offset="1" stop-color="#fff" stop-opacity="0"/></linearGradient><linearGradient id="Degradado_sin_nombre_602-2" x1="238.6" y1="297.97" x2="238.6" y2="268.35" xlink:href="#Degradado_sin_nombre_602"/><linearGradient id="Degradado_sin_nombre_605-3" x1="238.6" y1="236.56" x2="238.6" y2="150.2" gradientTransform="matrix(1, 0, 0, 1, 0, 0)" xlink:href="#Degradado_sin_nombre_605"/><linearGradient id="Degradado_sin_nombre_607" x1="238.6" y1="202.72" x2="238.6" y2="180.34" gradientUnits="userSpaceOnUse"><stop offset="0" stop-color="#fff" stop-opacity="0"/><stop offset="0.09" stop-color="#fbffff" stop-opacity="0.02"/><stop offset="0.22" stop-color="#f1ffff" stop-opacity="0.09"/><stop offset="0.36" stop-color="#dfffff" stop-opacity="0.2"/><stop offset="0.52" stop-color="#c7ffff" stop-opacity="0.35"/><stop offset="0.68" stop-color="#a7ffff" stop-opacity="0.54"/><stop offset="0.85" stop-color="#82ffff" stop-opacity="0.77"/><stop offset="1" stop-color="#5dffff"/></linearGradient><linearGradient id="Degradado_sin_nombre_602-3" x1="238.6" y1="232.13" x2="238.6" y2="184.48" xlink:href="#Degradado_sin_nombre_602"/><linearGradient id="Degradado_sin_nombre_602-4" x1="238.6" y1="231.57" x2="238.6" y2="196.25" xlink:href="#Degradado_sin_nombre_602"/><linearGradient id="Degradado_sin_nombre_602-5" x1="238.6" y1="166.93" x2="238.6" y2="127.49" xlink:href="#Degradado_sin_nombre_602"/><linearGradient id="Degradado_sin_nombre_603" x1="267.49" y1="304.69" x2="345.14" y2="403.68" gradientUnits="userSpaceOnUse"><stop offset="0" stop-color="#1affff"/><stop offset="0.02" stop-color="#19f8fa" stop-opacity="0.97"/><stop offset="0.39" stop-color="#0f90a3" stop-opacity="0.56"/><stop offset="0.69" stop-color="#074264" stop-opacity="0.26"/><stop offset="0.9" stop-color="#02123c" stop-opacity="0.07"/><stop offset="1" stop-color="#00002d" stop-opacity="0"/></linearGradient><linearGradient id="Degradado_sin_nombre_603-2" x1="275.2" y1="323.65" x2="336.91" y2="402.31" xlink:href="#Degradado_sin_nombre_603"/><linearGradient id="Degradado_sin_nombre_603-3" x1="280.25" y1="339.4" x2="329.39" y2="402.04" xlink:href="#Degradado_sin_nombre_603"/><linearGradient id="Degradado_sin_nombre_603-4" x1="150.82" y1="304.69" x2="228.47" y2="403.68" gradientTransform="matrix(-1, 0, 0, 1, 360.57, 0)" xlink:href="#Degradado_sin_nombre_603"/><linearGradient id="Degradado_sin_nombre_603-5" x1="158.53" y1="323.65" x2="220.24" y2="402.31" gradientTransform="matrix(-1, 0, 0, 1, 360.57, 0)" xlink:href="#Degradado_sin_nombre_603"/><linearGradient id="Degradado_sin_nombre_603-6" x1="163.58" y1="339.4" x2="212.72" y2="402.04" gradientTransform="matrix(-1, 0, 0, 1, 360.57, 0)" xlink:href="#Degradado_sin_nombre_603"/><radialGradient id="Degradado_sin_nombre_727-6" cx="235.17" cy="293.61" r="174.72" xlink:href="#Degradado_sin_nombre_727"/><radialGradient id="Degradado_sin_nombre_727-7" cx="237.33" cy="411.58" r="64.2" gradientTransform="translate(0 -36.36) scale(1 1.11)" xlink:href="#Degradado_sin_nombre_727"/><radialGradient id="Degradado_sin_nombre_705-3" cx="241.61" cy="345.11" r="55.82" gradientTransform="matrix(1, 0, 0, 1, 0, 0)" xlink:href="#Degradado_sin_nombre_705"/><radialGradient id="Degradado_sin_nombre_727-8" cx="237.78" cy="416.15" r="51.08" gradientTransform="translate(0 -36.36) scale(1 1.11)" xlink:href="#Degradado_sin_nombre_727"/><radialGradient id="Degradado_sin_nombre_705-4" cx="241.18" cy="365.27" r="44.41" gradientTransform="matrix(1, 0, 0, 1, 0, 0)" xlink:href="#Degradado_sin_nombre_705"/><linearGradient id="Degradado_sin_nombre_669-3" x1="419.68" y1="166.78" x2="453.02" y2="166.78" xlink:href="#Degradado_sin_nombre_669"/><linearGradient id="Degradado_sin_nombre_654-3" x1="436.35" y1="186.41" x2="436.35" y2="155.42" xlink:href="#Degradado_sin_nombre_654"/><linearGradient id="Degradado_sin_nombre_663-3" x1="432.58" y1="166.78" x2="440.12" y2="166.78" xlink:href="#Degradado_sin_nombre_663"/><linearGradient id="Degradado_sin_nombre_669-4" x1="273.16" y1="133.95" x2="305.96" y2="133.95" xlink:href="#Degradado_sin_nombre_669"/><linearGradient id="Degradado_sin_nombre_654-4" x1="289.56" y1="153.27" x2="289.56" y2="122.76" xlink:href="#Degradado_sin_nombre_654"/><linearGradient id="Degradado_sin_nombre_663-4" x1="285.85" y1="133.95" x2="293.27" y2="133.95" xlink:href="#Degradado_sin_nombre_663"/><linearGradient id="Degradado_sin_nombre_669-5" x1="338.68" y1="141.51" x2="363.12" y2="141.51" xlink:href="#Degradado_sin_nombre_669"/><linearGradient id="Degradado_sin_nombre_654-5" x1="350.9" y1="155.9" x2="350.9" y2="133.17" xlink:href="#Degradado_sin_nombre_654"/><linearGradient id="Degradado_sin_nombre_663-5" x1="348.14" y1="141.51" x2="353.66" y2="141.51" xlink:href="#Degradado_sin_nombre_663"/><linearGradient id="Degradado_sin_nombre_669-6" x1="422.95" y1="100.04" x2="437.93" y2="100.04" xlink:href="#Degradado_sin_nombre_669"/><linearGradient id="Degradado_sin_nombre_654-6" x1="430.44" y1="108.87" x2="430.44" y2="94.94" xlink:href="#Degradado_sin_nombre_654"/><linearGradient id="Degradado_sin_nombre_663-6" x1="428.75" y1="100.04" x2="432.13" y2="100.04" xlink:href="#Degradado_sin_nombre_663"/><linearGradient id="Degradado_sin_nombre_669-7" x1="68.8" y1="166.78" x2="117.68" y2="166.78" gradientTransform="matrix(-1, 0, 0, 1, 125.58, 0)" xlink:href="#Degradado_sin_nombre_669"/><linearGradient id="Degradado_sin_nombre_654-7" x1="93.24" y1="195.58" x2="93.24" y2="150.12" gradientTransform="matrix(-1, 0, 0, 1, 125.58, 0)" xlink:href="#Degradado_sin_nombre_654"/><linearGradient id="Degradado_sin_nombre_663-7" x1="87.71" y1="166.78" x2="98.76" y2="166.78" gradientTransform="matrix(-1, 0, 0, 1, 125.58, 0)" xlink:href="#Degradado_sin_nombre_663"/><linearGradient id="Degradado_sin_nombre_669-8" x1="-71.38" y1="144.56" x2="-51.27" y2="144.56" gradientTransform="matrix(-1, 0, 0, 1, 125.58, 0)" xlink:href="#Degradado_sin_nombre_669"/><linearGradient id="Degradado_sin_nombre_654-8" x1="-61.33" y1="156.41" x2="-61.33" y2="137.71" gradientTransform="matrix(-1, 0, 0, 1, 125.58, 0)" xlink:href="#Degradado_sin_nombre_654"/><linearGradient id="Degradado_sin_nombre_663-8" x1="-63.6" y1="144.56" x2="-59.05" y2="144.56" gradientTransform="matrix(-1, 0, 0, 1, 125.58, 0)" xlink:href="#Degradado_sin_nombre_663"/><linearGradient id="Degradado_sin_nombre_669-9" x1="-12.21" y1="141.51" x2="12.24" y2="141.51" gradientTransform="matrix(-1, 0, 0, 1, 125.58, 0)" xlink:href="#Degradado_sin_nombre_669"/><linearGradient id="Degradado_sin_nombre_654-9" x1="0.02" y1="155.9" x2="0.02" y2="133.17" gradientTransform="matrix(-1, 0, 0, 1, 125.58, 0)" xlink:href="#Degradado_sin_nombre_654"/><linearGradient id="Degradado_sin_nombre_663-9" x1="-2.75" y1="141.51" x2="2.78" y2="141.51" gradientTransform="matrix(-1, 0, 0, 1, 125.58, 0)" xlink:href="#Degradado_sin_nombre_663"/><linearGradient id="Degradado_sin_nombre_669-10" x1="72.06" y1="100.04" x2="87.04" y2="100.04" gradientTransform="matrix(-1, 0, 0, 1, 125.58, 0)" xlink:href="#Degradado_sin_nombre_669"/><linearGradient id="Degradado_sin_nombre_654-10" x1="79.55" y1="108.87" x2="79.55" y2="94.94" gradientTransform="matrix(-1, 0, 0, 1, 125.58, 0)" xlink:href="#Degradado_sin_nombre_654"/><linearGradient id="Degradado_sin_nombre_663-10" x1="77.86" y1="100.04" x2="81.25" y2="100.04" gradientTransform="matrix(-1, 0, 0, 1, 125.58, 0)" xlink:href="#Degradado_sin_nombre_663"/></defs><title>ai_faceAsset 1</title><g id="Layer_2" data-name="Layer 2"><g id="BACKGROUND_1" data-name="BACKGROUND 1"><ellipse class="cls-2" cx="238.32" cy="436.55" rx="53.11" ry="18.58"/><path class="cls-3" d="M148.68,337.3h0a7.72,7.72,0,0,1-8-7.42l-2.5-68a7.72,7.72,0,0,1,7.42-8h0a7.72,7.72,0,0,1,8,7.42l2.5,68A7.72,7.72,0,0,1,148.68,337.3Z"/><path class="cls-4" d="M153.67,343h0a7.75,7.75,0,0,1-8-7.43l-2.92-79.77a7.73,7.73,0,0,1,7.42-8h0a7.72,7.72,0,0,1,8,7.42L161.1,335A7.74,7.74,0,0,1,153.67,343Z"/><path class="cls-5" d="M328,337.3h0a7.73,7.73,0,0,0,8-7.42l2.5-68a7.74,7.74,0,0,0-7.43-8h0a7.73,7.73,0,0,0-8,7.42l-2.5,68A7.74,7.74,0,0,0,328,337.3Z"/><path class="cls-6" d="M323,343h0a7.74,7.74,0,0,0,8-7.43l2.93-79.77a7.74,7.74,0,0,0-7.42-8h0a7.74,7.74,0,0,0-8,7.42L315.55,335A7.73,7.73,0,0,0,323,343Z"/><path class="cls-7" d="M286.06,157.68c-16.91-9-47.46-8-47.46-8s-30.55-.94-47.45,8-40.94,40.54-40.94,58.93v76.92a176.88,176.88,0,0,0,5.2,42.61l10.35,41.72s5.57,21.69,24.71,33,31,18.39,48.13,18.39,29-7.07,48.14-18.39,24.7-33,24.7-33l10.35-41.72A176.89,176.89,0,0,0,327,293.53V216.61C327,198.22,303,166.63,286.06,157.68Z"/><path class="cls-8" d="M299.22,400.29V382.53c0-27.51-27.28-50-60.62-50h0c-33.33,0-60.61,22.51-60.61,50v17.76a50,50,0,0,0,12.48,10.57c19.14,11.32,31,18.39,48.13,18.39s29-7.07,48.14-18.39A50,50,0,0,0,299.22,400.29Z"/><path class="cls-9" d="M254,334.67H225.06a9.82,9.82,0,0,1-9.79-9.79h0a9.81,9.81,0,0,1,9.79-9.79H254a9.82,9.82,0,0,1,9.79,9.79h0A9.82,9.82,0,0,1,254,334.67Z"/><path class="cls-10" d="M254,334.14H225.06a9.81,9.81,0,0,1-9.78-9.53c0,.09,0,.18,0,.27a9.82,9.82,0,0,0,9.79,9.79H254a9.82,9.82,0,0,0,9.79-9.79,2.45,2.45,0,0,0,0-.27A9.81,9.81,0,0,1,254,334.14Z"/><path class="cls-11" d="M239.52,342.39h0a16.89,16.89,0,0,1-16.84-16.84v-73.2a16.89,16.89,0,0,1,16.84-16.84h0a16.89,16.89,0,0,1,16.84,16.84v73.2A16.89,16.89,0,0,1,239.52,342.39Z"/><path class="cls-12" d="M239.52,341.55h0a16.89,16.89,0,0,1-16.84-16.84v.84a16.89,16.89,0,0,0,16.84,16.84h0a16.89,16.89,0,0,0,16.84-16.84v-.84A16.89,16.89,0,0,1,239.52,341.55Z"/><path class="cls-13" d="M327,266.28c-8.48-3.57-19.38-6.39-30.4-4.36-23.54,4.33-38.7,29.16-38.7,29.16s23,17.8,46.55,13.47c8.81-1.62,16.44-6.12,22.55-11.1Z"/><path class="cls-14" d="M257.9,291.08s17.31,13.39,35,10.13S322,279.27,322,279.27s-17.31-13.39-35-10.13S257.9,291.08,257.9,291.08Z"/><path class="cls-15" d="M284.28,272c-16,2.94-26.38,19-26.38,19s15.47,11.34,31.44,8.4,26.38-19.05,26.38-19.05S300.25,269.1,284.28,272Z"/><path class="cls-16" d="M257.9,291.08s15.12,11.4,30.65,8.54,25.61-18.9,25.61-18.9-15.12-11.4-30.66-8.54S257.9,291.08,257.9,291.08Z"/><g class="cls-17"><circle class="cls-18" cx="285.47" cy="286.16" r="19.54" transform="translate(-44.33 519.85) rotate(-80.39)"/><circle class="cls-19" cx="285.47" cy="286.16" r="16.1"/><circle class="cls-20" cx="285.47" cy="286.16" r="12.96" transform="translate(-82.57 119.04) rotate(-20.65)"/><path class="cls-21" d="M285.47,297.17a11,11,0,1,1,11-11A11,11,0,0,1,285.47,297.17Zm0-21.23a10.22,10.22,0,1,0,10.22,10.22A10.23,10.23,0,0,0,285.47,275.94Z"/><path class="cls-22" d="M281.49,287H277a8.53,8.53,0,0,0,7.69,7.64v-4.49A4.09,4.09,0,0,1,281.49,287Zm8-1.57H294a8.52,8.52,0,0,0-7.7-7.77v4.49A4.06,4.06,0,0,1,289.47,285.44Zm-12.49,0h4.49a4.06,4.06,0,0,1,3.21-3.28v-4.49A8.52,8.52,0,0,0,277,285.44Zm9.28,4.72v4.49A8.53,8.53,0,0,0,294,287h-4.5A4.09,4.09,0,0,1,286.26,290.16Z"/><path class="cls-23" d="M288,286.16a2.49,2.49,0,1,1-2.49-2.49A2.5,2.5,0,0,1,288,286.16Z"/><path class="cls-24" d="M291.88,292.73a.09.09,0,0,1-.07,0l-3.92-3.91a.1.1,0,0,1,.14-.14l3.92,3.91a.12.12,0,0,1,0,.14A.11.11,0,0,1,291.88,292.73Z"/><path class="cls-25" d="M283,283.84a.11.11,0,0,1-.07,0L279,279.89a.1.1,0,0,1,0-.14.11.11,0,0,1,.13,0l3.92,3.92a.1.1,0,0,1,0,.14A.09.09,0,0,1,283,283.84Z"/><path class="cls-26" d="M288,283.84a.09.09,0,0,1-.07,0,.1.1,0,0,1,0-.14l3.92-3.92a.1.1,0,0,1,.14.14L288,283.81A.11.11,0,0,1,288,283.84Z"/><path class="cls-27" d="M279.07,292.73a.08.08,0,0,1-.07,0,.1.1,0,0,1,0-.14l3.91-3.91a.1.1,0,0,1,.14.14l-3.92,3.91A.07.07,0,0,1,279.07,292.73Z"/><path class="cls-28" d="M289.6,294.39a.11.11,0,0,1-.09-.05L287,289.41a.1.1,0,0,1,0-.14.1.1,0,0,1,.13.05l2.53,4.93a.1.1,0,0,1-.05.13Z"/><path class="cls-29" d="M283.87,283.19a.09.09,0,0,1-.09-.05l-2.52-4.93a.09.09,0,0,1,0-.13.09.09,0,0,1,.13,0l2.53,4.93a.1.1,0,0,1,0,.13Z"/><path class="cls-30" d="M288.6,284.72a.12.12,0,0,1-.09-.05.1.1,0,0,1,.05-.13l4.93-2.53a.1.1,0,0,1,.13.05.09.09,0,0,1,0,.13l-4.93,2.52Z"/><path class="cls-31" d="M277.41,290.45a.1.1,0,0,1-.05-.18l4.93-2.53a.11.11,0,0,1,.14.05.1.1,0,0,1-.05.13l-4.93,2.52Z"/><path class="cls-32" d="M293.67,290.18h0l-5-2.35a.1.1,0,0,1,0-.14.11.11,0,0,1,.13,0l5,2.36a.1.1,0,0,1,.05.13A.11.11,0,0,1,293.67,290.18Z"/><path class="cls-33" d="M282.29,284.83h0l-5-2.36a.1.1,0,0,1-.05-.13.11.11,0,0,1,.13-.05l5,2.36a.1.1,0,0,1,.05.13A.11.11,0,0,1,282.29,284.83Z"/><path class="cls-34" d="M287,283.14h0a.1.1,0,0,1-.05-.13l2.36-5a.1.1,0,0,1,.13-.05.09.09,0,0,1,0,.13l-2.35,5A.12.12,0,0,1,287,283.14Z"/><path class="cls-35" d="M281.62,294.52h-.05a.1.1,0,0,1,0-.14l2.35-5a.1.1,0,0,1,.18.08l-2.36,5A.09.09,0,0,1,281.62,294.52Z"/></g><path class="cls-36" d="M288.46,271.73c13.28.29,24.82,9,24.82,9s-10.07,16-25.61,18.9a27.9,27.9,0,0,1-5,.45,28.26,28.26,0,0,0,5.84-.45c15.54-2.86,25.61-18.9,25.61-18.9S302.1,271.64,288.46,271.73Z"/><path class="cls-37" d="M150.21,266.28c8.48-3.57,19.38-6.39,30.39-4.36,23.55,4.33,38.71,29.16,38.71,29.16s-23,17.8-46.55,13.47c-8.81-1.62-16.45-6.12-22.55-11.1Z"/><path class="cls-38" d="M219.31,291.08s-17.31,13.39-35,10.13-29.12-21.94-29.12-21.94,17.31-13.39,35-10.13S219.31,291.08,219.31,291.08Z"/><path class="cls-39" d="M192.92,272c16,2.94,26.39,19,26.39,19s-15.47,11.34-31.44,8.4-26.38-19.05-26.38-19.05S177,269.1,192.92,272Z"/><path class="cls-40" d="M219.31,291.08s-15.12,11.4-30.66,8.54-25.6-18.9-25.6-18.9,15.12-11.4,30.66-8.54S219.31,291.08,219.31,291.08Z"/><g class="cls-41"><circle class="cls-42" cx="191.74" cy="286.16" r="19.54" transform="translate(-60.16 51.21) rotate(-13.17)"/><circle class="cls-43" cx="191.74" cy="286.16" r="16.1"/><circle class="cls-44" cx="191.74" cy="286.16" r="12.96" transform="translate(-60.31 51.38) rotate(-13.21)"/><path class="cls-45" d="M180.73,286.16a11,11,0,1,1,11,11A11,11,0,0,1,180.73,286.16Zm.78,0a10.23,10.23,0,1,0,10.23-10.22A10.23,10.23,0,0,0,181.51,286.16Z"/><path class="cls-46" d="M192.52,290.16v4.49a8.53,8.53,0,0,0,7.7-7.64h-4.5A4.09,4.09,0,0,1,192.52,290.16Zm-1.57-8v-4.49a8.52,8.52,0,0,0-7.7,7.77h4.48A4.08,4.08,0,0,1,191,282.16Zm1.57-4.49v4.49a4.07,4.07,0,0,1,3.22,3.28h4.49A8.53,8.53,0,0,0,192.52,277.67ZM187.75,287h-4.5a8.54,8.54,0,0,0,7.7,7.64v-4.49A4.09,4.09,0,0,1,187.75,287Z"/><path class="cls-47" d="M189.25,286.16a2.49,2.49,0,1,0,2.49-2.49A2.49,2.49,0,0,0,189.25,286.16Z"/><path class="cls-48" d="M185.33,292.73a.09.09,0,0,0,.07,0l3.92-3.91a.1.1,0,0,0-.14-.14l-3.92,3.91a.1.1,0,0,0,0,.14A.11.11,0,0,0,185.33,292.73Z"/><path class="cls-49" d="M194.22,283.84a.08.08,0,0,0,.07,0l3.92-3.92a.1.1,0,0,0,0-.14.12.12,0,0,0-.14,0l-3.91,3.92a.1.1,0,0,0,0,.14A.07.07,0,0,0,194.22,283.84Z"/><path class="cls-50" d="M189.25,283.84a.11.11,0,0,0,.07,0,.1.1,0,0,0,0-.14l-3.92-3.92a.12.12,0,0,0-.14,0,.1.1,0,0,0,0,.14l3.92,3.92A.09.09,0,0,0,189.25,283.84Z"/><path class="cls-51" d="M198.14,292.73a.09.09,0,0,0,.07,0,.1.1,0,0,0,0-.14l-3.92-3.91a.09.09,0,0,0-.13,0,.1.1,0,0,0,0,.14l3.91,3.91A.11.11,0,0,0,198.14,292.73Z"/><path class="cls-52" d="M187.61,294.39a.12.12,0,0,0,.09-.05l2.52-4.93a.1.1,0,0,0,0-.14.1.1,0,0,0-.13.05l-2.53,4.93a.11.11,0,0,0,0,.13Z"/><path class="cls-53" d="M193.34,283.19a.09.09,0,0,0,.09-.05l2.52-4.93a.1.1,0,1,0-.17-.09l-2.53,4.93a.1.1,0,0,0,.05.13Z"/><path class="cls-54" d="M188.6,284.72a.11.11,0,0,0,.09-.05.09.09,0,0,0,0-.13L183.72,282a.1.1,0,0,0-.13.05.09.09,0,0,0,0,.13l4.93,2.52Z"/><path class="cls-55" d="M199.8,290.45a.09.09,0,0,0,.09-.05.1.1,0,0,0,0-.13l-4.93-2.53a.11.11,0,0,0-.13.05.11.11,0,0,0,0,.13l4.94,2.52Z"/><path class="cls-56" d="M183.54,290.18h0l5-2.35a.11.11,0,0,0,0-.14.11.11,0,0,0-.13,0l-5,2.36a.1.1,0,0,0-.05.13A.11.11,0,0,0,183.54,290.18Z"/><path class="cls-57" d="M194.92,284.83h0l5-2.36a.1.1,0,0,0,0-.13.1.1,0,0,0-.13-.05l-5,2.36a.1.1,0,0,0,0,.13A.1.1,0,0,0,194.92,284.83Z"/><path class="cls-58" d="M190.24,283.14h0a.1.1,0,0,0,.05-.13L188,278a.1.1,0,0,0-.13-.05.1.1,0,0,0-.05.13l2.36,5A.11.11,0,0,0,190.24,283.14Z"/><path class="cls-59" d="M195.59,294.52h0a.11.11,0,0,0,.05-.14l-2.36-5a.1.1,0,0,0-.13-.05.09.09,0,0,0,0,.13l2.35,5A.12.12,0,0,0,195.59,294.52Z"/></g><path class="cls-60" d="M188.75,271.73c-13.28.29-24.82,9-24.82,9s10.07,16,25.6,18.9a28.06,28.06,0,0,0,5,.45,28.31,28.31,0,0,1-5.84-.45c-15.53-2.86-25.6-18.9-25.6-18.9S175.11,271.64,188.75,271.73Z"/><path class="cls-61" d="M238.6,429.25c15.59,0,26.84-5.87,43.16-15.46V388.94a43.28,43.28,0,0,0-43.16-43.16h0a43.29,43.29,0,0,0-43.16,43.16v24.85C211.77,423.38,223,429.25,238.6,429.25Z"/><path class="cls-62" d="M238.6,345.78h0a43.29,43.29,0,0,0-43.16,43.16v1a43.29,43.29,0,0,1,43.16-43.15h0a43.28,43.28,0,0,1,43.16,43.15v-1A43.28,43.28,0,0,0,238.6,345.78Z"/><rect class="cls-63" x="168.21" y="169.99" width="140.23" height="81.5" rx="40.27" ry="40.27"/><rect class="cls-64" x="168.21" y="169.99" width="140.23" height="80.53" rx="40.27" ry="40.27"/><rect class="cls-65" x="194.36" y="181.81" width="86.14" height="53.1" rx="26.55" ry="26.55"/><path class="cls-66" d="M327,259.43h0V216.61c0-18.39-24-50-40.94-58.93s-47.46-8-47.46-8-30.55-.94-47.45,8-40.94,40.54-40.94,58.93v42.82h0a90.38,90.38,0,0,1,45.21.33l33.35,26.89a17.13,17.13,0,0,0,21.89-.31l31.13-26.58A90.38,90.38,0,0,1,327,259.43Z"/><path class="cls-67" d="M281.79,258.75l-31.13,26.58a17.13,17.13,0,0,1-21.89.31l-33.35-26.89a90.5,90.5,0,0,0-45.21-.32v1a90.38,90.38,0,0,1,45.21.33l33.35,26.89a17.13,17.13,0,0,0,21.89-.31l31.13-26.58a90.38,90.38,0,0,1,45.21-.33v-1A90.5,90.5,0,0,0,281.79,258.75Z"/><path class="cls-68" d="M281.79,259.76a90.38,90.38,0,0,1,45.21-.33v-31.2c-9.38-12.06-20.39-22.48-29.66-27.39-20.92-11.09-58.74-9.93-58.74-9.93s-37.81-1.16-58.73,9.93c-9.27,4.91-20.28,15.33-29.66,27.39v31.2a90.38,90.38,0,0,1,45.21.33l25.9,6.88,10.07,16.88-1.86,52,4,3.17a8.18,8.18,0,0,0,10.07,0l4-3.17-1.85-52,10.07-16.88Z"/><path class="cls-69" d="M297.34,200.84c-20.92-11.09-58.74-9.93-58.74-9.93s-37.81-1.16-58.73,9.93c-9.27,4.91-20.28,15.33-29.66,27.39v1.4c9.38-12.06,20.39-22.48,29.66-27.39,20.92-11.09,58.73-9.92,58.73-9.92s37.82-1.17,58.74,9.92c9.27,4.91,20.28,15.33,29.66,27.39v-1.4C317.62,216.17,306.61,205.75,297.34,200.84Z"/><path class="cls-70" d="M238.6,232.13h0a60.91,60.91,0,0,0,60.73-60.73v-3.56a62.11,62.11,0,0,0-13.27-10.16c-16.91-9-47.46-8-47.46-8s-30.55-.94-47.45,8a61.86,61.86,0,0,0-13.27,10.16v3.56A60.9,60.9,0,0,0,238.6,232.13Z"/><path class="cls-71" d="M238.6,230.54h0c-33.4,0-60.72-26.8-60.72-59.56v.42a60.9,60.9,0,0,0,60.72,60.73h0a60.91,60.91,0,0,0,60.73-60.73V171C299.33,203.74,272,230.54,238.6,230.54Z"/><path class="cls-72" d="M286.06,157.68c-16.91-9-47.46-8-47.46-8s-30.55-.94-47.45,8-40.94,40.54-40.94,58.93v1.31c0-18.39,24-50,40.94-58.94s47.45-8,47.45-8,30.55-.95,47.46,8S327,199.53,327,217.92v-1.31C327,198.22,303,166.63,286.06,157.68Z"/><path class="cls-73" d="M326.93,298.44C284.06,319.6,285.47,392.61,286.54,411l.2-.12c19.14-11.31,24.7-33,24.7-33l10.35-41.72A177,177,0,0,0,326.93,298.44Z"/><path class="cls-74" d="M286.54,411l.2-.12c19.14-11.31,24.7-33,24.7-33l10.35-41.72a173.49,173.49,0,0,0,3.87-21.05C291.29,340.05,285.56,394.06,286.54,411Z"/><path class="cls-75" d="M286.54,411l.2-.12c19.14-11.31,24.7-33,24.7-33l10.35-41.72c.47-1.89.9-3.79,1.31-5.69C293.67,355.85,285.62,395.1,286.54,411Z"/><path class="cls-76" d="M150.31,298.44C193.18,319.6,191.77,392.61,190.7,411l-.2-.12c-19.14-11.31-24.71-33-24.71-33l-10.35-41.72A177,177,0,0,1,150.31,298.44Z"/><path class="cls-77" d="M190.7,411l-.2-.12c-19.14-11.31-24.71-33-24.71-33l-10.35-41.72a177.44,177.44,0,0,1-3.87-21.05C186,340.05,191.68,394.06,190.7,411Z"/><path class="cls-78" d="M190.7,411l-.2-.12c-19.14-11.31-24.71-33-24.71-33l-10.35-41.72q-.7-2.83-1.3-5.69C183.57,355.85,191.62,395.1,190.7,411Z"/><path class="cls-79" d="M311.44,376.31s-5.56,21.68-24.7,33-31,18.39-48.14,18.39-29-7.07-48.13-18.39-24.71-33-24.71-33l-10.35-41.72a176.9,176.9,0,0,1-5.2-42.62v1.56a176.88,176.88,0,0,0,5.2,42.61l10.35,41.72s5.57,21.69,24.71,33,31,18.39,48.13,18.39,29-7.07,48.14-18.39,24.7-33,24.7-33l10.35-41.72A176.89,176.89,0,0,0,327,293.53V292a176.91,176.91,0,0,1-5.21,42.62Z"/><path class="cls-80" d="M269.72,388.1a387.87,387.87,0,0,1-60.4,0A3.77,3.77,0,0,1,206,384h0a3.67,3.67,0,0,1,3.77-3.57,382.69,382.69,0,0,0,59.42,0A3.68,3.68,0,0,1,273,384h0A3.78,3.78,0,0,1,269.72,388.1Z"/><path class="cls-81" d="M269.72,387.36a431.75,431.75,0,0,1-60.4,0,3.51,3.51,0,0,1-3.28-3.75h0a3.56,3.56,0,0,1,3.77-3.23,583,583,0,0,0,59.42,0,3.58,3.58,0,0,1,3.77,3.23h0A3.52,3.52,0,0,1,269.72,387.36Z"/><path class="cls-82" d="M263.55,399.47a308.44,308.44,0,0,1-48.06,0,3,3,0,0,1-2.61-3.3h0a2.92,2.92,0,0,1,3-2.84,303.36,303.36,0,0,0,47.28,0,2.91,2.91,0,0,1,3,2.84h0A3,3,0,0,1,263.55,399.47Z"/><path class="cls-83" d="M263.55,398.88a341.1,341.1,0,0,1-48.06,0,2.8,2.8,0,0,1-2.61-3h0a2.82,2.82,0,0,1,3-2.57,463.11,463.11,0,0,0,47.28,0,2.83,2.83,0,0,1,3,2.57h0A2.79,2.79,0,0,1,263.55,398.88Z"/><text class="cls-84" transform="translate(144.63 90.91)">A<tspan class="cls-85" x="22.16" y="0">R</tspan><tspan x="42.24" y="0">TIFICIAL</tspan></text><path class="cls-86" d="M293.35,79.63h-2l-1.65,4c-.62,1.52-1.19,2.91-1.73,4.18l-1.28,3.06h2.18c.43-1,.93-2.19,1.51-3.62s1.17-3,1.79-4.55h8.78q.91,2.4,1.79,4.55c.57,1.43,1.08,2.64,1.5,3.62h2.21q-.51-1.16-1.29-3.06c-.53-1.27-1.1-2.66-1.72-4.18l-1.65-4h-2.07c.16.41.32.81.49,1.22h-7.3Z"/><rect class="cls-86" x="278.14" y="79.63" width="2.21" height="11.28"/><path class="cls-86" d="M148.79,87.29q.87-2.15,1.8-4.55h8.77q.93,2.4,1.79,4.55c.58,1.43,1.08,2.64,1.51,3.62h2.21c-.34-.77-.78-1.79-1.3-3.06l-1.71-4.18c-.53-1.3-1.09-2.65-1.66-4h-2.06l.48,1.22h-7.3l.48-1.22h-2c-.56,1.39-1.11,2.74-1.64,4-.62,1.52-1.2,2.91-1.73,4.18l-1.28,3.06h2.18C147.71,89.93,148.22,88.72,148.79,87.29Z"/><polygon class="cls-86" points="312.7 79.63 312.7 90.91 327.05 90.91 327.05 88.83 314.88 88.83 314.88 79.63 312.7 79.63"/><path class="cls-86" d="M253.26,79.64a11.89,11.89,0,0,0,.82,4.42,11.29,11.29,0,0,0,2.3,3.66A10.9,10.9,0,0,0,260,90.24a11.86,11.86,0,0,0,4.79.93,12.38,12.38,0,0,0,3.94-.58,12.81,12.81,0,0,0,2.72-1.22l-1-2a4.56,4.56,0,0,1-.88.51,13.22,13.22,0,0,1-1.3.5,11.39,11.39,0,0,1-1.6.38,10.55,10.55,0,0,1-1.79.14,9.26,9.26,0,0,1-3.85-.78,9.73,9.73,0,0,1-3-2.08,9.21,9.21,0,0,1-1.92-3,9.76,9.76,0,0,1-.66-3.42h-2.22Z"/><path class="cls-86" d="M171.15,79.63V90.91h2.17V81.75h4.14a3.71,3.71,0,0,0,.67-.06l.85,1.37,1,1.7c.36.6.73,1.21,1.12,1.83s.75,1.2,1.09,1.76l.93,1.5c.27.45.5.8.67,1.06h2.66c-.2-.3-.45-.7-.77-1.22s-.67-1.08-1.06-1.69l-1.2-2-1.2-2-1.06-1.74c-.32-.54-.57-1-.77-1.28a6.35,6.35,0,0,0,2-1.42h-4.91a6.4,6.4,0,0,1-.77,0h-3.4v0Z"/><rect class="cls-86" x="243.62" y="79.63" width="2.21" height="11.28"/><rect class="cls-86" x="196.48" y="79.63" width="2.21" height="11.28"/><polygon class="cls-86" points="223.38 90.91 225.56 90.91 225.56 80.76 235.2 80.76 235.2 79.63 223.38 79.63 223.38 90.91"/><rect class="cls-86" x="212.04" y="79.63" width="2.21" height="11.28"/><text class="cls-87" transform="translate(175.33 109.97)">INTELLIGENCE</text><path class="cls-88" d="M269,205.88a38.91,38.91,0,0,0,27.21-27.28l8.68-8.68v-23l20.33-20.33h55.91L442.3,65.38V34.17l23.29-23.29"/><polyline class="cls-88" points="381.08 126.6 354.2 99.72 354.2 61.5 335.98 43.28 304.95 43.28 294.33 32.67"/><line class="cls-88" x1="315.62" y1="26.84" x2="331.66" y2="42.88"/><path class="cls-88" d="M276.37,224.85a43.12,43.12,0,0,0,12.22-5.38c16-10.33,17.48-27.78,17.48-27.78l8.36-10h28l7.37-7.37h17.51l6.61-6.61h14.93l36.66-36.66h36.89"/><polyline class="cls-88" points="279.96 239.89 289.56 230.29 289.56 218.7"/><line class="cls-88" x1="286" y1="233.85" x2="290.48" y2="238.33"/><polyline class="cls-88" points="284.76 197.23 273.91 186.38 246.95 186.38 239.04 178.47"/><polyline class="cls-88" points="292.72 187.08 280.81 175.16 260.35 175.16"/><path class="cls-88" d="M299,209.47s6,1.31,10.75-2.49h17.59L339,218.66h46.24l27,27h39.51"/><path class="cls-88" d="M296.35,223.4s6.68,2.18,10.12,1.45h22.17l17.47,17.47h26.5v34.05l7.13,7.14H393.5l6.37-6.37h14.77"/><line class="cls-89" x1="304.84" y1="158.98" x2="328.91" y2="134.9"/><line class="cls-89" x1="304.84" y1="163.5" x2="328.91" y2="139.42"/><line class="cls-89" x1="304.84" y1="168.01" x2="328.91" y2="143.94"/><circle class="cls-89" cx="330.03" cy="142.84" r="1.32"/><circle class="cls-89" cx="329.65" cy="138.47" r="1.32"/><circle class="cls-89" cx="451.73" cy="245.61" r="10.63"/><circle class="cls-89" cx="451.73" cy="245.61" r="7.61" transform="translate(108.61 628.56) rotate(-76.67)"/><path class="cls-89" d="M456.07,245.61a4.34,4.34,0,1,1-4.34-4.34A4.34,4.34,0,0,1,456.07,245.61Z"/><path class="cls-89" d="M453.64,245.61a1.91,1.91,0,1,1-1.91-1.9A1.91,1.91,0,0,1,453.64,245.61Z"/><circle class="cls-89" cx="393.57" cy="283.51" r="10.63"/><circle class="cls-89" cx="393.57" cy="283.51" r="7.61" transform="translate(26.98 601.13) rotate(-76.67)"/><path class="cls-89" d="M397.91,283.51a4.34,4.34,0,1,1-4.34-4.34A4.34,4.34,0,0,1,397.91,283.51Z"/><path class="cls-89" d="M395.48,283.51a1.91,1.91,0,1,1-1.91-1.9A1.91,1.91,0,0,1,395.48,283.51Z"/><circle class="cls-89" cx="372.61" cy="276.26" r="7.61" transform="translate(15.28 572.03) rotate(-76.17)"/><path class="cls-89" d="M378.05,276.26a5.45,5.45,0,1,1-5.44-5.44A5.45,5.45,0,0,1,378.05,276.26Z"/><path class="cls-89" d="M375.71,276.26a3.11,3.11,0,1,1-3.1-3.1A3.1,3.1,0,0,1,375.71,276.26Z"/><path class="cls-89" d="M374,276.26a1.36,1.36,0,1,1-1.36-1.36A1.36,1.36,0,0,1,374,276.26Z"/><circle class="cls-89" cx="372.61" cy="242.32" r="7.61"/><circle class="cls-89" cx="372.61" cy="242.32" r="5.45"/><path class="cls-89" d="M375.71,242.32a3.11,3.11,0,1,1-3.1-3.1A3.1,3.1,0,0,1,375.71,242.32Z"/><path class="cls-89" d="M374,242.32a1.36,1.36,0,1,1-1.36-1.36A1.36,1.36,0,0,1,374,242.32Z"/><circle class="cls-89" cx="330.03" cy="134.03" r="1.32"/><circle class="cls-89" cx="381.08" cy="126.6" r="10.63"/><circle class="cls-89" cx="381.08" cy="126.6" r="7.99"/><path class="cls-90" d="M384.8,126.6a3.72,3.72,0,1,1-3.72-3.72A3.72,3.72,0,0,1,384.8,126.6Z"/><circle class="cls-89" cx="465.59" cy="10.88" r="10.63"/><circle class="cls-89" cx="465.59" cy="10.88" r="7.99"/><circle class="cls-90" cx="465.59" cy="10.88" r="6.1"/><circle class="cls-90" cx="451.71" cy="24.76" r="6.1"/><circle class="cls-90" cx="442.13" cy="34.74" r="3.88"/><circle class="cls-90" cx="442.13" cy="46.64" r="2.4"/><circle class="cls-90" cx="442.13" cy="59.77" r="1.55"/><circle class="cls-89" cx="333.56" cy="42.92" r="10.63"/><circle class="cls-89" cx="333.56" cy="42.92" r="7.99"/><path class="cls-90" d="M337.28,42.92a3.72,3.72,0,1,1-3.72-3.72A3.71,3.71,0,0,1,337.28,42.92Z"/><path class="cls-89" d="M320.08,26.11a4.46,4.46,0,1,1-4.46-4.45A4.46,4.46,0,0,1,320.08,26.11Z"/><circle class="cls-89" cx="315.62" cy="26.11" r="3.35"/><circle class="cls-90" cx="315.62" cy="26.11" r="1.56"/><path class="cls-89" d="M298.79,32c0,2.84-2,5.14-4.46,5.14s-4.45-2.3-4.45-5.14,2-5.14,4.45-5.14S298.79,29.14,298.79,32Z"/><ellipse class="cls-89" cx="294.33" cy="31.98" rx="3.35" ry="3.86"/><ellipse class="cls-90" cx="294.33" cy="31.98" rx="1.56" ry="1.8"/><circle class="cls-90" cx="316.88" cy="177.4" r="2.24"/><circle class="cls-90" cx="324.1" cy="177.4" r="2.24"/><circle class="cls-90" cx="414.64" cy="277.14" r="2.24"/><circle class="cls-90" cx="331.32" cy="177.4" r="2.24"/><path class="cls-90" d="M336.3,177.4a2.24,2.24,0,1,1,2.24,2.25A2.24,2.24,0,0,1,336.3,177.4Z"/><path class="cls-90" d="M280.26,224.85a3.73,3.73,0,1,1-3.72-3.72A3.72,3.72,0,0,1,280.26,224.85Z"/><path class="cls-91" d="M278.66,224.85a2.13,2.13,0,1,1-2.12-2.12A2.13,2.13,0,0,1,278.66,224.85Z"/><circle class="cls-91" cx="279.96" cy="239.89" r="2.13"/><polyline class="cls-89" points="367.27 174.36 390.03 197.13 375.86 211.3"/><polyline class="cls-89" points="369.18 172.45 402.61 205.89 396.65 211.85"/><polyline class="cls-89" points="371.09 170.54 415.17 214.63 411.67 218.13 427.32 233.78 446.12 214.98"/><line class="cls-89" x1="372.99" y1="168.64" x2="417.08" y2="212.72"/><line class="cls-89" x1="376.24" y1="168.07" x2="418.99" y2="210.82"/><line class="cls-89" x1="379.62" y1="167.63" x2="420.9" y2="208.91"/><line class="cls-89" x1="383.88" y1="168.07" x2="422.81" y2="207"/><line class="cls-89" x1="387.3" y1="167.68" x2="424.71" y2="205.09"/><line class="cls-89" x1="390.22" y1="166.78" x2="426.62" y2="203.18"/><line class="cls-89" x1="392.13" y1="164.87" x2="428.53" y2="201.27"/><line class="cls-89" x1="394.03" y1="162.96" x2="430.44" y2="199.36"/><line class="cls-89" x1="395.94" y1="161.05" x2="432.35" y2="197.46"/><path class="cls-89" d="M425.33,141.51h0a10.42,10.42,0,0,1-10.41-10.42h0a10.41,10.41,0,0,1,10.41-10.41h0a10.42,10.42,0,0,1,10.42,10.41h0A10.43,10.43,0,0,1,425.33,141.51Z"/><rect class="cls-89" x="418.32" y="124.08" width="14.03" height="14.03"/><rect class="cls-89" x="420.88" y="126.64" width="8.9" height="8.9"/><path class="cls-89" d="M467.69,136.46h0a5.36,5.36,0,0,1-5.37-5.37h0a5.37,5.37,0,0,1,5.37-5.37h0a5.38,5.38,0,0,1,5.37,5.37h0A5.37,5.37,0,0,1,467.69,136.46Z"/><rect class="cls-89" x="464.07" y="127.47" width="7.24" height="7.24"/><rect class="cls-89" x="465.39" y="128.8" width="4.59" height="4.59"/><rect class="cls-89" x="357.22" y="150.53" width="35.07" height="35.07" rx="10.41" ry="10.41"/><rect class="cls-89" x="362.95" y="156.26" width="23.62" height="23.62"/><rect class="cls-89" x="367.27" y="160.58" width="14.98" height="14.98"/><rect class="cls-89" x="423.25" y="129.01" width="4.17" height="4.17"/><circle class="cls-91" cx="268.95" cy="205.88" r="2.13"/><path class="cls-89" d="M269,213.46h0a7.58,7.58,0,0,1-7.58-7.58h0a7.58,7.58,0,0,1,7.58-7.59h0a7.59,7.59,0,0,1,7.59,7.59h0A7.58,7.58,0,0,1,269,213.46Z"/><rect class="cls-89" x="263.84" y="200.77" width="10.22" height="10.22"/><rect class="cls-89" x="265.71" y="202.64" width="6.48" height="6.48"/><path class="cls-91" d="M240.47,178.47A1.43,1.43,0,1,1,239,177,1.43,1.43,0,0,1,240.47,178.47Z"/><path class="cls-91" d="M265.05,175.16a4.71,4.71,0,1,1-4.7-4.7A4.7,4.7,0,0,1,265.05,175.16Z"/><circle class="cls-91" cx="269.62" cy="175.16" r="2.13"/><circle class="cls-91" cx="274.63" cy="175.16" r="1.07"/><path class="cls-89" d="M239,183.58h0a5.11,5.11,0,0,1-5.11-5.11h0a5.11,5.11,0,0,1,5.11-5.11h0a5.11,5.11,0,0,1,5.11,5.11h0A5.11,5.11,0,0,1,239,183.58Z"/><rect class="cls-89" x="235.6" y="175.03" width="6.88" height="6.88"/><rect class="cls-89" x="236.86" y="176.29" width="4.36" height="4.36"/><path class="cls-92" d="M436.35,183.44A16.67,16.67,0,1,1,453,166.78,16.68,16.68,0,0,1,436.35,183.44Zm0-32.14a15.48,15.48,0,1,0,15.48,15.48A15.5,15.5,0,0,0,436.35,151.3Z"/><path class="cls-93" d="M430.32,168.07h-6.81a12.92,12.92,0,0,0,11.65,11.56v-6.8A6.17,6.17,0,0,1,430.32,168.07Zm12.09-2.38h6.79a12.9,12.9,0,0,0-11.66-11.76v6.8A6.14,6.14,0,0,1,442.41,165.69Zm-18.91,0h6.79a6.14,6.14,0,0,1,4.87-5v-6.8A12.9,12.9,0,0,0,423.5,165.69Zm14,7.14v6.8a12.92,12.92,0,0,0,11.65-11.56h-6.81A6.17,6.17,0,0,1,437.54,172.83Z"/><path class="cls-94" d="M440.12,166.78a3.77,3.77,0,1,1-3.77-3.77A3.76,3.76,0,0,1,440.12,166.78Z"/><path class="cls-95" d="M289.56,150.35A16.41,16.41,0,1,1,306,134,16.42,16.42,0,0,1,289.56,150.35Zm0-31.64A15.24,15.24,0,1,0,304.79,134,15.25,15.25,0,0,0,289.56,118.71Z"/><path class="cls-96" d="M283.62,135.22h-6.7a12.7,12.7,0,0,0,11.47,11.37V139.9A6.08,6.08,0,0,1,283.62,135.22Zm11.91-2.34h6.68a12.69,12.69,0,0,0-11.48-11.58V128A6.08,6.08,0,0,1,295.53,132.88Zm-18.62,0h6.68a6.08,6.08,0,0,1,4.8-4.89V121.3A12.69,12.69,0,0,0,276.91,132.88Zm13.82,7v6.69a12.7,12.7,0,0,0,11.47-11.37h-6.7A6.08,6.08,0,0,1,290.73,139.9Z"/><path class="cls-97" d="M293.27,134a3.71,3.71,0,1,1-3.71-3.71A3.71,3.71,0,0,1,293.27,134Z"/><path class="cls-98" d="M350.9,153.73a12.23,12.23,0,1,1,12.22-12.22A12.24,12.24,0,0,1,350.9,153.73Zm0-23.57a11.35,11.35,0,1,0,11.35,11.35A11.37,11.37,0,0,0,350.9,130.16Z"/><path class="cls-99" d="M346.48,142.45h-5a9.48,9.48,0,0,0,8.55,8.48v-5A4.52,4.52,0,0,1,346.48,142.45Zm8.87-1.74h5a9.47,9.47,0,0,0-8.56-8.63v5A4.52,4.52,0,0,1,355.35,140.71Zm-13.87,0h5a4.51,4.51,0,0,1,3.57-3.64v-5A9.46,9.46,0,0,0,341.48,140.71Zm10.29,5.23v5a9.48,9.48,0,0,0,8.55-8.48h-5A4.49,4.49,0,0,1,351.77,145.94Z"/><path class="cls-100" d="M353.66,141.51a2.76,2.76,0,1,1-2.76-2.77A2.76,2.76,0,0,1,353.66,141.51Z"/><path class="cls-101" d="M430.44,107.53a7.49,7.49,0,1,1,7.49-7.49A7.5,7.5,0,0,1,430.44,107.53Zm0-14.44a7,7,0,1,0,7,7A7,7,0,0,0,430.44,93.09Z"/><path class="cls-102" d="M427.73,100.62h-3.06a5.79,5.79,0,0,0,5.23,5.2v-3.06A2.77,2.77,0,0,1,427.73,100.62Zm5.43-1.07h3.06A5.8,5.8,0,0,0,431,94.27v3A2.77,2.77,0,0,1,433.16,99.55Zm-8.5,0h3a2.8,2.8,0,0,1,2.19-2.23v-3A5.8,5.8,0,0,0,424.66,99.55Zm6.31,3.21v3.06a5.79,5.79,0,0,0,5.24-5.2h-3.06A2.77,2.77,0,0,1,431,102.76Z"/><circle class="cls-103" cx="430.44" cy="100.04" r="1.69"/><path class="cls-88" d="M207.52,205.88a38.91,38.91,0,0,1-27.21-27.28l-8.68-8.68v-23L151.3,126.6H95.38L34.17,65.38V34.17L10.88,10.88"/><polyline class="cls-88" points="95.38 126.6 122.27 99.72 122.27 61.5 140.49 43.28 171.52 43.28 182.13 32.67"/><line class="cls-88" x1="160.84" y1="26.84" x2="144.8" y2="42.88"/><path class="cls-88" d="M200.1,224.85a43.12,43.12,0,0,1-12.22-5.38c-15.95-10.33-17.48-27.78-17.48-27.78l-8.36-10h-28l-7.36-7.37H109.2l-6.61-6.61H87.66L51,131.09H14.1"/><polyline class="cls-88" points="196.51 239.89 186.91 230.29 186.91 218.7"/><line class="cls-88" x1="190.47" y1="233.85" x2="185.99" y2="238.33"/><polyline class="cls-88" points="202.65 224.37 210.46 232.18 227.86 232.18 235.76 240.08"/><polyline class="cls-88" points="183.74 187.08 195.66 175.16 216.12 175.16"/><path class="cls-88" d="M177.46,209.47s-6,1.31-10.75-2.49h-17.6l-11.67,11.68H91.2l-26.95,27H24.73"/><path class="cls-88" d="M180.12,223.4s-6.69,2.18-10.13,1.45H147.83l-17.48,17.47H103.86v34.05l-7.14,7.14H83l-6.36-6.37H61.82"/><line class="cls-89" x1="171.63" y1="158.98" x2="147.55" y2="134.9"/><line class="cls-89" x1="171.63" y1="163.5" x2="147.55" y2="139.42"/><line class="cls-89" x1="171.63" y1="168.01" x2="147.55" y2="143.94"/><circle class="cls-89" cx="146.43" cy="142.84" r="1.32"/><circle class="cls-89" cx="146.82" cy="138.47" r="1.32"/><circle class="cls-89" cx="24.73" cy="245.61" r="10.63"/><circle class="cls-89" cx="24.73" cy="245.61" r="7.61" transform="translate(-166.43 89.43) rotate(-45)"/><path class="cls-89" d="M20.39,245.61a4.34,4.34,0,1,0,4.34-4.34A4.35,4.35,0,0,0,20.39,245.61Z"/><path class="cls-89" d="M22.83,245.61a1.9,1.9,0,1,0,1.9-1.9A1.9,1.9,0,0,0,22.83,245.61Z"/><circle class="cls-89" cx="82.89" cy="283.51" r="10.63"/><circle class="cls-89" cx="82.89" cy="283.51" r="7.61" transform="translate(-181.62 152.06) rotate(-47.28)"/><path class="cls-89" d="M78.55,283.51a4.34,4.34,0,1,0,4.34-4.34A4.35,4.35,0,0,0,78.55,283.51Z"/><path class="cls-89" d="M81,283.51a1.9,1.9,0,1,0,1.9-1.9A1.9,1.9,0,0,0,81,283.51Z"/><circle class="cls-89" cx="103.86" cy="276.26" r="7.61" transform="translate(-164.93 154.36) rotate(-45)"/><path class="cls-89" d="M98.42,276.26a5.45,5.45,0,1,0,5.44-5.44A5.44,5.44,0,0,0,98.42,276.26Z"/><path class="cls-89" d="M100.75,276.26a3.11,3.11,0,1,0,3.11-3.1A3.11,3.11,0,0,0,100.75,276.26Z"/><path class="cls-89" d="M102.5,276.26a1.36,1.36,0,1,0,1.36-1.36A1.36,1.36,0,0,0,102.5,276.26Z"/><circle class="cls-89" cx="103.86" cy="242.32" r="7.61"/><circle class="cls-89" cx="103.86" cy="242.32" r="5.45"/><circle class="cls-89" cx="103.86" cy="242.32" r="3.11"/><circle class="cls-89" cx="103.86" cy="242.32" r="1.36"/><circle class="cls-89" cx="146.43" cy="134.03" r="1.32"/><circle class="cls-89" cx="95.38" cy="126.6" r="10.63"/><circle class="cls-89" cx="95.38" cy="126.6" r="7.99"/><path class="cls-90" d="M91.66,126.6a3.73,3.73,0,1,0,3.72-3.72A3.73,3.73,0,0,0,91.66,126.6Z"/><circle class="cls-89" cx="10.88" cy="10.88" r="10.63"/><circle class="cls-89" cx="10.88" cy="10.88" r="7.99"/><circle class="cls-90" cx="10.88" cy="10.88" r="6.1"/><circle class="cls-90" cx="24.76" cy="24.76" r="6.1"/><circle class="cls-90" cx="34.34" cy="34.74" r="3.88"/><circle class="cls-90" cx="34.34" cy="46.64" r="2.4"/><circle class="cls-90" cx="34.34" cy="59.77" r="1.55"/><circle class="cls-89" cx="142.91" cy="42.92" r="10.63"/><circle class="cls-89" cx="142.91" cy="42.92" r="7.99"/><path class="cls-90" d="M139.18,42.92a3.73,3.73,0,1,0,3.73-3.72A3.72,3.72,0,0,0,139.18,42.92Z"/><path class="cls-89" d="M156.39,26.11a4.46,4.46,0,1,0,4.45-4.45A4.45,4.45,0,0,0,156.39,26.11Z"/><path class="cls-89" d="M157.5,26.11a3.35,3.35,0,1,0,3.34-3.34A3.35,3.35,0,0,0,157.5,26.11Z"/><circle class="cls-90" cx="160.84" cy="26.11" r="1.56"/><ellipse class="cls-89" cx="182.13" cy="31.98" rx="4.45" ry="5.14"/><ellipse class="cls-89" cx="182.13" cy="31.98" rx="3.35" ry="3.86"/><ellipse class="cls-90" cx="182.13" cy="31.98" rx="1.56" ry="1.8"/><circle class="cls-90" cx="159.59" cy="177.4" r="2.24"/><circle class="cls-90" cx="152.37" cy="177.4" r="2.24"/><path class="cls-90" d="M64.06,277.14a2.24,2.24,0,1,0-2.24,2.25A2.24,2.24,0,0,0,64.06,277.14Z"/><circle class="cls-90" cx="145.15" cy="177.4" r="2.24"/><circle class="cls-90" cx="137.92" cy="177.4" r="2.24"/><path class="cls-90" d="M196.21,224.85a3.72,3.72,0,1,0,3.72-3.72A3.72,3.72,0,0,0,196.21,224.85Z"/><path class="cls-91" d="M197.81,224.85a2.13,2.13,0,1,0,2.12-2.12A2.13,2.13,0,0,0,197.81,224.85Z"/><path class="cls-91" d="M194.38,239.89a2.13,2.13,0,1,0,2.13-2.13A2.12,2.12,0,0,0,194.38,239.89Z"/><polyline class="cls-89" points="109.2 174.36 86.44 197.13 100.61 211.3"/><polyline class="cls-89" points="107.29 172.45 73.86 205.89 79.82 211.85"/><polyline class="cls-89" points="105.38 170.54 61.3 214.63 64.8 218.13 49.15 233.78 30.35 214.98"/><line class="cls-89" x1="103.47" y1="168.64" x2="59.39" y2="212.72"/><line class="cls-89" x1="100.22" y1="168.07" x2="57.48" y2="210.82"/><line class="cls-89" x1="96.85" y1="167.63" x2="55.57" y2="208.91"/><line class="cls-89" x1="92.59" y1="168.07" x2="53.66" y2="207"/><line class="cls-89" x1="89.16" y1="167.68" x2="51.75" y2="205.09"/><line class="cls-89" x1="86.25" y1="166.78" x2="49.84" y2="203.18"/><line class="cls-89" x1="84.34" y1="164.87" x2="47.94" y2="201.27"/><line class="cls-89" x1="82.43" y1="162.96" x2="46.03" y2="199.36"/><line class="cls-89" x1="80.52" y1="161.05" x2="44.12" y2="197.46"/><path class="cls-89" d="M51.13,141.51h0a10.42,10.42,0,0,0,10.42-10.42h0a10.41,10.41,0,0,0-10.42-10.41h0a10.41,10.41,0,0,0-10.41,10.41h0A10.42,10.42,0,0,0,51.13,141.51Z"/><rect class="cls-89" x="44.12" y="124.08" width="14.03" height="14.03" transform="translate(102.27 262.18) rotate(180)"/><rect class="cls-89" x="46.69" y="126.64" width="8.9" height="8.9" transform="translate(102.27 262.18) rotate(180)"/><path class="cls-89" d="M8.78,136.46h0a5.36,5.36,0,0,0,5.37-5.37h0a5.37,5.37,0,0,0-5.37-5.37h0a5.38,5.38,0,0,0-5.37,5.37h0A5.37,5.37,0,0,0,8.78,136.46Z"/><rect class="cls-89" x="5.16" y="127.47" width="7.24" height="7.24" transform="translate(17.56 262.18) rotate(180)"/><rect class="cls-89" x="6.49" y="128.8" width="4.59" height="4.59" transform="translate(17.56 262.18) rotate(180)"/><rect class="cls-89" x="84.17" y="150.53" width="35.07" height="35.07" rx="10.41" ry="10.41" transform="translate(203.42 336.14) rotate(180)"/><rect class="cls-89" x="89.9" y="156.26" width="23.62" height="23.62" transform="translate(203.42 336.14) rotate(180)"/><rect class="cls-89" x="94.22" y="160.58" width="14.98" height="14.98" transform="translate(203.42 336.14) rotate(180)"/><rect class="cls-89" x="49.05" y="129.01" width="4.17" height="4.17" transform="translate(102.27 262.18) rotate(180)"/><circle class="cls-91" cx="207.52" cy="205.88" r="2.13"/><path class="cls-89" d="M207.52,213.46h0a7.58,7.58,0,0,0,7.58-7.58h0a7.58,7.58,0,0,0-7.58-7.59h0a7.59,7.59,0,0,0-7.59,7.59h0A7.58,7.58,0,0,0,207.52,213.46Z"/><rect class="cls-89" x="202.41" y="200.77" width="10.22" height="10.22" transform="translate(415.03 411.75) rotate(180)"/><rect class="cls-89" x="204.28" y="202.64" width="6.48" height="6.48" transform="translate(415.03 411.75) rotate(180)"/><path class="cls-91" d="M234.33,240.08a1.43,1.43,0,1,1,1.43,1.43A1.43,1.43,0,0,1,234.33,240.08Z"/><path class="cls-91" d="M215.72,243.13a4.71,4.71,0,1,1,4.71,4.71A4.71,4.71,0,0,1,215.72,243.13Z"/><circle class="cls-91" cx="211.15" cy="243.13" r="2.13"/><circle class="cls-91" cx="206.14" cy="243.13" r="1.07"/><path class="cls-89" d="M235.76,235h0a5.11,5.11,0,0,1,5.11,5.11h0a5.11,5.11,0,0,1-5.11,5.11h0a5.11,5.11,0,0,1-5.11-5.11h0A5.11,5.11,0,0,1,235.76,235Z"/><rect class="cls-89" x="232.32" y="236.64" width="6.88" height="6.88" transform="translate(471.53 480.16) rotate(180)"/><rect class="cls-89" x="233.58" y="237.9" width="4.36" height="4.36" transform="translate(471.53 480.16) rotate(180)"/><path class="cls-104" d="M7.9,166.78a24.44,24.44,0,1,1,24.44,24.44A24.47,24.47,0,0,1,7.9,166.78Zm1.74,0a22.7,22.7,0,1,0,22.7-22.7A22.73,22.73,0,0,0,9.64,166.78Z"/><path class="cls-105" d="M34.09,175.65v10a18.93,18.93,0,0,0,17.09-17h-10A9,9,0,0,1,34.09,175.65ZM30.6,157.9v-10a18.93,18.93,0,0,0-17.11,17.25h10A9.06,9.06,0,0,1,30.6,157.9Zm3.49-10v10a9.05,9.05,0,0,1,7.14,7.28h10A18.92,18.92,0,0,0,34.09,147.93ZM23.5,168.67h-10a18.93,18.93,0,0,0,17.09,17v-10A9,9,0,0,1,23.5,168.67Z"/><circle class="cls-106" cx="32.34" cy="166.78" r="5.52"/><path class="cls-107" d="M176.85,144.56a10.06,10.06,0,1,1,10.06,10.06A10.07,10.07,0,0,1,176.85,144.56Zm.72,0a9.34,9.34,0,1,0,9.34-9.34A9.35,9.35,0,0,0,177.57,144.56Z"/><path class="cls-108" d="M187.63,148.21v4.1a7.79,7.79,0,0,0,7-7h-4.11A3.73,3.73,0,0,1,187.63,148.21Zm-1.44-7.3v-4.1a7.79,7.79,0,0,0-7,7.1h4.1A3.72,3.72,0,0,1,186.19,140.91Zm1.44-4.1v4.1a3.7,3.7,0,0,1,2.93,3h4.1A7.78,7.78,0,0,0,187.63,136.81Zm-4.36,8.53h-4.11a7.78,7.78,0,0,0,7,7v-4.1A3.71,3.71,0,0,1,183.27,145.34Z"/><path class="cls-109" d="M184.63,144.56a2.28,2.28,0,1,0,2.28-2.27A2.27,2.27,0,0,0,184.63,144.56Z"/><path class="cls-110" d="M113.34,141.51a12.23,12.23,0,1,1,12.23,12.22A12.25,12.25,0,0,1,113.34,141.51Zm.88,0a11.35,11.35,0,1,0,11.35-11.35A11.36,11.36,0,0,0,114.22,141.51Z"/><path class="cls-111" d="M126.44,145.94v5a9.47,9.47,0,0,0,8.54-8.48h-5A4.52,4.52,0,0,1,126.44,145.94Zm-1.75-8.87v-5a9.46,9.46,0,0,0-8.55,8.63h5A4.52,4.52,0,0,1,124.69,137.07Zm1.75-5v5a4.52,4.52,0,0,1,3.57,3.64h5A9.46,9.46,0,0,0,126.44,132.08Zm-5.3,10.37h-5a9.47,9.47,0,0,0,8.54,8.48v-5A4.52,4.52,0,0,1,121.14,142.45Z"/><circle class="cls-112" cx="125.57" cy="141.51" r="2.76"/><path class="cls-113" d="M38.54,100A7.49,7.49,0,1,1,46,107.53,7.5,7.5,0,0,1,38.54,100Zm.53,0a7,7,0,1,0,7-7A7,7,0,0,0,39.07,100Z"/><path class="cls-114" d="M46.56,102.76v3.06a5.8,5.8,0,0,0,5.24-5.2H48.74A2.77,2.77,0,0,1,46.56,102.76Zm-1.07-5.44v-3a5.79,5.79,0,0,0-5.24,5.28h3A2.78,2.78,0,0,1,45.49,97.32Zm1.07-3v3a2.77,2.77,0,0,1,2.19,2.23h3.06A5.8,5.8,0,0,0,46.56,94.27Zm-3.24,6.35H40.25a5.81,5.81,0,0,0,5.24,5.2v-3.06A2.77,2.77,0,0,1,43.32,100.62Z"/><circle class="cls-115" cx="46.03" cy="100.04" r="1.69"/></g></g></svg>